#VRML V2.0 utf8
# 3D model generated by easyeda2kicad.py (https://github.com/uPesy/easyeda2kicad.py)

Shape{
    appearance Appearance {
        material  Material 	{
            diffuseColor 0.5019607843137255 0.5019607843137255 0.5019607843137255
            specularColor 0.25098039215686274 0.25098039215686274 0.25098039215686274
            ambientIntensity 0.502
            transparency 0.0
            shininess 0.5
        }
    }
    geometry IndexedFaceSet {
        ccw TRUE
        solid FALSE
        coord DEF co Coordinate {
            point [
                1.5748 -1.9685 0.0394, 0.0366 -1.9685 0.0394, 1.1811 -0.6299 0.0394, 0.1019 0.0806 0.0394, 0.1213 0.0784 0.0394, 0.0593 -0.0672 0.0394, 0.0558 -0.0653 0.0394, 0.0558 -0.0869 0.0394, 0.0366 -0.0983 0.0394, 0.1533 -0.0904 0.0394, 0.219 -0.0971 0.0394, 0.1342 -0.097 0.0394, 0.1215 -0.0983 0.0394, 1.9685 1.5748 0.0394, 1.9685 0.6299 0.0394, 1.1811 0.6299 0.0394, 0.3199 0.0998 0.0394, 0.3199 -0.0971 0.0394, 1.1811 -0.0983 0.0394, 0.078 0.0775 0.0394, 0.0558 0.068 0.0394, 0.0366 1.9685 0.0394, 0.0558 0.0944 0.0394, 0.136 0.0731 0.0394, 0.1496 0.064 0.0394, 0.1615 0.0508 0.0394, 0.1758 -0.0007 0.0394, 0.1738 -0.0221 0.0394, 0.1685 -0.039 0.0394, 0.1247 -0.0758 0.0394, 0.1063 -0.0779 0.0394, 0.139 -0.0705 0.0394, 0.1511 -0.0624 0.0394, 0.1604 -0.0526 0.0394, 0.0802 -0.075 0.0394, 0.1919 0.0479 0.0394, 0.1803 0.0663 0.0394, 0.2935 0.0998 0.0394, 1.5748 1.9685 0.0394, 0.1696 0.0356 0.0394, 0.1749 0.0146 0.0394, 1.6624 1.9586 0.0394, 1.7456 1.9295 0.0394, 1.8203 1.8826 0.0394, 1.8826 1.8203 0.0394, 1.9295 1.7456 0.0394, 1.9586 1.6624 0.0394, 0.1691 -0.0803 0.0394, 0.1839 -0.0647 0.0394, 0.219 -0.0755 0.0394, 0.1944 -0.046 0.0394, 0.2935 -0.0755 0.0394, 0.1625 0.0834 0.0394, 0.1438 0.0942 0.0394, 0.1219 0.1006 0.0394, 0.2003 -0.0252 0.0394, 0.2022 -0.0024 0.0394, 0.1994 0.0256 0.0394, 0.1021 0.1022 0.0394, 0.0786 0.1006 0.0394, 0.0768 -0.0955 0.0394, 0.0967 -0.0983 0.0394, 0.1046 -0.0994 0.0394, 0.11 -0.0995 0.0394, 1.9685 -0.6299 0.0394, 1.9685 -1.5748 0.0394, 1.9586 -1.6624 0.0394, 1.8203 -1.8826 0.0394, 1.7456 -1.9295 0.0394, 1.6624 -1.9586 0.0394, 1.9295 -1.7456 0.0394, 1.8826 -1.8203 0.0394, -0.2995 -0.0971 0.0394, -0.2753 -0.0431 0.0394, -0.264 -0.0607 0.0394, -0.0882 -0.0971 0.0394, 0.0174 -0.0971 0.0394, 0.0174 0.0998 0.0394, -1.5748 1.9685 0.0394, -0.0834 0.0998 0.0394, -1.6624 1.9586 0.0394, -0.2478 -0.0762 0.0394, -0.2272 -0.0882 0.0394, -0.2045 -0.0949 0.0394, -0.3739 0.0998 0.0394, -0.4003 0.0998 0.0394, -1.1811 0.6299 0.0394, -1.1811 -0.0983 0.0394, -0.009 0.0782 0.0394, -0.009 0.0134 0.0394, -0.0834 0.0782 0.0394, -0.0786 0.0134 0.0394, -0.1266 0.0998 0.0394, -0.0786 -0.0082 0.0394, -0.009 -0.0082 0.0394, -0.009 -0.0755 0.0394, -0.0882 -0.0755 0.0394, -0.1266 -0.0971 0.0394, -0.1802 -0.0971 0.0394, -0.4771 -0.0971 0.0394, -0.4483 -0.0971 0.0394, -1.9685 0.6299 0.0394, -1.9685 1.5748 0.0394, -1.9586 1.6624 0.0394, -1.9295 1.7456 0.0394, -0.2106 0.0967 0.0394, -0.2337 0.0887 0.0394, -0.2551 0.0743 0.0394, -0.1822 0.0998 0.0394, -1.8826 1.8203 0.0394, -1.8203 1.8826 0.0394, -1.7456 1.9295 0.0394, -0.4284 -0.0419 0.0394, -0.3471 -0.0419 0.0394, -0.3283 -0.0971 0.0394, -0.2553 0.0741 0.0394, -0.2692 0.0587 0.0394, -0.2784 0.0418 0.0394, -0.2837 0.0224 0.0394, -0.2851 0.0038 0.0394, -0.2823 -0.0225 0.0394, -1.9685 -1.5748 0.0394, -1.9685 -0.6299 0.0394, -1.1811 -0.6299 0.0394, -1.5748 -1.9685 0.0394, -1.9586 -1.6624 0.0394, -1.6624 -1.9586 0.0394, -1.7456 -1.9295 0.0394, -1.8203 -1.8826 0.0394, -1.8826 -1.8203 0.0394, -1.9295 -1.7456 0.0394
            ]
        }
        coordIndex [
            0,1,2,-1,3,4,5,-1,6,7,8,-1,9,10,11,-1,11,10,12,-1,13,14,15,-1,16,15,17,-1,17,15,18,-1,3,5,19,-1,19,5,6,-1,19,6,20,-1,20,6,21,-1,20,21,22,-1,4,23,5,-1,5,23,24,-1,5,24,25,-1,26,27,5,-1,5,27,28,-1,29,30,31,-1,31,30,32,-1,28,33,5,-1,5,33,32,-1,5,32,34,-1,34,32,30,-1,35,36,37,-1,37,36,21,-1,37,21,16,-1,16,21,38,-1,25,39,5,-1,5,39,40,-1,5,40,26,-1,38,41,16,-1,16,41,42,-1,16,42,43,-1,43,44,16,-1,16,44,45,-1,16,45,15,-1,15,45,46,-1,15,46,13,-1,9,47,10,-1,10,47,48,-1,10,48,49,-1,49,48,50,-1,49,50,51,-1,36,52,21,-1,21,52,53,-1,21,53,54,-1,50,55,51,-1,51,55,56,-1,51,56,37,-1,37,56,57,-1,37,57,35,-1,54,58,21,-1,21,58,59,-1,21,59,22,-1,7,60,8,-1,8,60,61,-1,8,61,1,-1,1,61,62,-1,1,62,2,-1,2,62,63,-1,2,63,18,-1,18,63,12,-1,18,12,17,-1,17,12,10,-1,64,65,2,-1,2,65,66,-1,67,68,2,-1,2,68,69,-1,2,69,0,-1,66,70,2,-1,2,70,71,-1,2,71,67,-1,72,73,74,-1,75,76,8,-1,8,76,77,-1,6,8,21,-1,21,8,77,-1,21,77,78,-1,78,77,79,-1,78,79,80,-1,74,81,72,-1,72,81,82,-1,72,82,83,-1,84,85,86,-1,86,85,87,-1,88,89,90,-1,90,89,91,-1,90,91,92,-1,92,91,93,-1,94,95,93,-1,93,95,96,-1,93,96,92,-1,92,96,75,-1,92,75,97,-1,97,75,8,-1,97,8,98,-1,99,100,8,-1,101,102,86,-1,86,102,103,-1,86,103,104,-1,105,106,84,-1,84,106,107,-1,105,84,108,-1,108,84,86,-1,108,86,92,-1,92,86,79,-1,92,79,90,-1,104,109,86,-1,86,109,110,-1,86,110,79,-1,79,110,111,-1,79,111,80,-1,112,113,100,-1,100,113,114,-1,100,114,8,-1,8,114,72,-1,8,72,98,-1,98,72,83,-1,107,115,84,-1,84,115,116,-1,84,116,117,-1,117,118,84,-1,84,118,119,-1,84,119,72,-1,72,119,120,-1,72,120,73,-1,121,122,123,-1,85,99,87,-1,87,99,8,-1,87,8,123,-1,123,8,1,-1,123,1,124,-1,121,123,125,-1,124,126,123,-1,123,126,127,-1,123,127,128,-1,128,129,123,-1,123,129,130,-1,123,130,125,-1,
        ]
    }
}
Shape{
    appearance Appearance {
        material  Material 	{
            diffuseColor 1.0 1.0 1.0
            specularColor 0.5019607843137255 0.5019607843137255 0.5019607843137255
            ambientIntensity 1.0
            transparency 0.0
            shininess 0.5
        }
    }
    geometry IndexedFaceSet {
        ccw TRUE
        solid FALSE
        coord DEF co Coordinate {
            point [
                -1.9685 0.1969 0.7874, -1.9685 0.5906 0.7874, -2.1654 0.1969 0.7874, -2.1654 0.5906 0.7874, -2.1654 -0.1969 0.7874, -2.1654 -0.5906 0.7874, -1.9685 -0.1969 0.7874, -1.9685 -0.5906 0.7874, -2.1654 0.1969 0.5906, -2.1654 0.5906 0.1969, -2.1654 -0.1969 0.5906, -2.1654 -0.5906 0.1969
            ]
        }
        coordIndex [
            0,1,2,-1,2,1,3,-1,4,5,6,-1,6,5,7,-1,2,3,8,-1,8,3,9,-1,8,9,10,-1,10,9,11,-1,10,11,4,-1,4,11,5,-1,
        ]
    }
}
Shape{
    appearance Appearance {
        material  Material 	{
            diffuseColor 0.5019607843137255 0.5019607843137255 0.5019607843137255
            specularColor 0.25098039215686274 0.25098039215686274 0.25098039215686274
            ambientIntensity 0.502
            transparency 0.0
            shininess 0.5
        }
    }
    geometry IndexedFaceSet {
        ccw TRUE
        solid FALSE
        coord DEF co Coordinate {
            point [
                -1.9685 1.5748 0.0394, -1.9685 0.6299 0.0394, -1.9685 1.5748 1.8504, -1.9685 0.6299 0.1969, -1.9685 0.1969 0.7874, -1.9685 0.1969 0.5906, -1.9685 -0.1969 0.5906, -1.9685 -0.1969 0.7874, -1.9685 -0.5906 0.7874, -1.9685 -1.5748 1.8504, -1.9685 0.5906 0.7874, -1.9685 0.5906 0.1969, -1.9685 -0.6299 0.0394, -1.9685 -1.5748 0.0394, -1.9685 -0.6299 0.1969, -1.9685 -0.5906 0.1969, -1.378 -0.5906 0.1969, -1.378 0.5906 0.1969, -1.1811 0.6299 0.1969, -1.1811 -0.6299 0.1969
            ]
        }
        coordIndex [
            0,1,2,-1,2,1,3,-1,4,5,6,-1,7,8,9,-1,6,7,4,-1,4,7,9,-1,4,9,10,-1,10,9,2,-1,10,2,11,-1,11,2,3,-1,12,13,14,-1,14,13,9,-1,14,9,15,-1,15,9,8,-1,14,15,16,-1,11,3,17,-1,17,3,18,-1,17,18,16,-1,16,18,19,-1,16,19,14,-1,
        ]
    }
}
Shape{
    appearance Appearance {
        material  Material 	{
            diffuseColor 1.0 1.0 1.0
            specularColor 0.5019607843137255 0.5019607843137255 0.5019607843137255
            ambientIntensity 1.0
            transparency 0.0
            shininess 0.5
        }
    }
    geometry IndexedFaceSet {
        ccw TRUE
        solid FALSE
        coord DEF co Coordinate {
            point [
                1.9685 -0.1969 0.7874, 1.9685 -0.5906 0.7874, 2.1654 -0.1969 0.7874, 2.1654 -0.5906 0.7874
            ]
        }
        coordIndex [
            0,1,2,-1,2,1,3,-1,
        ]
    }
}
Shape{
    appearance Appearance {
        material  Material 	{
            diffuseColor 0.5019607843137255 0.5019607843137255 0.5019607843137255
            specularColor 0.25098039215686274 0.25098039215686274 0.25098039215686274
            ambientIntensity 0.502
            transparency 0.0
            shininess 0.5
        }
    }
    geometry IndexedFaceSet {
        ccw TRUE
        solid FALSE
        coord DEF co Coordinate {
            point [
                1.9685 -1.5748 0.0394, 1.9685 -0.6299 0.0394, 1.9685 -1.5748 1.8504, 1.9685 -0.6299 0.1969, 1.9685 -0.1969 0.7874, 1.9685 -0.1969 0.5906, 1.9685 0.1969 0.5906, 1.9685 0.1969 0.7874, 1.9685 0.5906 0.7874, 1.9685 1.5748 1.8504, 1.9685 -0.5906 0.7874, 1.9685 -0.5906 0.1969, 1.9685 0.6299 0.0394, 1.9685 1.5748 0.0394, 1.9685 0.6299 0.1969, 1.9685 0.5906 0.1969, 1.378 0.5906 0.1969, 1.378 -0.5906 0.1969, 1.1811 -0.6299 0.1969, 1.1811 0.6299 0.1969, 1.9609 1.6516 1.8504, 1.9586 1.6624 0.0394, 1.9577 1.6621 1.8504, 1.9385 1.7255 1.8504, 1.9295 1.7456 0.0394, 1.9282 1.7449 1.8504, 1.9022 1.7935 1.8504, 1.8826 1.8203 0.0394, 1.8812 1.8191 1.8504, 1.8532 1.8532 1.8504, 1.8203 1.8826 0.0394, 1.8191 1.8812 1.8504, 1.7935 1.9022 1.8504, 1.7456 1.9295 0.0394, 1.7449 1.9282 1.8504, 1.7255 1.9385 1.8504, 1.6624 1.9586 0.0394, 1.6621 1.9577 1.8504, 1.6516 1.9609 1.8504, 1.5748 1.9685 0.0394, 1.5748 1.9685 1.8504, -1.5748 1.9685 0.0394, -1.5748 1.9685 1.8504, 0.0366 1.9685 0.0394, -1.6516 1.9609 1.8504, -1.6624 1.9586 0.0394, -1.6621 1.9577 1.8504, -1.7255 1.9385 1.8504, -1.7456 1.9295 0.0394, -1.7449 1.9282 1.8504, -1.7935 1.9022 1.8504, -1.8203 1.8826 0.0394, -1.8191 1.8812 1.8504, -1.8532 1.8532 1.8504, -1.8826 1.8203 0.0394, -1.8812 1.8191 1.8504, -1.9022 1.7935 1.8504, -1.9295 1.7456 0.0394, -1.9282 1.7449 1.8504, -1.9385 1.7255 1.8504, -1.9586 1.6624 0.0394, -1.9577 1.6621 1.8504, -1.9609 1.6516 1.8504, -1.9685 1.5748 0.0394, -1.9685 1.5748 1.8504, -1.9685 -1.5748 1.8504, -1.9685 -1.5748 0.0394, -1.9609 -1.6516 1.8504, -1.9586 -1.6624 0.0394, -1.9577 -1.6621 1.8504, -1.9385 -1.7255 1.8504, -1.9295 -1.7456 0.0394, -1.9282 -1.7449 1.8504, -1.9022 -1.7935 1.8504, -1.8826 -1.8203 0.0394, -1.8812 -1.8191 1.8504, -1.8532 -1.8532 1.8504, -1.8203 -1.8826 0.0394, -1.8191 -1.8812 1.8504, -1.7935 -1.9022 1.8504, -1.7456 -1.9295 0.0394, -1.7449 -1.9282 1.8504, -1.7255 -1.9385 1.8504, -1.6624 -1.9586 0.0394, -1.6621 -1.9577 1.8504, -1.6516 -1.9609 1.8504, -1.5748 -1.9685 0.0394, -1.5748 -1.9685 1.8504, 1.5748 -1.9685 1.8504, 0.0366 -1.9685 0.0394, 1.5748 -1.9685 0.0394, 1.6516 -1.9609 1.8504, 1.6624 -1.9586 0.0394, 1.6621 -1.9577 1.8504, 1.7255 -1.9385 1.8504, 1.7456 -1.9295 0.0394, 1.7449 -1.9282 1.8504, 1.7935 -1.9022 1.8504, 1.8203 -1.8826 0.0394, 1.8191 -1.8812 1.8504, 1.8532 -1.8532 1.8504, 1.8826 -1.8203 0.0394, 1.8812 -1.8191 1.8504, 1.9022 -1.7935 1.8504, 1.9295 -1.7456 0.0394, 1.9282 -1.7449 1.8504, 1.9385 -1.7255 1.8504, 1.9586 -1.6624 0.0394, 1.9577 -1.6621 1.8504, 1.9609 -1.6516 1.8504, -1.8694 1.7717 1.8898, -1.9022 1.7104 1.8898, -1.5748 1.9291 1.8898, -1.8254 -1.8254 1.8898, -1.7717 -1.8694 1.8898, -1.7104 -1.9022 1.8898, 1.6439 1.9223 1.8898, 1.9291 1.5748 1.8898, 1.7104 1.9022 1.8898, 1.9223 1.6439 1.8898, -1.9223 1.6439 1.8898, -1.9291 1.5748 1.8898, 1.5748 1.9291 1.8898, -1.9022 -1.7104 1.8898, -1.8694 -1.7717 1.8898, -1.5748 -1.9291 1.8898, -1.6439 -1.9223 1.8898, 1.5748 -1.9291 1.8898, 1.9291 -1.5748 1.8898, 1.6439 -1.9223 1.8898, 1.8694 -1.7717 1.8898, 1.9022 -1.7104 1.8898, 1.9223 -1.6439 1.8898, 1.9022 1.7104 1.8898, 1.8694 1.7717 1.8898, 1.7717 1.8694 1.8898, 1.8254 1.8254 1.8898, -1.6439 1.9223 1.8898, -1.7104 1.9022 1.8898, -1.9291 -1.5748 1.8898, -1.9223 -1.6439 1.8898, -1.7717 1.8694 1.8898, -1.8254 1.8254 1.8898, 1.7104 -1.9022 1.8898, 1.7717 -1.8694 1.8898, 1.8254 -1.8254 1.8898, -1.1811 -0.6299 0.0394, -1.1811 -0.6299 0.1969, -1.1811 -0.0983 0.0394, -1.1811 0.6299 0.1969, -1.1811 0.6299 0.0394, -1.9685 0.6299 0.1969, -1.9685 0.6299 0.0394, -1.9685 -0.6299 0.1969, -1.9685 -0.6299 0.0394, 1.1811 0.6299 0.0394, 1.1811 -0.0983 0.0394, 1.1811 -0.6299 0.0394
            ]
        }
        coordIndex [
            0,1,2,-1,2,1,3,-1,4,5,6,-1,7,8,9,-1,6,7,4,-1,4,7,9,-1,4,9,10,-1,10,9,2,-1,10,2,11,-1,11,2,3,-1,12,13,14,-1,14,13,9,-1,14,9,15,-1,15,9,8,-1,14,15,16,-1,11,3,17,-1,17,3,18,-1,17,18,16,-1,16,18,19,-1,16,19,14,-1,9,13,20,-1,20,13,21,-1,20,21,22,-1,22,21,23,-1,23,21,24,-1,23,24,25,-1,25,24,26,-1,26,24,27,-1,26,27,28,-1,28,27,29,-1,29,27,30,-1,29,30,31,-1,31,30,32,-1,32,30,33,-1,32,33,34,-1,34,33,35,-1,35,33,36,-1,35,36,37,-1,37,36,38,-1,38,36,39,-1,38,39,40,-1,41,42,43,-1,43,42,40,-1,43,40,39,-1,42,41,44,-1,44,41,45,-1,44,45,46,-1,46,45,47,-1,47,45,48,-1,47,48,49,-1,49,48,50,-1,50,48,51,-1,50,51,52,-1,52,51,53,-1,53,51,54,-1,53,54,55,-1,55,54,56,-1,56,54,57,-1,56,57,58,-1,58,57,59,-1,59,57,60,-1,59,60,61,-1,61,60,62,-1,62,60,63,-1,62,63,64,-1,65,66,67,-1,67,66,68,-1,67,68,69,-1,69,68,70,-1,70,68,71,-1,70,71,72,-1,72,71,73,-1,73,71,74,-1,73,74,75,-1,75,74,76,-1,76,74,77,-1,76,77,78,-1,78,77,79,-1,79,77,80,-1,79,80,81,-1,81,80,82,-1,82,80,83,-1,82,83,84,-1,84,83,85,-1,85,83,86,-1,85,86,87,-1,87,86,88,-1,88,86,89,-1,88,89,90,-1,88,90,91,-1,91,90,92,-1,91,92,93,-1,93,92,94,-1,94,92,95,-1,94,95,96,-1,96,95,97,-1,97,95,98,-1,97,98,99,-1,99,98,100,-1,100,98,101,-1,100,101,102,-1,102,101,103,-1,103,101,104,-1,103,104,105,-1,105,104,106,-1,106,104,107,-1,106,107,108,-1,108,107,109,-1,109,107,0,-1,109,0,2,-1,110,111,112,-1,113,114,115,-1,116,117,118,-1,118,117,119,-1,111,120,112,-1,112,120,121,-1,112,121,122,-1,123,124,125,-1,125,124,113,-1,125,113,126,-1,126,113,115,-1,125,127,128,-1,128,127,129,-1,130,131,132,-1,119,133,118,-1,118,133,134,-1,118,134,135,-1,135,134,136,-1,112,137,138,-1,116,122,117,-1,117,122,121,-1,117,121,128,-1,128,121,139,-1,128,139,125,-1,125,139,140,-1,125,140,123,-1,138,141,112,-1,112,141,142,-1,112,142,110,-1,129,143,128,-1,128,143,144,-1,128,144,132,-1,132,144,145,-1,132,145,130,-1,146,147,148,-1,148,147,149,-1,148,149,150,-1,149,151,150,-1,150,151,152,-1,153,147,154,-1,154,147,146,-1,14,19,12,-1,12,19,155,-1,155,19,156,-1,156,19,18,-1,156,18,157,-1,18,3,157,-1,157,3,1,-1,
        ]
    }
}
Shape{
    appearance Appearance {
        material  Material 	{
            diffuseColor 1.0 1.0 1.0
            specularColor 0.5019607843137255 0.5019607843137255 0.5019607843137255
            ambientIntensity 1.0
            transparency 0.0
            shininess 0.5
        }
    }
    geometry IndexedFaceSet {
        ccw TRUE
        solid FALSE
        coord DEF co Coordinate {
            point [
                1.9685 -0.5906 0.0, 1.378 -0.5906 0.0, 1.9685 0.5906 0.0, 1.378 0.5906 0.0, 2.0195 0.5906 0.0067, 2.0195 -0.5906 0.0067, 2.0669 0.5906 0.0264, 2.0669 -0.5906 0.0264, 2.1077 0.5906 0.0577, 2.1077 -0.5906 0.0577, 2.139 0.5906 0.0984, 2.139 -0.5906 0.0984, 2.1586 0.5906 0.1459, 2.1586 -0.5906 0.1459, 2.1654 0.5906 0.1969, 2.1654 -0.5906 0.1969, 2.1654 -0.1969 0.7874, 2.1654 -0.5906 0.7874, 2.1654 -0.1969 0.5906, 2.1654 0.1969 0.5906, 2.1654 0.1969 0.7874, 2.1654 0.5906 0.7874, 1.9685 0.1969 0.7874, 1.9685 0.5906 0.7874, 1.378 -0.5906 0.1969, 1.378 0.5906 0.1969, 1.9685 -0.5906 0.7874, 1.9685 -0.5906 0.1969, 1.9685 0.5906 0.1969, 1.9685 -0.1969 0.5906, 1.9685 -0.1969 0.7874, 1.9685 0.1969 0.5906, -1.378 -0.5906 0.0, -1.9685 -0.5906 0.0, -1.378 0.5906 0.0, -1.9685 0.5906 0.0, -1.378 -0.5906 0.1969, -1.378 0.5906 0.1969, -2.1654 -0.5906 0.1969, -2.1654 0.5906 0.1969, -2.1586 0.5906 0.1459, -2.1586 -0.5906 0.1459, -2.139 0.5906 0.0984, -2.139 -0.5906 0.0984, -2.1077 0.5906 0.0577, -2.1077 -0.5906 0.0577, -2.0669 0.5906 0.0264, -2.0669 -0.5906 0.0264, -2.0195 0.5906 0.0067, -2.0195 -0.5906 0.0067, -1.9685 -0.5906 0.1969, -1.9685 -0.5906 0.7874, -2.1654 -0.5906 0.7874, -1.9685 0.5906 0.1969, -2.1654 0.5906 0.7874, -1.9685 0.5906 0.7874, -1.9685 -0.1969 0.5906, -1.9685 0.1969 0.5906, -2.1654 -0.1969 0.5906, -2.1654 0.1969 0.5906, -1.9685 0.1969 0.7874, -2.1654 0.1969 0.7874, -2.1654 -0.1969 0.7874, -1.9685 -0.1969 0.7874
            ]
        }
        coordIndex [
            0,1,2,-1,2,1,3,-1,0,2,4,-1,0,4,5,-1,5,4,6,-1,5,6,7,-1,7,6,8,-1,7,8,9,-1,9,8,10,-1,9,10,11,-1,11,10,12,-1,11,12,13,-1,13,12,14,-1,13,14,15,-1,16,17,18,-1,18,17,15,-1,18,15,19,-1,19,15,14,-1,19,14,20,-1,20,14,21,-1,20,21,22,-1,22,21,23,-1,1,24,3,-1,3,24,25,-1,17,26,15,-1,15,26,27,-1,15,27,13,-1,13,27,11,-1,24,1,27,-1,27,1,0,-1,27,0,5,-1,5,7,27,-1,27,7,9,-1,27,9,11,-1,3,25,2,-1,2,25,28,-1,2,28,4,-1,4,28,6,-1,23,21,28,-1,28,21,14,-1,28,14,12,-1,12,10,28,-1,28,10,8,-1,28,8,6,-1,29,30,18,-1,18,30,16,-1,19,20,31,-1,31,20,22,-1,31,29,19,-1,19,29,18,-1,32,33,34,-1,34,33,35,-1,36,32,37,-1,37,32,34,-1,38,39,40,-1,38,40,41,-1,41,40,42,-1,41,42,43,-1,43,42,44,-1,43,44,45,-1,45,44,46,-1,45,46,47,-1,47,46,48,-1,47,48,49,-1,49,48,35,-1,49,35,33,-1,32,36,33,-1,33,36,50,-1,51,52,50,-1,50,52,38,-1,45,47,50,-1,50,47,49,-1,50,49,33,-1,38,41,50,-1,50,41,43,-1,50,43,45,-1,37,34,53,-1,53,34,35,-1,53,35,48,-1,54,55,39,-1,39,55,53,-1,39,53,40,-1,40,53,42,-1,48,46,53,-1,53,46,44,-1,53,44,42,-1,56,57,58,-1,58,57,59,-1,57,60,59,-1,59,60,61,-1,58,62,56,-1,56,62,63,-1,
        ]
    }
}
Shape{
    appearance Appearance {
        material  Material 	{
            diffuseColor 0.0 0.0 0.0
            specularColor 0.0 0.0 0.0
            ambientIntensity 0.0
            transparency 0.0
            shininess 0.5
        }
    }
    geometry IndexedFaceSet {
        ccw TRUE
        solid FALSE
        coord DEF co Coordinate {
            point [
                -0.4003 0.0998 0.0398, -0.4771 -0.0971 0.0398, -0.4003 0.0998 0.0394, -0.4771 -0.0971 0.0394, -0.4483 -0.0971 0.0398, -0.4483 -0.0971 0.0394, -0.4284 -0.0419 0.0398, -0.4284 -0.0419 0.0394, -0.3471 -0.0419 0.0398, -0.3471 -0.0419 0.0394, -0.3283 -0.0971 0.0398, -0.3283 -0.0971 0.0394, -0.2995 -0.0971 0.0398, -0.2995 -0.0971 0.0394, -0.3739 0.0998 0.0398, -0.3739 0.0998 0.0394, -0.3537 -0.0202 0.0398, -0.4196 -0.0202 0.0398, -0.3831 0.062 0.0398, -0.385 0.0688 0.0398, -0.3862 0.0758 0.0398, -0.3869 0.0758 0.0398, -0.3882 0.0688 0.0398, -0.3899 0.062 0.0398, -0.3537 -0.0202 0.0394, -0.4196 -0.0202 0.0394, -0.3831 0.062 0.0394, -0.385 0.0688 0.0394, -0.3862 0.0758 0.0394, -0.3869 0.0758 0.0394, -0.3882 0.0688 0.0394, -0.3899 0.062 0.0394, -0.1802 -0.0971 0.0398, -0.1266 -0.0971 0.0398, -0.1802 -0.0971 0.0394, -0.1266 -0.0971 0.0394, -0.1266 0.0998 0.0398, -0.1266 0.0998 0.0394, -0.1822 0.0998 0.0398, -0.1822 0.0998 0.0394, -0.2851 0.0038 0.0398, -0.2851 0.0038 0.0394, -0.2837 0.0224 0.0394, -0.2837 0.0224 0.0398, -0.2784 0.0418 0.0394, -0.2784 0.0418 0.0398, -0.2692 0.0587 0.0394, -0.2692 0.0587 0.0398, -0.2553 0.0741 0.0394, -0.2553 0.0741 0.0398, -0.2551 0.0743 0.0394, -0.2551 0.0743 0.0398, -0.2337 0.0887 0.0394, -0.2337 0.0887 0.0398, -0.2106 0.0967 0.0394, -0.2106 0.0967 0.0398, -0.2045 -0.0949 0.0394, -0.2045 -0.0949 0.0398, -0.2272 -0.0882 0.0394, -0.2272 -0.0882 0.0398, -0.2478 -0.0762 0.0394, -0.2478 -0.0762 0.0398, -0.264 -0.0607 0.0394, -0.264 -0.0607 0.0398, -0.2753 -0.0431 0.0394, -0.2753 -0.0431 0.0398, -0.2823 -0.0225 0.0394, -0.2823 -0.0225 0.0398, -0.2456 0.0506 0.0398, -0.236 0.0607 0.0398, -0.2216 0.07 0.0398, -0.2054 0.0757 0.0398, -0.1821 0.0782 0.0398, -0.153 0.0782 0.0398, -0.153 -0.0755 0.0398, -0.181 -0.0755 0.0398, -0.2018 -0.0735 0.0398, -0.2183 -0.0684 0.0398, -0.2318 -0.0604 0.0398, -0.2428 -0.0495 0.0398, -0.2511 -0.0359 0.0398, -0.2569 -0.0174 0.0398, -0.2587 0.0033 0.0398, -0.257 0.0229 0.0398, -0.2524 0.0384 0.0398, -0.1821 0.0782 0.0394, -0.153 0.0782 0.0394, -0.2054 0.0757 0.0394, -0.2216 0.07 0.0394, -0.236 0.0607 0.0394, -0.2456 0.0506 0.0394, -0.2524 0.0384 0.0394, -0.257 0.0229 0.0394, -0.2587 0.0033 0.0394, -0.2569 -0.0174 0.0394, -0.2511 -0.0359 0.0394, -0.2428 -0.0495 0.0394, -0.2318 -0.0604 0.0394, -0.2183 -0.0684 0.0394, -0.2018 -0.0735 0.0394, -0.181 -0.0755 0.0394, -0.153 -0.0755 0.0394, -0.0882 -0.0755 0.0398, -0.0882 -0.0971 0.0398, -0.0882 -0.0755 0.0394, -0.0882 -0.0971 0.0394, 0.0174 -0.0971 0.0398, 0.0174 -0.0971 0.0394, 0.0174 0.0998 0.0398, 0.0174 0.0998 0.0394, -0.0834 0.0998 0.0398, -0.0834 0.0998 0.0394, -0.0834 0.0782 0.0398, -0.0834 0.0782 0.0394, -0.009 0.0782 0.0398, -0.009 0.0782 0.0394, -0.009 0.0134 0.0398, -0.009 0.0134 0.0394, -0.0786 0.0134 0.0398, -0.0786 0.0134 0.0394, -0.0786 -0.0082 0.0398, -0.0786 -0.0082 0.0394, -0.009 -0.0082 0.0398, -0.009 -0.0082 0.0394, -0.009 -0.0755 0.0398, -0.009 -0.0755 0.0394, 0.0558 -0.0653 0.0398, 0.0558 -0.0869 0.0398, 0.0558 -0.0653 0.0394, 0.0558 -0.0869 0.0394, 0.0768 -0.0955 0.0398, 0.11 -0.0995 0.0398, 0.11 -0.0995 0.0394, 0.1046 -0.0994 0.0394, 0.1046 -0.0994 0.0398, 0.0967 -0.0983 0.0394, 0.0768 -0.0955 0.0394, 0.1215 -0.0983 0.0394, 0.1342 -0.097 0.0398, 0.1342 -0.097 0.0394, 0.1533 -0.0904 0.0398, 0.1533 -0.0904 0.0394, 0.1691 -0.0803 0.0398, 0.1691 -0.0803 0.0394, 0.1839 -0.0647 0.0398, 0.1839 -0.0647 0.0394, 0.1944 -0.046 0.0398, 0.1944 -0.046 0.0394, 0.2003 -0.0252 0.0398, 0.2003 -0.0252 0.0394, 0.2022 -0.0024 0.0398, 0.2022 -0.0024 0.0394, 0.1021 0.1022 0.0398, 0.1021 0.1022 0.0394, 0.1219 0.1006 0.0394, 0.1219 0.1006 0.0398, 0.1438 0.0942 0.0394, 0.1438 0.0942 0.0398, 0.1625 0.0834 0.0394, 0.1625 0.0834 0.0398, 0.1803 0.0663 0.0394, 0.1803 0.0663 0.0398, 0.1919 0.0479 0.0394, 0.1919 0.0479 0.0398, 0.1994 0.0256 0.0394, 0.1994 0.0256 0.0398, 0.0558 0.0944 0.0398, 0.0558 0.0944 0.0394, 0.0786 0.1006 0.0394, 0.0786 0.1006 0.0398, 0.0558 0.068 0.0398, 0.0558 0.068 0.0394, 0.1019 0.0806 0.0398, 0.1019 0.0806 0.0394, 0.078 0.0775 0.0394, 0.078 0.0775 0.0398, 0.1758 -0.0007 0.0398, 0.1758 -0.0007 0.0394, 0.1749 0.0146 0.0394, 0.1749 0.0146 0.0398, 0.1696 0.0356 0.0394, 0.1696 0.0356 0.0398, 0.1615 0.0508 0.0394, 0.1615 0.0508 0.0398, 0.1496 0.064 0.0394, 0.1496 0.064 0.0398, 0.136 0.0731 0.0394, 0.136 0.0731 0.0398, 0.1213 0.0784 0.0394, 0.1213 0.0784 0.0398, 0.1063 -0.0779 0.0398, 0.1063 -0.0779 0.0394, 0.1247 -0.0758 0.0394, 0.1247 -0.0758 0.0398, 0.139 -0.0705 0.0394, 0.139 -0.0705 0.0398, 0.1511 -0.0624 0.0394, 0.1511 -0.0624 0.0398, 0.1604 -0.0526 0.0394, 0.1604 -0.0526 0.0398, 0.1685 -0.039 0.0394, 0.1685 -0.039 0.0398, 0.1738 -0.0221 0.0394, 0.1738 -0.0221 0.0398, 0.0593 -0.0672 0.0394, 0.0593 -0.0672 0.0398, 0.0802 -0.075 0.0394, 0.0802 -0.075 0.0398, 0.219 -0.0755 0.0398, 0.219 -0.0971 0.0398, 0.219 -0.0755 0.0394, 0.219 -0.0971 0.0394, 0.3199 -0.0971 0.0398, 0.3199 -0.0971 0.0394, 0.3199 0.0998 0.0398, 0.3199 0.0998 0.0394, 0.2935 0.0998 0.0398, 0.2935 0.0998 0.0394, 0.2935 -0.0755 0.0398, 0.2935 -0.0755 0.0394
            ]
        }
        coordIndex [
            0,1,2,-1,2,1,3,-1,1,4,3,-1,3,4,5,-1,4,6,5,-1,5,6,7,-1,6,8,7,-1,7,8,9,-1,8,10,9,-1,9,10,11,-1,10,12,11,-1,11,12,13,-1,12,14,13,-1,13,14,15,-1,14,0,15,-1,15,0,2,-1,16,8,17,-1,17,8,6,-1,18,14,16,-1,16,14,12,-1,16,12,8,-1,8,12,10,-1,18,19,14,-1,14,19,20,-1,14,20,0,-1,0,20,21,-1,0,21,22,-1,22,23,0,-1,0,23,17,-1,0,17,1,-1,1,17,6,-1,1,6,4,-1,16,17,24,-1,24,17,25,-1,18,16,26,-1,26,16,24,-1,18,26,27,-1,18,27,19,-1,19,27,28,-1,19,28,20,-1,21,20,29,-1,29,20,28,-1,21,29,30,-1,21,30,22,-1,22,30,31,-1,22,31,23,-1,17,23,25,-1,25,23,31,-1,32,33,34,-1,34,33,35,-1,33,36,35,-1,35,36,37,-1,36,38,37,-1,37,38,39,-1,40,41,42,-1,40,42,43,-1,43,42,44,-1,43,44,45,-1,45,44,46,-1,45,46,47,-1,47,46,48,-1,47,48,49,-1,49,48,50,-1,49,50,51,-1,51,50,52,-1,51,52,53,-1,53,52,54,-1,53,54,55,-1,55,54,39,-1,55,39,38,-1,32,34,56,-1,32,56,57,-1,57,56,58,-1,57,58,59,-1,59,58,60,-1,59,60,61,-1,61,60,62,-1,61,62,63,-1,63,62,64,-1,63,64,65,-1,65,64,66,-1,65,66,67,-1,67,66,41,-1,67,41,40,-1,45,47,68,-1,68,47,49,-1,68,49,69,-1,69,49,51,-1,69,51,70,-1,70,51,53,-1,70,53,71,-1,71,53,55,-1,71,55,72,-1,72,55,38,-1,72,38,73,-1,73,38,36,-1,73,36,74,-1,74,36,33,-1,74,33,75,-1,75,33,32,-1,75,32,76,-1,76,32,57,-1,76,57,77,-1,77,57,59,-1,77,59,78,-1,78,59,61,-1,78,61,79,-1,79,61,63,-1,79,63,80,-1,80,63,65,-1,80,65,81,-1,81,65,67,-1,81,67,82,-1,82,67,40,-1,82,40,83,-1,83,40,43,-1,83,43,84,-1,84,43,45,-1,84,45,68,-1,72,73,85,-1,85,73,86,-1,72,85,87,-1,72,87,71,-1,71,87,88,-1,71,88,70,-1,70,88,89,-1,70,89,69,-1,69,89,90,-1,69,90,68,-1,68,90,91,-1,68,91,84,-1,84,91,92,-1,84,92,83,-1,83,92,93,-1,83,93,82,-1,82,93,94,-1,82,94,81,-1,81,94,95,-1,81,95,80,-1,80,95,96,-1,80,96,79,-1,79,96,97,-1,79,97,78,-1,78,97,98,-1,78,98,77,-1,77,98,99,-1,77,99,76,-1,76,99,100,-1,76,100,75,-1,74,75,101,-1,101,75,100,-1,73,74,86,-1,86,74,101,-1,102,103,104,-1,104,103,105,-1,103,106,105,-1,105,106,107,-1,106,108,107,-1,107,108,109,-1,108,110,109,-1,109,110,111,-1,110,112,111,-1,111,112,113,-1,112,114,113,-1,113,114,115,-1,114,116,115,-1,115,116,117,-1,116,118,117,-1,117,118,119,-1,118,120,119,-1,119,120,121,-1,120,122,121,-1,121,122,123,-1,122,124,123,-1,123,124,125,-1,124,102,125,-1,125,102,104,-1,106,103,102,-1,102,124,106,-1,106,124,122,-1,106,122,108,-1,112,110,114,-1,114,110,108,-1,114,108,116,-1,116,108,122,-1,116,122,118,-1,118,122,120,-1,126,127,128,-1,128,127,129,-1,129,127,130,-1,131,132,133,-1,131,133,134,-1,134,133,135,-1,134,135,130,-1,130,135,136,-1,130,136,129,-1,132,131,137,-1,137,131,138,-1,137,138,139,-1,139,138,140,-1,139,140,141,-1,141,140,142,-1,141,142,143,-1,143,142,144,-1,143,144,145,-1,145,144,146,-1,145,146,147,-1,147,146,148,-1,147,148,149,-1,149,148,150,-1,149,150,151,-1,152,153,154,-1,152,154,155,-1,155,154,156,-1,155,156,157,-1,157,156,158,-1,157,158,159,-1,159,158,160,-1,159,160,161,-1,161,160,162,-1,161,162,163,-1,163,162,164,-1,163,164,165,-1,165,164,151,-1,165,151,150,-1,166,167,168,-1,166,168,169,-1,169,168,153,-1,169,153,152,-1,166,170,167,-1,167,170,171,-1,172,173,174,-1,172,174,175,-1,175,174,171,-1,175,171,170,-1,176,177,178,-1,176,178,179,-1,179,178,180,-1,179,180,181,-1,181,180,182,-1,181,182,183,-1,183,182,184,-1,183,184,185,-1,185,184,186,-1,185,186,187,-1,187,186,188,-1,187,188,189,-1,189,188,173,-1,189,173,172,-1,190,191,192,-1,190,192,193,-1,193,192,194,-1,193,194,195,-1,195,194,196,-1,195,196,197,-1,197,196,198,-1,197,198,199,-1,199,198,200,-1,199,200,201,-1,201,200,202,-1,201,202,203,-1,203,202,177,-1,203,177,176,-1,126,128,204,-1,126,204,205,-1,205,204,206,-1,205,206,207,-1,207,206,191,-1,207,191,190,-1,193,131,190,-1,190,131,134,-1,190,134,207,-1,207,134,130,-1,207,130,205,-1,205,130,127,-1,205,127,126,-1,170,166,175,-1,175,166,169,-1,175,169,172,-1,172,169,152,-1,172,152,189,-1,189,152,155,-1,189,155,187,-1,187,155,157,-1,187,157,185,-1,185,157,159,-1,185,159,183,-1,183,159,161,-1,183,161,181,-1,181,161,163,-1,181,163,179,-1,179,163,165,-1,179,165,176,-1,176,165,150,-1,176,150,203,-1,203,150,148,-1,203,148,201,-1,201,148,146,-1,201,146,199,-1,199,146,144,-1,199,144,197,-1,197,144,142,-1,197,142,195,-1,195,142,140,-1,195,140,193,-1,193,140,138,-1,193,138,131,-1,208,209,210,-1,210,209,211,-1,209,212,211,-1,211,212,213,-1,212,214,213,-1,213,214,215,-1,214,216,215,-1,215,216,217,-1,216,218,217,-1,217,218,219,-1,218,208,219,-1,219,208,210,-1,216,214,218,-1,218,214,212,-1,218,212,208,-1,208,212,209,-1,
        ]
    }
}
Shape{
    appearance Appearance {
        material  Material 	{
            diffuseColor 0.5019607843137255 0.5019607843137255 0.5019607843137255
            specularColor 0.25098039215686274 0.25098039215686274 0.25098039215686274
            ambientIntensity 0.502
            transparency 0.0
            shininess 0.5
        }
    }
    geometry IndexedFaceSet {
        ccw TRUE
        solid FALSE
        coord DEF co Coordinate {
            point [
                -0.3537 -0.0202 0.0394, -0.4196 -0.0202 0.0394, -0.3831 0.062 0.0394, -0.3899 0.062 0.0394, -0.385 0.0688 0.0394, -0.3882 0.0688 0.0394, -0.3862 0.0758 0.0394, -0.3869 0.0758 0.0394, -0.153 0.0782 0.0394, -0.153 -0.0755 0.0394, -0.1821 0.0782 0.0394, -0.181 -0.0755 0.0394, -0.2018 -0.0735 0.0394, -0.2587 0.0033 0.0394, -0.257 0.0229 0.0394, -0.2524 0.0384 0.0394, -0.2054 0.0757 0.0394, -0.2183 -0.0684 0.0394, -0.2318 -0.0604 0.0394, -0.2428 -0.0495 0.0394, -0.2511 -0.0359 0.0394, -0.2569 -0.0174 0.0394, -0.2456 0.0506 0.0394, -0.236 0.0607 0.0394, -0.2216 0.07 0.0394, -1.9685 1.5748 1.8504, -1.9685 -1.5748 1.8504, -1.9672 -1.5748 1.8606, -1.9672 1.5748 1.8606, -1.9632 -1.5748 1.8701, -1.9632 1.5748 1.8701, -1.957 -1.5748 1.8782, -1.957 1.5748 1.8782, -1.9488 -1.5748 1.8845, -1.9488 1.5748 1.8845, -1.9393 -1.5748 1.8884, -1.9393 1.5748 1.8884, -1.9291 -1.5748 1.8898, -1.9291 1.5748 1.8898, -1.9323 -1.6459 1.8884, -1.9416 -1.6478 1.8845, -1.9496 -1.6494 1.8782, -1.9558 -1.6506 1.8701, -1.9596 -1.6513 1.8606, -1.9609 -1.6516 1.8504, -1.9577 -1.6621 1.8504, -1.9373 -1.725 1.8606, -1.9385 -1.7255 1.8504, -1.9282 -1.7449 1.8504, -1.901 -1.7928 1.8606, -1.9022 -1.7935 1.8504, -1.8812 -1.8191 1.8504, -1.8522 -1.8522 1.8606, -1.8532 -1.8532 1.8504, -1.8191 -1.8812 1.8504, -1.7928 -1.901 1.8606, -1.7935 -1.9022 1.8504, -1.725 -1.9373 1.8606, -1.7449 -1.9282 1.8504, -1.7255 -1.9385 1.8504, -1.6513 -1.9596 1.8606, -1.6621 -1.9577 1.8504, -1.6516 -1.9609 1.8504, -1.5748 -1.9685 1.8504, -1.5748 -1.9672 1.8606, -1.9337 -1.7234 1.8701, -1.8978 -1.7906 1.8701, -1.8495 -1.8495 1.8701, -1.7906 -1.8978 1.8701, -1.7234 -1.9337 1.8701, -1.6506 -1.9558 1.8701, -1.5748 -1.9632 1.8701, -1.9279 -1.7211 1.8782, -1.8926 -1.7871 1.8782, -1.845 -1.845 1.8782, -1.7871 -1.8926 1.8782, -1.7211 -1.9279 1.8782, -1.6494 -1.9496 1.8782, -1.5748 -1.957 1.8782, -1.9203 -1.7179 1.8845, -1.8858 -1.7826 1.8845, -1.8393 -1.8393 1.8845, -1.7826 -1.8858 1.8845, -1.7179 -1.9203 1.8845, -1.6478 -1.9416 1.8845, -1.5748 -1.9488 1.8845, -1.9116 -1.7143 1.8884, -1.8779 -1.7773 1.8884, -1.8326 -1.8326 1.8884, -1.7773 -1.8779 1.8884, -1.7143 -1.9116 1.8884, -1.6459 -1.9323 1.8884, -1.5748 -1.9393 1.8884, -1.9223 -1.6439 1.8898, -1.9022 -1.7104 1.8898, -1.8694 -1.7717 1.8898, -1.8254 -1.8254 1.8898, -1.7717 -1.8694 1.8898, -1.7104 -1.9022 1.8898, -1.6439 -1.9223 1.8898, -1.5748 -1.9291 1.8898, -1.5748 1.9291 1.8898, -1.5748 1.9393 1.8884, -1.6459 1.9323 1.8884, -1.5748 1.9488 1.8845, -1.6478 1.9416 1.8845, -1.5748 1.957 1.8782, -1.6494 1.9496 1.8782, -1.5748 1.9632 1.8701, -1.6506 1.9558 1.8701, -1.5748 1.9672 1.8606, -1.6513 1.9596 1.8606, -1.5748 1.9685 1.8504, -1.6516 1.9609 1.8504, -1.6621 1.9577 1.8504, -1.725 1.9373 1.8606, -1.7255 1.9385 1.8504, -1.7449 1.9282 1.8504, -1.7928 1.901 1.8606, -1.7935 1.9022 1.8504, -1.8191 1.8812 1.8504, -1.8522 1.8522 1.8606, -1.8532 1.8532 1.8504, -1.8812 1.8191 1.8504, -1.901 1.7928 1.8606, -1.9022 1.7935 1.8504, -1.9373 1.725 1.8606, -1.9282 1.7449 1.8504, -1.9385 1.7255 1.8504, -1.9596 1.6513 1.8606, -1.9577 1.6621 1.8504, -1.9609 1.6516 1.8504, -1.7234 1.9337 1.8701, -1.7906 1.8978 1.8701, -1.8495 1.8495 1.8701, -1.8978 1.7906 1.8701, -1.9337 1.7234 1.8701, -1.9558 1.6506 1.8701, -1.7211 1.9279 1.8782, -1.7871 1.8926 1.8782, -1.845 1.845 1.8782, -1.8926 1.7871 1.8782, -1.9279 1.7211 1.8782, -1.9496 1.6494 1.8782, -1.7179 1.9203 1.8845, -1.7826 1.8858 1.8845, -1.8393 1.8393 1.8845, -1.8858 1.7826 1.8845, -1.9203 1.7179 1.8845, -1.9416 1.6478 1.8845, -1.7143 1.9116 1.8884, -1.7773 1.8779 1.8884, -1.8326 1.8326 1.8884, -1.8779 1.7773 1.8884, -1.9116 1.7143 1.8884, -1.9323 1.6459 1.8884, -1.6439 1.9223 1.8898, -1.7104 1.9022 1.8898, -1.7717 1.8694 1.8898, -1.8254 1.8254 1.8898, -1.8694 1.7717 1.8898, -1.9022 1.7104 1.8898, -1.9223 1.6439 1.8898, 1.5748 -1.9685 1.8504, 1.5748 -1.9672 1.8606, 1.5748 -1.9632 1.8701, 1.5748 -1.957 1.8782, 1.5748 -1.9488 1.8845, 1.5748 -1.9393 1.8884, 1.5748 -1.9291 1.8898, 1.5748 1.9685 1.8504, 1.5748 1.9672 1.8606, 1.5748 1.9632 1.8701, 1.5748 1.957 1.8782, 1.5748 1.9488 1.8845, 1.5748 1.9393 1.8884, 1.5748 1.9291 1.8898, 1.6459 -1.9323 1.8884, 1.6478 -1.9416 1.8845, 1.6494 -1.9496 1.8782, 1.6506 -1.9558 1.8701, 1.6513 -1.9596 1.8606, 1.6516 -1.9609 1.8504, 1.6621 -1.9577 1.8504, 1.725 -1.9373 1.8606, 1.7255 -1.9385 1.8504, 1.7449 -1.9282 1.8504, 1.7928 -1.901 1.8606, 1.7935 -1.9022 1.8504, 1.8191 -1.8812 1.8504, 1.8522 -1.8522 1.8606, 1.8532 -1.8532 1.8504, 1.8812 -1.8191 1.8504, 1.901 -1.7928 1.8606, 1.9022 -1.7935 1.8504, 1.9373 -1.725 1.8606, 1.9282 -1.7449 1.8504, 1.9385 -1.7255 1.8504, 1.9596 -1.6513 1.8606, 1.9577 -1.6621 1.8504, 1.9609 -1.6516 1.8504, 1.9685 -1.5748 1.8504, 1.9672 -1.5748 1.8606, 1.7234 -1.9337 1.8701, 1.7906 -1.8978 1.8701, 1.8495 -1.8495 1.8701, 1.8978 -1.7906 1.8701, 1.9337 -1.7234 1.8701, 1.9558 -1.6506 1.8701, 1.9632 -1.5748 1.8701, 1.7211 -1.9279 1.8782, 1.7871 -1.8926 1.8782, 1.845 -1.845 1.8782, 1.8926 -1.7871 1.8782, 1.9279 -1.7211 1.8782, 1.9496 -1.6494 1.8782, 1.957 -1.5748 1.8782, 1.7179 -1.9203 1.8845, 1.7826 -1.8858 1.8845, 1.8393 -1.8393 1.8845, 1.8858 -1.7826 1.8845, 1.9203 -1.7179 1.8845, 1.9416 -1.6478 1.8845, 1.9488 -1.5748 1.8845, 1.7143 -1.9116 1.8884, 1.7773 -1.8779 1.8884, 1.8326 -1.8326 1.8884, 1.8779 -1.7773 1.8884, 1.9116 -1.7143 1.8884, 1.9323 -1.6459 1.8884, 1.9393 -1.5748 1.8884, 1.6439 -1.9223 1.8898, 1.7104 -1.9022 1.8898, 1.7717 -1.8694 1.8898, 1.8254 -1.8254 1.8898, 1.8694 -1.7717 1.8898, 1.9022 -1.7104 1.8898, 1.9223 -1.6439 1.8898, 1.9291 -1.5748 1.8898, 1.9291 1.5748 1.8898, 1.9393 1.5748 1.8884, 1.9323 1.6459 1.8884, 1.9488 1.5748 1.8845, 1.9416 1.6478 1.8845, 1.957 1.5748 1.8782, 1.9496 1.6494 1.8782, 1.9632 1.5748 1.8701, 1.9558 1.6506 1.8701, 1.9672 1.5748 1.8606, 1.9596 1.6513 1.8606, 1.9685 1.5748 1.8504, 1.9609 1.6516 1.8504, 1.9577 1.6621 1.8504, 1.9373 1.725 1.8606, 1.9385 1.7255 1.8504, 1.9282 1.7449 1.8504, 1.901 1.7928 1.8606, 1.9022 1.7935 1.8504, 1.8812 1.8191 1.8504, 1.8522 1.8522 1.8606, 1.8532 1.8532 1.8504, 1.8191 1.8812 1.8504, 1.7928 1.901 1.8606, 1.7935 1.9022 1.8504, 1.725 1.9373 1.8606, 1.7449 1.9282 1.8504, 1.7255 1.9385 1.8504, 1.6513 1.9596 1.8606, 1.6621 1.9577 1.8504, 1.6516 1.9609 1.8504, 1.9337 1.7234 1.8701, 1.8978 1.7906 1.8701, 1.8495 1.8495 1.8701, 1.7906 1.8978 1.8701, 1.7234 1.9337 1.8701, 1.6506 1.9558 1.8701, 1.9279 1.7211 1.8782, 1.8926 1.7871 1.8782, 1.845 1.845 1.8782, 1.7871 1.8926 1.8782, 1.7211 1.9279 1.8782, 1.6494 1.9496 1.8782, 1.9203 1.7179 1.8845, 1.8858 1.7826 1.8845, 1.8393 1.8393 1.8845, 1.7826 1.8858 1.8845, 1.7179 1.9203 1.8845, 1.6478 1.9416 1.8845, 1.9116 1.7143 1.8884, 1.8779 1.7773 1.8884, 1.8326 1.8326 1.8884, 1.7773 1.8779 1.8884, 1.7143 1.9116 1.8884, 1.6459 1.9323 1.8884, 1.9223 1.6439 1.8898, 1.9022 1.7104 1.8898, 1.8694 1.7717 1.8898, 1.8254 1.8254 1.8898, 1.7717 1.8694 1.8898, 1.7104 1.9022 1.8898, 1.6439 1.9223 1.8898
            ]
        }
        coordIndex [
            0,1,2,-1,2,1,3,-1,2,3,4,-1,4,3,5,-1,4,5,6,-1,6,5,7,-1,8,9,10,-1,10,9,11,-1,10,11,12,-1,13,14,10,-1,10,14,15,-1,10,15,16,-1,12,17,10,-1,10,17,18,-1,10,18,19,-1,19,20,10,-1,10,20,21,-1,10,21,13,-1,22,23,15,-1,15,23,24,-1,15,24,16,-1,25,26,27,-1,25,27,28,-1,28,27,29,-1,28,29,30,-1,30,29,31,-1,30,31,32,-1,32,31,33,-1,32,33,34,-1,34,33,35,-1,34,35,36,-1,36,35,37,-1,36,37,38,-1,37,35,39,-1,35,33,40,-1,33,31,41,-1,31,29,42,-1,29,27,43,-1,27,26,44,-1,27,44,43,-1,43,44,45,-1,43,45,46,-1,45,47,46,-1,46,47,48,-1,46,48,49,-1,48,50,49,-1,49,50,51,-1,49,51,52,-1,51,53,52,-1,52,53,54,-1,52,54,55,-1,55,54,56,-1,55,56,57,-1,56,58,57,-1,57,58,59,-1,57,59,60,-1,60,59,61,-1,61,62,60,-1,60,62,63,-1,60,63,64,-1,29,43,42,-1,42,43,46,-1,42,46,65,-1,65,46,49,-1,65,49,66,-1,66,49,52,-1,66,52,67,-1,67,52,55,-1,67,55,68,-1,68,55,57,-1,68,57,69,-1,69,57,60,-1,69,60,70,-1,70,60,64,-1,70,64,71,-1,31,42,41,-1,41,42,65,-1,41,65,72,-1,72,65,66,-1,72,66,73,-1,73,66,67,-1,73,67,74,-1,74,67,68,-1,74,68,75,-1,75,68,69,-1,75,69,76,-1,76,69,70,-1,76,70,77,-1,77,70,71,-1,77,71,78,-1,33,41,40,-1,40,41,72,-1,40,72,79,-1,79,72,73,-1,79,73,80,-1,80,73,74,-1,80,74,81,-1,81,74,75,-1,81,75,82,-1,82,75,76,-1,82,76,83,-1,83,76,77,-1,83,77,84,-1,84,77,78,-1,84,78,85,-1,35,40,39,-1,39,40,79,-1,39,79,86,-1,86,79,80,-1,86,80,87,-1,87,80,81,-1,87,81,88,-1,88,81,82,-1,88,82,89,-1,89,82,83,-1,89,83,90,-1,90,83,84,-1,90,84,91,-1,91,84,85,-1,91,85,92,-1,37,39,93,-1,93,39,86,-1,93,86,94,-1,94,86,87,-1,94,87,95,-1,95,87,88,-1,95,88,96,-1,96,88,89,-1,96,89,97,-1,97,89,90,-1,97,90,98,-1,98,90,91,-1,98,91,99,-1,99,91,92,-1,99,92,100,-1,101,102,103,-1,102,104,105,-1,104,106,107,-1,106,108,109,-1,108,110,111,-1,110,112,113,-1,110,113,111,-1,111,113,114,-1,111,114,115,-1,114,116,115,-1,115,116,117,-1,115,117,118,-1,117,119,118,-1,118,119,120,-1,118,120,121,-1,120,122,121,-1,121,122,123,-1,121,123,124,-1,124,123,125,-1,124,125,126,-1,125,127,126,-1,126,127,128,-1,126,128,129,-1,129,128,130,-1,130,131,129,-1,129,131,25,-1,129,25,28,-1,108,111,109,-1,109,111,115,-1,109,115,132,-1,132,115,118,-1,132,118,133,-1,133,118,121,-1,133,121,134,-1,134,121,124,-1,134,124,135,-1,135,124,126,-1,135,126,136,-1,136,126,129,-1,136,129,137,-1,137,129,28,-1,137,28,30,-1,106,109,107,-1,107,109,132,-1,107,132,138,-1,138,132,133,-1,138,133,139,-1,139,133,134,-1,139,134,140,-1,140,134,135,-1,140,135,141,-1,141,135,136,-1,141,136,142,-1,142,136,137,-1,142,137,143,-1,143,137,30,-1,143,30,32,-1,104,107,105,-1,105,107,138,-1,105,138,144,-1,144,138,139,-1,144,139,145,-1,145,139,140,-1,145,140,146,-1,146,140,141,-1,146,141,147,-1,147,141,142,-1,147,142,148,-1,148,142,143,-1,148,143,149,-1,149,143,32,-1,149,32,34,-1,102,105,103,-1,103,105,144,-1,103,144,150,-1,150,144,145,-1,150,145,151,-1,151,145,146,-1,151,146,152,-1,152,146,147,-1,152,147,153,-1,153,147,148,-1,153,148,154,-1,154,148,149,-1,154,149,155,-1,155,149,34,-1,155,34,36,-1,101,103,156,-1,156,103,150,-1,156,150,157,-1,157,150,151,-1,157,151,158,-1,158,151,152,-1,158,152,159,-1,159,152,153,-1,159,153,160,-1,160,153,154,-1,160,154,161,-1,161,154,155,-1,161,155,162,-1,162,155,36,-1,162,36,38,-1,63,163,164,-1,63,164,64,-1,64,164,165,-1,64,165,71,-1,71,165,166,-1,71,166,78,-1,78,166,167,-1,78,167,85,-1,85,167,168,-1,85,168,92,-1,92,168,169,-1,92,169,100,-1,170,112,110,-1,170,110,171,-1,171,110,108,-1,171,108,172,-1,172,108,106,-1,172,106,173,-1,173,106,104,-1,173,104,174,-1,174,104,102,-1,174,102,175,-1,175,102,101,-1,175,101,176,-1,169,168,177,-1,168,167,178,-1,167,166,179,-1,166,165,180,-1,165,164,181,-1,164,163,182,-1,164,182,181,-1,181,182,183,-1,181,183,184,-1,183,185,184,-1,184,185,186,-1,184,186,187,-1,186,188,187,-1,187,188,189,-1,187,189,190,-1,189,191,190,-1,190,191,192,-1,190,192,193,-1,193,192,194,-1,193,194,195,-1,194,196,195,-1,195,196,197,-1,195,197,198,-1,198,197,199,-1,199,200,198,-1,198,200,201,-1,198,201,202,-1,165,181,180,-1,180,181,184,-1,180,184,203,-1,203,184,187,-1,203,187,204,-1,204,187,190,-1,204,190,205,-1,205,190,193,-1,205,193,206,-1,206,193,195,-1,206,195,207,-1,207,195,198,-1,207,198,208,-1,208,198,202,-1,208,202,209,-1,166,180,179,-1,179,180,203,-1,179,203,210,-1,210,203,204,-1,210,204,211,-1,211,204,205,-1,211,205,212,-1,212,205,206,-1,212,206,213,-1,213,206,207,-1,213,207,214,-1,214,207,208,-1,214,208,215,-1,215,208,209,-1,215,209,216,-1,167,179,178,-1,178,179,210,-1,178,210,217,-1,217,210,211,-1,217,211,218,-1,218,211,212,-1,218,212,219,-1,219,212,213,-1,219,213,220,-1,220,213,214,-1,220,214,221,-1,221,214,215,-1,221,215,222,-1,222,215,216,-1,222,216,223,-1,168,178,177,-1,177,178,217,-1,177,217,224,-1,224,217,218,-1,224,218,225,-1,225,218,219,-1,225,219,226,-1,226,219,220,-1,226,220,227,-1,227,220,221,-1,227,221,228,-1,228,221,222,-1,228,222,229,-1,229,222,223,-1,229,223,230,-1,169,177,231,-1,231,177,224,-1,231,224,232,-1,232,224,225,-1,232,225,233,-1,233,225,226,-1,233,226,234,-1,234,226,227,-1,234,227,235,-1,235,227,228,-1,235,228,236,-1,236,228,229,-1,236,229,237,-1,237,229,230,-1,237,230,238,-1,239,240,241,-1,240,242,243,-1,242,244,245,-1,244,246,247,-1,246,248,249,-1,248,250,251,-1,248,251,249,-1,249,251,252,-1,249,252,253,-1,252,254,253,-1,253,254,255,-1,253,255,256,-1,255,257,256,-1,256,257,258,-1,256,258,259,-1,258,260,259,-1,259,260,261,-1,259,261,262,-1,262,261,263,-1,262,263,264,-1,263,265,264,-1,264,265,266,-1,264,266,267,-1,267,266,268,-1,268,269,267,-1,267,269,170,-1,267,170,171,-1,246,249,247,-1,247,249,253,-1,247,253,270,-1,270,253,256,-1,270,256,271,-1,271,256,259,-1,271,259,272,-1,272,259,262,-1,272,262,273,-1,273,262,264,-1,273,264,274,-1,274,264,267,-1,274,267,275,-1,275,267,171,-1,275,171,172,-1,244,247,245,-1,245,247,270,-1,245,270,276,-1,276,270,271,-1,276,271,277,-1,277,271,272,-1,277,272,278,-1,278,272,273,-1,278,273,279,-1,279,273,274,-1,279,274,280,-1,280,274,275,-1,280,275,281,-1,281,275,172,-1,281,172,173,-1,242,245,243,-1,243,245,276,-1,243,276,282,-1,282,276,277,-1,282,277,283,-1,283,277,278,-1,283,278,284,-1,284,278,279,-1,284,279,285,-1,285,279,280,-1,285,280,286,-1,286,280,281,-1,286,281,287,-1,287,281,173,-1,287,173,174,-1,240,243,241,-1,241,243,282,-1,241,282,288,-1,288,282,283,-1,288,283,289,-1,289,283,284,-1,289,284,290,-1,290,284,285,-1,290,285,291,-1,291,285,286,-1,291,286,292,-1,292,286,287,-1,292,287,293,-1,293,287,174,-1,293,174,175,-1,239,241,294,-1,294,241,288,-1,294,288,295,-1,295,288,289,-1,295,289,296,-1,296,289,290,-1,296,290,297,-1,297,290,291,-1,297,291,298,-1,298,291,292,-1,298,292,299,-1,299,292,293,-1,299,293,300,-1,300,293,175,-1,300,175,176,-1,201,250,248,-1,201,248,202,-1,202,248,246,-1,202,246,209,-1,209,246,244,-1,209,244,216,-1,216,244,242,-1,216,242,223,-1,223,242,240,-1,223,240,230,-1,230,240,239,-1,230,239,238,-1,
        ]
    }
}