#VRML V2.0 utf8
# 3D model generated by easyeda2kicad.py (https://github.com/uPesy/easyeda2kicad.py)

Shape{
    appearance Appearance {
        material  Material 	{
            diffuseColor 0.20784313725490197 0.20784313725490197 0.20784313725490197
            specularColor 0.01568627450980392 0.01568627450980392 0.01568627450980392
            ambientIntensity 0.298
            transparency 0.0
            shininess 0.5
        }
    }
    geometry IndexedFaceSet {
        ccw TRUE
        solid FALSE
        coord DEF co Coordinate {
            point [
                0.0214 0.0129 0.0394, 0.0262 0.0135 0.0394, 0.0282 0.013 0.0394, 0.0215 0.0175 0.0394, 0.017 0.0163 0.0394, 0.0131 0.4031 0.0394, 0.017 0.011 0.0394, 0.0131 -0.0223 0.0394, 0.017 -0.0157 0.0394, 0.017 -0.02 0.0394, 0.0219 -0.0176 0.0394, 0.0271 -0.0182 0.0394, 0.0698 -0.022 0.0394, 0.0287 -0.0223 0.0394, 0.0496 -0.022 0.0394, 0.0309 -0.0217 0.0394, 0.0384 -0.019 0.0394, 0.037 0.0088 0.0394, 0.0384 0.0072 0.0394, 0.0315 -0.0172 0.0394, 0.0394 0.0051 0.0394, 0.0403 0.0021 0.0394, 0.041 -0.0028 0.0394, 0.0401 -0.0075 0.0394, 0.0343 -0.0161 0.0394, 0.043 0.0082 0.0394, 0.041 0.0115 0.0394, 0.0391 0.0135 0.0394, 0.0364 0.0151 0.0394, 0.0346 0.0105 0.0394, 0.0387 -0.0117 0.0394, 0.0373 -0.0138 0.0394, 0.0361 -0.015 0.0394, 0.0412 -0.017 0.0394, 0.0429 -0.0151 0.0394, 0.0496 -0.0177 0.0394, 0.0442 -0.0126 0.0394, 0.0453 -0.0089 0.0394, 0.0463 -0.0031 0.0394, 0.0458 -0.0008 0.0394, 0.0325 0.0165 0.0394, 0.0262 0.0178 0.0394, 0.0222 -0.0219 0.0394, 0.0254 -0.0223 0.0394, 0.0131 -0.403 0.0394, 0.0278 -0.0225 0.0394, 0.0645 -0.0177 0.0394, 0.0645 0.0174 0.0394, 0.0698 0.0174 0.0394, 0.2258 0.4031 0.0394, 0.2258 -0.0223 0.0394, 0.2258 -0.403 0.0394, -0.0109 0.013 0.0394, 0.004 0.013 0.0394, 0.004 0.0001 0.0394, 0.0093 -0.022 0.0394, 0.0093 0.0174 0.0394, -0.0195 0.0174 0.0394, -0.0099 0.0001 0.0394, -0.0195 -0.022 0.0394, -0.0099 -0.0043 0.0394, -0.0541 -0.022 0.0394, -0.0475 -0.013 0.0394, -0.0454 -0.0163 0.0394, -0.069 0.0174 0.0394, -0.0742 0.0174 0.0394, -0.2259 0.4031 0.0394, 0.004 -0.0043 0.0394, 0.004 -0.0177 0.0394, -0.0118 -0.0177 0.0394, -0.0118 -0.022 0.0394, -0.0109 0.0174 0.0394, -0.2259 -0.0223 0.0394, -0.0418 0.0143 0.0394, -0.045 0.0124 0.0394, -0.0469 0.0105 0.0394, -0.0485 0.008 0.0394, -0.0306 0.0174 0.0394, -0.0333 0.0168 0.0394, -0.0433 -0.0182 0.0394, -0.0406 -0.0197 0.0394, -0.0366 -0.0209 0.0394, -0.0896 -0.022 0.0394, -0.0838 -0.022 0.0394, -0.0498 0.0042 0.0394, -0.0512 -0.0018 0.0394, -0.0506 -0.0042 0.0394, -0.0302 -0.022 0.0394, -0.0799 -0.011 0.0394, -0.0636 -0.011 0.0394, -0.0598 -0.022 0.0394, -0.2259 -0.403 0.0394, -0.2456 -0.403 0.058, -0.256 -0.4134 0.2559, -0.256 -0.3051 0.2559, -0.256 -0.2067 0.2559, -0.256 -0.0492 0.2559, -0.2535 -0.2067 0.2087, -0.2535 -0.0492 0.2087, -0.2535 -0.3051 0.2087, -0.2456 0.4031 0.058, -0.2535 0.0492 0.2087, -0.256 0.3051 0.2559, -0.256 0.4134 0.2559, -0.2535 0.3051 0.2087, -0.2535 0.2067 0.2087, -0.256 0.2067 0.2559, -0.256 0.0492 0.2559, -0.2392 0.3967 0.4154, -0.256 0.4135 0.2559, -0.2392 -0.3967 0.4154, -0.256 -0.4135 0.2559, 0.2195 -0.4163 0.4154, -0.2196 -0.4163 0.4154, -0.2364 -0.4331 0.2559, -0.2363 -0.4331 0.2559, 0.2362 -0.4331 0.2559, 0.2363 -0.4331 0.2559, 0.2391 -0.3967 0.4154, 0.2559 -0.4135 0.2559, 0.2559 -0.4134 0.2559, 0.2391 0.3967 0.4154, 0.2559 -0.3051 0.2559, 0.2559 -0.2067 0.2559, 0.2559 -0.0492 0.2559, 0.2559 0.0492 0.2559, 0.2559 0.2067 0.2559, 0.2559 0.3051 0.2559, 0.2559 0.4134 0.2559, 0.2559 0.4135 0.2559, -0.2196 0.4163 0.4154, 0.2195 0.4163 0.4154, 0.2363 0.4331 0.2559, 0.2362 0.4331 0.2559, -0.2363 0.4331 0.2559, -0.2364 0.4331 0.2559, 0.1889 -0.2264 0.4331, 0.1948 -0.2406 0.4331, 0.2195 0.3967 0.4331, 0.1968 -0.2559 0.4331, 0.2195 -0.3967 0.4331, 0.1948 -0.2712 0.4331, 0.1889 -0.2854 0.4331, 0.1795 -0.2976 0.4331, 0.1673 -0.307 0.4331, 0.096 -0.2141 0.4331, 0.1082 -0.2047 0.4331, -0.2196 0.3967 0.4331, 0.1225 -0.1988 0.4331, 0.1377 -0.1968 0.4331, 0.153 -0.1988 0.4331, 0.1082 -0.307 0.4331, 0.096 -0.2976 0.4331, -0.2196 -0.3967 0.4331, 0.0866 -0.2854 0.4331, 0.0807 -0.2712 0.4331, 0.1673 -0.2047 0.4331, 0.1795 -0.2141 0.4331, 0.153 -0.3129 0.4331, 0.1377 -0.3149 0.4331, 0.1225 -0.3129 0.4331, 0.0787 -0.2559 0.4331, 0.0807 -0.2406 0.4331, 0.0866 -0.2264 0.4331, 0.2258 -0.4227 0.058, -0.2259 -0.4227 0.058, 0.2258 0.4227 0.058, -0.2259 0.4227 0.058, 0.2455 0.4031 0.058, 0.2534 0.2067 0.2087, 0.2534 0.0492 0.2087, 0.2534 0.3051 0.2087, 0.2455 -0.403 0.058, 0.2534 -0.0492 0.2087, 0.2534 -0.3051 0.2087, 0.2534 -0.2067 0.2087
            ]
        }
        coordIndex [
            0,1,2,-1,3,4,5,-1,4,6,7,-1,7,6,8,-1,7,8,9,-1,6,0,8,-1,8,0,2,-1,8,2,10,-1,10,2,11,-1,12,13,14,-1,14,13,15,-1,14,15,16,-1,17,18,19,-1,19,18,20,-1,19,20,21,-1,21,22,19,-1,19,22,23,-1,19,23,24,-1,25,26,5,-1,5,26,27,-1,5,27,28,-1,11,2,19,-1,19,2,29,-1,19,29,17,-1,30,31,23,-1,23,31,32,-1,23,32,24,-1,16,33,14,-1,14,33,34,-1,14,34,35,-1,35,34,36,-1,36,37,35,-1,35,37,38,-1,35,38,5,-1,5,38,39,-1,5,39,25,-1,28,40,5,-1,5,40,41,-1,5,41,3,-1,9,42,7,-1,7,42,43,-1,7,43,44,-1,44,43,45,-1,44,45,13,-1,46,35,47,-1,47,35,5,-1,47,5,48,-1,48,5,49,-1,48,49,12,-1,12,49,50,-1,12,50,13,-1,13,50,51,-1,13,51,44,-1,52,53,54,-1,7,55,56,-1,57,58,59,-1,59,58,60,-1,61,62,63,-1,64,65,66,-1,67,68,60,-1,60,68,69,-1,60,69,59,-1,59,69,70,-1,4,7,5,-1,5,7,56,-1,5,56,66,-1,66,56,71,-1,66,71,52,-1,66,65,72,-1,73,74,64,-1,64,74,75,-1,64,75,76,-1,54,58,52,-1,52,58,57,-1,52,57,66,-1,66,57,77,-1,66,77,64,-1,64,77,78,-1,64,78,73,-1,63,79,61,-1,61,79,80,-1,61,80,81,-1,82,83,7,-1,76,84,64,-1,64,84,85,-1,64,85,61,-1,61,85,86,-1,61,86,62,-1,87,59,7,-1,7,59,70,-1,7,70,55,-1,88,89,83,-1,83,89,90,-1,83,90,7,-1,7,90,61,-1,7,61,87,-1,87,61,81,-1,65,82,72,-1,72,82,7,-1,72,7,91,-1,91,7,44,-1,92,93,94,-1,95,96,97,-1,97,96,98,-1,94,99,92,-1,92,99,97,-1,92,97,100,-1,100,97,98,-1,100,98,101,-1,102,103,104,-1,104,103,100,-1,104,100,105,-1,105,100,101,-1,105,101,106,-1,106,101,107,-1,108,109,103,-1,108,103,110,-1,110,103,102,-1,110,102,106,-1,106,107,110,-1,110,107,96,-1,110,96,95,-1,95,94,110,-1,110,94,93,-1,110,93,111,-1,112,113,114,-1,114,115,112,-1,112,115,116,-1,112,116,117,-1,118,119,120,-1,118,120,121,-1,121,120,122,-1,121,122,123,-1,123,124,121,-1,121,124,125,-1,121,125,126,-1,126,127,121,-1,121,127,128,-1,121,128,129,-1,130,131,132,-1,132,133,130,-1,130,133,134,-1,130,134,135,-1,136,137,138,-1,138,137,139,-1,138,139,140,-1,140,139,141,-1,141,142,140,-1,140,142,143,-1,140,143,144,-1,145,146,147,-1,147,146,148,-1,147,148,138,-1,138,148,149,-1,138,149,150,-1,151,152,153,-1,153,152,154,-1,153,154,155,-1,150,156,138,-1,138,156,157,-1,138,157,136,-1,144,158,140,-1,140,158,159,-1,140,159,153,-1,153,159,160,-1,153,160,151,-1,155,161,153,-1,153,161,162,-1,153,162,147,-1,147,162,163,-1,147,163,145,-1,116,115,164,-1,164,115,165,-1,166,167,133,-1,133,167,134,-1,168,128,127,-1,126,125,169,-1,169,125,170,-1,127,171,168,-1,168,171,169,-1,168,169,172,-1,172,169,170,-1,172,170,173,-1,122,120,174,-1,174,120,172,-1,174,172,175,-1,175,172,173,-1,175,173,123,-1,123,173,124,-1,
        ]
    }
}
Shape{
    appearance Appearance {
        material  Material 	{
            diffuseColor 0.8313725490196079 0.8313725490196079 0.8196078431372549
            specularColor 0.6666666666666666 0.6666666666666666 0.6549019607843137
            ambientIntensity 0.83
            transparency 0.0
            shininess 0.5
        }
    }
    geometry IndexedFaceSet {
        ccw TRUE
        solid FALSE
        coord DEF co Coordinate {
            point [
                0.2952 0.3051 0.2559, 0.2559 0.3051 0.2559, 0.2952 0.2067 0.2559, 0.2559 0.2067 0.2559, 0.3043 0.2067 0.2549, 0.3043 0.3051 0.2549, 0.3128 0.2067 0.2518, 0.3128 0.3051 0.2518, 0.3204 0.2067 0.2468, 0.3204 0.3051 0.2468, 0.3267 0.2067 0.2402, 0.3267 0.3051 0.2402, 0.3313 0.2067 0.2323, 0.3313 0.3051 0.2323, 0.334 0.2067 0.2236, 0.334 0.3051 0.2236, 0.3632 0.3051 0.0634, 0.3632 0.2067 0.0634, 0.3645 0.3051 0.059, 0.3645 0.2067 0.059, 0.3668 0.3051 0.0551, 0.3668 0.2067 0.0551, 0.3699 0.3051 0.0518, 0.3699 0.2067 0.0518, 0.3737 0.3051 0.0493, 0.3737 0.2067 0.0493, 0.378 0.3051 0.0478, 0.378 0.2067 0.0478, 0.3825 0.3051 0.0472, 0.3825 0.2067 0.0472, 0.4625 0.3051 0.0472, 0.4625 0.2067 0.0472, 0.4625 0.3051 0.0, 0.4625 0.2067 0.0, 0.3595 0.3051 0.0, 0.3595 0.2067 0.0, 0.3505 0.2067 0.0011, 0.3505 0.3051 0.0011, 0.3419 0.2067 0.0042, 0.3419 0.3051 0.0042, 0.3343 0.2067 0.0091, 0.3343 0.3051 0.0091, 0.3281 0.2067 0.0157, 0.3281 0.3051 0.0157, 0.3235 0.2067 0.0236, 0.3235 0.3051 0.0236, 0.3208 0.2067 0.0323, 0.3208 0.3051 0.0323, 0.2916 0.3051 0.1925, 0.2916 0.2067 0.1925, 0.2903 0.3051 0.1969, 0.2903 0.2067 0.1969, 0.288 0.3051 0.2008, 0.288 0.2067 0.2008, 0.2848 0.3051 0.2041, 0.2848 0.2067 0.2041, 0.281 0.3051 0.2066, 0.281 0.2067 0.2066, 0.2768 0.3051 0.2081, 0.2768 0.2067 0.2081, 0.2722 0.3051 0.2087, 0.2722 0.2067 0.2087, 0.2534 0.3051 0.2087, 0.2534 0.2067 0.2087, -0.2723 0.3051 0.2087, -0.2535 0.3051 0.2087, -0.2723 0.2067 0.2087, -0.2535 0.2067 0.2087, -0.2769 0.3051 0.2081, -0.2769 0.2067 0.2081, -0.2811 0.3051 0.2066, -0.2811 0.2067 0.2066, -0.2849 0.3051 0.2041, -0.2849 0.2067 0.2041, -0.2881 0.3051 0.2008, -0.2881 0.2067 0.2008, -0.2904 0.3051 0.1969, -0.2904 0.2067 0.1969, -0.2917 0.3051 0.1925, -0.2917 0.2067 0.1925, -0.3209 0.3051 0.0323, -0.3209 0.2067 0.0323, -0.3236 0.2067 0.0236, -0.3236 0.3051 0.0236, -0.3282 0.2067 0.0157, -0.3282 0.3051 0.0157, -0.3344 0.2067 0.0091, -0.3344 0.3051 0.0091, -0.342 0.2067 0.0042, -0.342 0.3051 0.0042, -0.3506 0.2067 0.0011, -0.3506 0.3051 0.0011, -0.3596 0.2067 0.0, -0.3596 0.3051 0.0, -0.4626 0.3051 0.0, -0.4626 0.2067 0.0, -0.4626 0.3051 0.0472, -0.4626 0.2067 0.0472, -0.3826 0.3051 0.0472, -0.3826 0.2067 0.0472, -0.3781 0.3051 0.0478, -0.3781 0.2067 0.0478, -0.3738 0.3051 0.0493, -0.3738 0.2067 0.0493, -0.37 0.3051 0.0518, -0.37 0.2067 0.0518, -0.3669 0.3051 0.0551, -0.3669 0.2067 0.0551, -0.3646 0.3051 0.059, -0.3646 0.2067 0.059, -0.3633 0.3051 0.0634, -0.3633 0.2067 0.0634, -0.3341 0.3051 0.2236, -0.3341 0.2067 0.2236, -0.3314 0.2067 0.2323, -0.3314 0.3051 0.2323, -0.3268 0.2067 0.2402, -0.3268 0.3051 0.2402, -0.3205 0.2067 0.2468, -0.3205 0.3051 0.2468, -0.3129 0.2067 0.2518, -0.3129 0.3051 0.2518, -0.3044 0.2067 0.2549, -0.3044 0.3051 0.2549, -0.2953 0.2067 0.2559, -0.2953 0.3051 0.2559, -0.256 0.3051 0.2559, -0.256 0.2067 0.2559, 0.2952 0.0492 0.2559, 0.2559 0.0492 0.2559, 0.2952 -0.0492 0.2559, 0.2559 -0.0492 0.2559, 0.3043 -0.0492 0.2549, 0.3043 0.0492 0.2549, 0.3128 -0.0492 0.2518, 0.3128 0.0492 0.2518, 0.3204 -0.0492 0.2468, 0.3204 0.0492 0.2468, 0.3267 -0.0492 0.2402, 0.3267 0.0492 0.2402, 0.3313 -0.0492 0.2323, 0.3313 0.0492 0.2323, 0.334 -0.0492 0.2236, 0.334 0.0492 0.2236, 0.3632 0.0492 0.0634, 0.3632 -0.0492 0.0634, 0.3645 0.0492 0.059, 0.3645 -0.0492 0.059, 0.3668 0.0492 0.0551, 0.3668 -0.0492 0.0551, 0.3699 0.0492 0.0518, 0.3699 -0.0492 0.0518, 0.3737 0.0492 0.0493, 0.3737 -0.0492 0.0493, 0.378 0.0492 0.0478, 0.378 -0.0492 0.0478, 0.3825 0.0492 0.0472, 0.3825 -0.0492 0.0472, 0.4625 0.0492 0.0472, 0.4625 -0.0492 0.0472, 0.4625 0.0492 0.0, 0.4625 -0.0492 0.0, 0.3595 0.0492 0.0, 0.3595 -0.0492 0.0, 0.3505 -0.0492 0.0011, 0.3505 0.0492 0.0011, 0.3419 -0.0492 0.0042, 0.3419 0.0492 0.0042, 0.3343 -0.0492 0.0091, 0.3343 0.0492 0.0091, 0.3281 -0.0492 0.0157, 0.3281 0.0492 0.0157, 0.3235 -0.0492 0.0236, 0.3235 0.0492 0.0236, 0.3208 -0.0492 0.0323, 0.3208 0.0492 0.0323, 0.2916 0.0492 0.1925, 0.2916 -0.0492 0.1925, 0.2903 0.0492 0.1969, 0.2903 -0.0492 0.1969, 0.288 0.0492 0.2008, 0.288 -0.0492 0.2008, 0.2848 0.0492 0.2041, 0.2848 -0.0492 0.2041, 0.281 0.0492 0.2066, 0.281 -0.0492 0.2066, 0.2768 0.0492 0.2081, 0.2768 -0.0492 0.2081, 0.2722 0.0492 0.2087, 0.2722 -0.0492 0.2087, 0.2534 0.0492 0.2087, 0.2534 -0.0492 0.2087, -0.2723 0.0492 0.2087, -0.2535 0.0492 0.2087, -0.2723 -0.0492 0.2087, -0.2535 -0.0492 0.2087, -0.2769 0.0492 0.2081, -0.2769 -0.0492 0.2081, -0.2811 0.0492 0.2066, -0.2811 -0.0492 0.2066, -0.2849 0.0492 0.2041, -0.2849 -0.0492 0.2041, -0.2881 0.0492 0.2008, -0.2881 -0.0492 0.2008, -0.2904 0.0492 0.1969, -0.2904 -0.0492 0.1969, -0.2917 0.0492 0.1925, -0.2917 -0.0492 0.1925, -0.3209 0.0492 0.0323, -0.3209 -0.0492 0.0323, -0.3236 -0.0492 0.0236, -0.3236 0.0492 0.0236, -0.3282 -0.0492 0.0157, -0.3282 0.0492 0.0157, -0.3344 -0.0492 0.0091, -0.3344 0.0492 0.0091, -0.342 -0.0492 0.0042, -0.342 0.0492 0.0042, -0.3506 -0.0492 0.0011, -0.3506 0.0492 0.0011, -0.3596 -0.0492 0.0, -0.3596 0.0492 0.0, -0.4626 0.0492 0.0, -0.4626 -0.0492 0.0, -0.4626 0.0492 0.0472, -0.4626 -0.0492 0.0472, -0.3826 0.0492 0.0472, -0.3826 -0.0492 0.0472, -0.3781 0.0492 0.0478, -0.3781 -0.0492 0.0478, -0.3738 0.0492 0.0493, -0.3738 -0.0492 0.0493, -0.37 0.0492 0.0518, -0.37 -0.0492 0.0518, -0.3669 0.0492 0.0551, -0.3669 -0.0492 0.0551, -0.3646 0.0492 0.059, -0.3646 -0.0492 0.059, -0.3633 0.0492 0.0634, -0.3633 -0.0492 0.0634, -0.3341 0.0492 0.2236, -0.3341 -0.0492 0.2236, -0.3314 -0.0492 0.2323, -0.3314 0.0492 0.2323, -0.3268 -0.0492 0.2402, -0.3268 0.0492 0.2402, -0.3205 -0.0492 0.2468, -0.3205 0.0492 0.2468, -0.3129 -0.0492 0.2518, -0.3129 0.0492 0.2518, -0.3044 -0.0492 0.2549, -0.3044 0.0492 0.2549, -0.2953 -0.0492 0.2559, -0.2953 0.0492 0.2559, -0.256 0.0492 0.2559, -0.256 -0.0492 0.2559, 0.2952 -0.2067 0.2559, 0.2559 -0.2067 0.2559, 0.2952 -0.3051 0.2559, 0.2559 -0.3051 0.2559, 0.3043 -0.3051 0.2549, 0.3043 -0.2067 0.2549, 0.3128 -0.3051 0.2518, 0.3128 -0.2067 0.2518, 0.3204 -0.3051 0.2468, 0.3204 -0.2067 0.2468, 0.3267 -0.3051 0.2402, 0.3267 -0.2067 0.2402, 0.3313 -0.3051 0.2323, 0.3313 -0.2067 0.2323, 0.334 -0.3051 0.2236, 0.334 -0.2067 0.2236, 0.3632 -0.2067 0.0634, 0.3632 -0.3051 0.0634, 0.3645 -0.2067 0.059, 0.3645 -0.3051 0.059, 0.3668 -0.2067 0.0551, 0.3668 -0.3051 0.0551, 0.3699 -0.2067 0.0518, 0.3699 -0.3051 0.0518, 0.3737 -0.2067 0.0493, 0.3737 -0.3051 0.0493, 0.378 -0.2067 0.0478, 0.378 -0.3051 0.0478, 0.3825 -0.2067 0.0472, 0.3825 -0.3051 0.0472, 0.4625 -0.2067 0.0472, 0.4625 -0.3051 0.0472, 0.4625 -0.2067 0.0, 0.4625 -0.3051 0.0, 0.3595 -0.2067 0.0, 0.3595 -0.3051 0.0, 0.3505 -0.3051 0.0011, 0.3505 -0.2067 0.0011, 0.3419 -0.3051 0.0042, 0.3419 -0.2067 0.0042, 0.3343 -0.3051 0.0091, 0.3343 -0.2067 0.0091, 0.3281 -0.3051 0.0157, 0.3281 -0.2067 0.0157, 0.3235 -0.3051 0.0236, 0.3235 -0.2067 0.0236, 0.3208 -0.3051 0.0323, 0.3208 -0.2067 0.0323, 0.2916 -0.2067 0.1925, 0.2916 -0.3051 0.1925, 0.2903 -0.2067 0.1969, 0.2903 -0.3051 0.1969, 0.288 -0.2067 0.2008, 0.288 -0.3051 0.2008, 0.2848 -0.2067 0.2041, 0.2848 -0.3051 0.2041, 0.281 -0.2067 0.2066, 0.281 -0.3051 0.2066, 0.2768 -0.2067 0.2081, 0.2768 -0.3051 0.2081, 0.2722 -0.2067 0.2087, 0.2722 -0.3051 0.2087, 0.2534 -0.2067 0.2087, 0.2534 -0.3051 0.2087, -0.2723 -0.2067 0.2087, -0.2535 -0.2067 0.2087, -0.2723 -0.3051 0.2087, -0.2535 -0.3051 0.2087, -0.2769 -0.2067 0.2081, -0.2769 -0.3051 0.2081, -0.2811 -0.2067 0.2066, -0.2811 -0.3051 0.2066, -0.2849 -0.2067 0.2041, -0.2849 -0.3051 0.2041, -0.2881 -0.2067 0.2008, -0.2881 -0.3051 0.2008, -0.2904 -0.2067 0.1969, -0.2904 -0.3051 0.1969, -0.2917 -0.2067 0.1925, -0.2917 -0.3051 0.1925, -0.3209 -0.2067 0.0323, -0.3209 -0.3051 0.0323, -0.3236 -0.3051 0.0236, -0.3236 -0.2067 0.0236, -0.3282 -0.3051 0.0157, -0.3282 -0.2067 0.0157, -0.3344 -0.3051 0.0091, -0.3344 -0.2067 0.0091, -0.342 -0.3051 0.0042, -0.342 -0.2067 0.0042, -0.3506 -0.3051 0.0011, -0.3506 -0.2067 0.0011, -0.3596 -0.3051 0.0, -0.3596 -0.2067 0.0, -0.4626 -0.2067 0.0, -0.4626 -0.3051 0.0, -0.4626 -0.2067 0.0472, -0.4626 -0.3051 0.0472, -0.3826 -0.2067 0.0472, -0.3826 -0.3051 0.0472, -0.3781 -0.2067 0.0478, -0.3781 -0.3051 0.0478, -0.3738 -0.2067 0.0493, -0.3738 -0.3051 0.0493, -0.37 -0.2067 0.0518, -0.37 -0.3051 0.0518, -0.3669 -0.2067 0.0551, -0.3669 -0.3051 0.0551, -0.3646 -0.2067 0.059, -0.3646 -0.3051 0.059, -0.3633 -0.2067 0.0634, -0.3633 -0.3051 0.0634, -0.3341 -0.2067 0.2236, -0.3341 -0.3051 0.2236, -0.3314 -0.3051 0.2323, -0.3314 -0.2067 0.2323, -0.3268 -0.3051 0.2402, -0.3268 -0.2067 0.2402, -0.3205 -0.3051 0.2468, -0.3205 -0.2067 0.2468, -0.3129 -0.3051 0.2518, -0.3129 -0.2067 0.2518, -0.3044 -0.3051 0.2549, -0.3044 -0.2067 0.2549, -0.2953 -0.3051 0.2559, -0.2953 -0.2067 0.2559, -0.256 -0.2067 0.2559, -0.256 -0.3051 0.2559
            ]
        }
        coordIndex [
            0,1,2,-1,2,1,3,-1,0,2,4,-1,0,4,5,-1,5,4,6,-1,5,6,7,-1,7,6,8,-1,7,8,9,-1,9,8,10,-1,9,10,11,-1,11,10,12,-1,11,12,13,-1,13,12,14,-1,13,14,15,-1,16,15,17,-1,17,15,14,-1,16,17,18,-1,18,17,19,-1,18,19,20,-1,20,19,21,-1,20,21,22,-1,22,21,23,-1,22,23,24,-1,24,23,25,-1,24,25,26,-1,26,25,27,-1,26,27,28,-1,28,27,29,-1,30,28,31,-1,31,28,29,-1,32,30,33,-1,33,30,31,-1,34,32,35,-1,35,32,33,-1,34,35,36,-1,34,36,37,-1,37,36,38,-1,37,38,39,-1,39,38,40,-1,39,40,41,-1,41,40,42,-1,41,42,43,-1,43,42,44,-1,43,44,45,-1,45,44,46,-1,45,46,47,-1,48,47,49,-1,49,47,46,-1,48,49,50,-1,50,49,51,-1,50,51,52,-1,52,51,53,-1,52,53,54,-1,54,53,55,-1,54,55,56,-1,56,55,57,-1,56,57,58,-1,58,57,59,-1,58,59,60,-1,60,59,61,-1,62,60,63,-1,63,60,61,-1,34,37,24,-1,24,37,39,-1,24,39,22,-1,5,7,56,-1,56,7,54,-1,5,56,0,-1,0,56,58,-1,0,58,1,-1,1,58,60,-1,1,60,62,-1,39,41,22,-1,22,41,43,-1,22,43,20,-1,20,43,45,-1,20,45,18,-1,18,45,47,-1,18,47,16,-1,16,47,15,-1,30,32,28,-1,28,32,34,-1,28,34,26,-1,26,34,24,-1,7,9,54,-1,54,9,11,-1,54,11,52,-1,52,11,13,-1,52,13,50,-1,50,13,15,-1,50,15,48,-1,48,15,47,-1,14,12,53,-1,53,12,10,-1,53,10,55,-1,46,44,21,-1,21,44,42,-1,21,42,23,-1,35,33,31,-1,10,8,55,-1,55,8,6,-1,55,6,57,-1,57,6,4,-1,57,4,59,-1,59,4,2,-1,59,2,61,-1,61,2,3,-1,61,3,63,-1,42,40,23,-1,23,40,38,-1,23,38,25,-1,25,38,36,-1,25,36,27,-1,27,36,35,-1,27,35,29,-1,29,35,31,-1,21,19,46,-1,46,19,17,-1,46,17,49,-1,49,17,14,-1,49,14,51,-1,51,14,53,-1,64,65,66,-1,66,65,67,-1,64,66,68,-1,68,66,69,-1,68,69,70,-1,70,69,71,-1,70,71,72,-1,72,71,73,-1,72,73,74,-1,74,73,75,-1,74,75,76,-1,76,75,77,-1,76,77,78,-1,78,77,79,-1,80,78,81,-1,81,78,79,-1,80,81,82,-1,80,82,83,-1,83,82,84,-1,83,84,85,-1,85,84,86,-1,85,86,87,-1,87,86,88,-1,87,88,89,-1,89,88,90,-1,89,90,91,-1,91,90,92,-1,91,92,93,-1,94,93,95,-1,95,93,92,-1,96,94,97,-1,97,94,95,-1,98,96,99,-1,99,96,97,-1,98,99,100,-1,100,99,101,-1,100,101,102,-1,102,101,103,-1,102,103,104,-1,104,103,105,-1,104,105,106,-1,106,105,107,-1,106,107,108,-1,108,107,109,-1,108,109,110,-1,110,109,111,-1,112,110,113,-1,113,110,111,-1,112,113,114,-1,112,114,115,-1,115,114,116,-1,115,116,117,-1,117,116,118,-1,117,118,119,-1,119,118,120,-1,119,120,121,-1,121,120,122,-1,121,122,123,-1,123,122,124,-1,123,124,125,-1,126,125,127,-1,127,125,124,-1,80,83,106,-1,106,83,85,-1,106,85,104,-1,112,115,74,-1,74,115,117,-1,74,117,72,-1,93,94,96,-1,117,119,72,-1,72,119,121,-1,72,121,70,-1,70,121,123,-1,70,123,68,-1,68,123,125,-1,68,125,64,-1,64,125,126,-1,64,126,65,-1,85,87,104,-1,104,87,89,-1,104,89,102,-1,102,89,91,-1,102,91,100,-1,100,91,93,-1,100,93,98,-1,98,93,96,-1,106,108,80,-1,80,108,110,-1,80,110,78,-1,78,110,112,-1,78,112,76,-1,76,112,74,-1,66,67,127,-1,92,90,103,-1,103,90,88,-1,103,88,105,-1,120,73,71,-1,66,127,69,-1,69,127,124,-1,69,124,71,-1,71,124,122,-1,71,122,120,-1,88,86,105,-1,105,86,84,-1,105,84,107,-1,107,84,82,-1,107,82,109,-1,109,82,81,-1,109,81,111,-1,111,81,113,-1,97,95,99,-1,99,95,92,-1,99,92,101,-1,101,92,103,-1,120,118,73,-1,73,118,116,-1,73,116,75,-1,75,116,114,-1,75,114,77,-1,77,114,113,-1,77,113,79,-1,79,113,81,-1,128,129,130,-1,130,129,131,-1,128,130,132,-1,128,132,133,-1,133,132,134,-1,133,134,135,-1,135,134,136,-1,135,136,137,-1,137,136,138,-1,137,138,139,-1,139,138,140,-1,139,140,141,-1,141,140,142,-1,141,142,143,-1,144,143,145,-1,145,143,142,-1,144,145,146,-1,146,145,147,-1,146,147,148,-1,148,147,149,-1,148,149,150,-1,150,149,151,-1,150,151,152,-1,152,151,153,-1,152,153,154,-1,154,153,155,-1,154,155,156,-1,156,155,157,-1,158,156,159,-1,159,156,157,-1,160,158,161,-1,161,158,159,-1,162,160,163,-1,163,160,161,-1,162,163,164,-1,162,164,165,-1,165,164,166,-1,165,166,167,-1,167,166,168,-1,167,168,169,-1,169,168,170,-1,169,170,171,-1,171,170,172,-1,171,172,173,-1,173,172,174,-1,173,174,175,-1,176,175,177,-1,177,175,174,-1,176,177,178,-1,178,177,179,-1,178,179,180,-1,180,179,181,-1,180,181,182,-1,182,181,183,-1,182,183,184,-1,184,183,185,-1,184,185,186,-1,186,185,187,-1,186,187,188,-1,188,187,189,-1,190,188,191,-1,191,188,189,-1,162,165,152,-1,152,165,167,-1,152,167,150,-1,133,135,184,-1,184,135,182,-1,133,184,128,-1,128,184,186,-1,128,186,129,-1,129,186,188,-1,129,188,190,-1,167,169,150,-1,150,169,171,-1,150,171,148,-1,148,171,173,-1,148,173,146,-1,146,173,175,-1,146,175,144,-1,144,175,143,-1,158,160,156,-1,156,160,162,-1,156,162,154,-1,154,162,152,-1,135,137,182,-1,182,137,139,-1,182,139,180,-1,180,139,141,-1,180,141,178,-1,178,141,143,-1,178,143,176,-1,176,143,175,-1,142,140,181,-1,181,140,138,-1,181,138,183,-1,174,172,149,-1,149,172,170,-1,149,170,151,-1,163,161,159,-1,138,136,183,-1,183,136,134,-1,183,134,185,-1,185,134,132,-1,185,132,187,-1,187,132,130,-1,187,130,189,-1,189,130,131,-1,189,131,191,-1,170,168,151,-1,151,168,166,-1,151,166,153,-1,153,166,164,-1,153,164,155,-1,155,164,163,-1,155,163,157,-1,157,163,159,-1,149,147,174,-1,174,147,145,-1,174,145,177,-1,177,145,142,-1,177,142,179,-1,179,142,181,-1,192,193,194,-1,194,193,195,-1,192,194,196,-1,196,194,197,-1,196,197,198,-1,198,197,199,-1,198,199,200,-1,200,199,201,-1,200,201,202,-1,202,201,203,-1,202,203,204,-1,204,203,205,-1,204,205,206,-1,206,205,207,-1,208,206,209,-1,209,206,207,-1,208,209,210,-1,208,210,211,-1,211,210,212,-1,211,212,213,-1,213,212,214,-1,213,214,215,-1,215,214,216,-1,215,216,217,-1,217,216,218,-1,217,218,219,-1,219,218,220,-1,219,220,221,-1,222,221,223,-1,223,221,220,-1,224,222,225,-1,225,222,223,-1,226,224,227,-1,227,224,225,-1,226,227,228,-1,228,227,229,-1,228,229,230,-1,230,229,231,-1,230,231,232,-1,232,231,233,-1,232,233,234,-1,234,233,235,-1,234,235,236,-1,236,235,237,-1,236,237,238,-1,238,237,239,-1,240,238,241,-1,241,238,239,-1,240,241,242,-1,240,242,243,-1,243,242,244,-1,243,244,245,-1,245,244,246,-1,245,246,247,-1,247,246,248,-1,247,248,249,-1,249,248,250,-1,249,250,251,-1,251,250,252,-1,251,252,253,-1,254,253,255,-1,255,253,252,-1,208,211,234,-1,234,211,213,-1,234,213,232,-1,240,243,202,-1,202,243,245,-1,202,245,200,-1,221,222,224,-1,245,247,200,-1,200,247,249,-1,200,249,198,-1,198,249,251,-1,198,251,196,-1,196,251,253,-1,196,253,192,-1,192,253,254,-1,192,254,193,-1,213,215,232,-1,232,215,217,-1,232,217,230,-1,230,217,219,-1,230,219,228,-1,228,219,221,-1,228,221,226,-1,226,221,224,-1,234,236,208,-1,208,236,238,-1,208,238,206,-1,206,238,240,-1,206,240,204,-1,204,240,202,-1,194,195,255,-1,220,218,231,-1,231,218,216,-1,231,216,233,-1,248,201,199,-1,194,255,197,-1,197,255,252,-1,197,252,199,-1,199,252,250,-1,199,250,248,-1,216,214,233,-1,233,214,212,-1,233,212,235,-1,235,212,210,-1,235,210,237,-1,237,210,209,-1,237,209,239,-1,239,209,241,-1,225,223,227,-1,227,223,220,-1,227,220,229,-1,229,220,231,-1,248,246,201,-1,201,246,244,-1,201,244,203,-1,203,244,242,-1,203,242,205,-1,205,242,241,-1,205,241,207,-1,207,241,209,-1,256,257,258,-1,258,257,259,-1,256,258,260,-1,256,260,261,-1,261,260,262,-1,261,262,263,-1,263,262,264,-1,263,264,265,-1,265,264,266,-1,265,266,267,-1,267,266,268,-1,267,268,269,-1,269,268,270,-1,269,270,271,-1,272,271,273,-1,273,271,270,-1,272,273,274,-1,274,273,275,-1,274,275,276,-1,276,275,277,-1,276,277,278,-1,278,277,279,-1,278,279,280,-1,280,279,281,-1,280,281,282,-1,282,281,283,-1,282,283,284,-1,284,283,285,-1,286,284,287,-1,287,284,285,-1,288,286,289,-1,289,286,287,-1,290,288,291,-1,291,288,289,-1,290,291,292,-1,290,292,293,-1,293,292,294,-1,293,294,295,-1,295,294,296,-1,295,296,297,-1,297,296,298,-1,297,298,299,-1,299,298,300,-1,299,300,301,-1,301,300,302,-1,301,302,303,-1,304,303,305,-1,305,303,302,-1,304,305,306,-1,306,305,307,-1,306,307,308,-1,308,307,309,-1,308,309,310,-1,310,309,311,-1,310,311,312,-1,312,311,313,-1,312,313,314,-1,314,313,315,-1,314,315,316,-1,316,315,317,-1,318,316,319,-1,319,316,317,-1,290,293,280,-1,280,293,295,-1,280,295,278,-1,261,263,312,-1,312,263,310,-1,261,312,256,-1,256,312,314,-1,256,314,257,-1,257,314,316,-1,257,316,318,-1,295,297,278,-1,278,297,299,-1,278,299,276,-1,276,299,301,-1,276,301,274,-1,274,301,303,-1,274,303,272,-1,272,303,271,-1,286,288,284,-1,284,288,290,-1,284,290,282,-1,282,290,280,-1,263,265,310,-1,310,265,267,-1,310,267,308,-1,308,267,269,-1,308,269,306,-1,306,269,271,-1,306,271,304,-1,304,271,303,-1,270,268,309,-1,309,268,266,-1,309,266,311,-1,302,300,277,-1,277,300,298,-1,277,298,279,-1,291,289,287,-1,266,264,311,-1,311,264,262,-1,311,262,313,-1,313,262,260,-1,313,260,315,-1,315,260,258,-1,315,258,317,-1,317,258,259,-1,317,259,319,-1,298,296,279,-1,279,296,294,-1,279,294,281,-1,281,294,292,-1,281,292,283,-1,283,292,291,-1,283,291,285,-1,285,291,287,-1,277,275,302,-1,302,275,273,-1,302,273,305,-1,305,273,270,-1,305,270,307,-1,307,270,309,-1,320,321,322,-1,322,321,323,-1,320,322,324,-1,324,322,325,-1,324,325,326,-1,326,325,327,-1,326,327,328,-1,328,327,329,-1,328,329,330,-1,330,329,331,-1,330,331,332,-1,332,331,333,-1,332,333,334,-1,334,333,335,-1,336,334,337,-1,337,334,335,-1,336,337,338,-1,336,338,339,-1,339,338,340,-1,339,340,341,-1,341,340,342,-1,341,342,343,-1,343,342,344,-1,343,344,345,-1,345,344,346,-1,345,346,347,-1,347,346,348,-1,347,348,349,-1,350,349,351,-1,351,349,348,-1,352,350,353,-1,353,350,351,-1,354,352,355,-1,355,352,353,-1,354,355,356,-1,356,355,357,-1,356,357,358,-1,358,357,359,-1,358,359,360,-1,360,359,361,-1,360,361,362,-1,362,361,363,-1,362,363,364,-1,364,363,365,-1,364,365,366,-1,366,365,367,-1,368,366,369,-1,369,366,367,-1,368,369,370,-1,368,370,371,-1,371,370,372,-1,371,372,373,-1,373,372,374,-1,373,374,375,-1,375,374,376,-1,375,376,377,-1,377,376,378,-1,377,378,379,-1,379,378,380,-1,379,380,381,-1,382,381,383,-1,383,381,380,-1,336,339,362,-1,362,339,341,-1,362,341,360,-1,368,371,330,-1,330,371,373,-1,330,373,328,-1,349,350,352,-1,373,375,328,-1,328,375,377,-1,328,377,326,-1,326,377,379,-1,326,379,324,-1,324,379,381,-1,324,381,320,-1,320,381,382,-1,320,382,321,-1,341,343,360,-1,360,343,345,-1,360,345,358,-1,358,345,347,-1,358,347,356,-1,356,347,349,-1,356,349,354,-1,354,349,352,-1,362,364,336,-1,336,364,366,-1,336,366,334,-1,334,366,368,-1,334,368,332,-1,332,368,330,-1,322,323,383,-1,348,346,359,-1,359,346,344,-1,359,344,361,-1,376,329,327,-1,322,383,325,-1,325,383,380,-1,325,380,327,-1,327,380,378,-1,327,378,376,-1,344,342,361,-1,361,342,340,-1,361,340,363,-1,363,340,338,-1,363,338,365,-1,365,338,337,-1,365,337,367,-1,367,337,369,-1,353,351,355,-1,355,351,348,-1,355,348,357,-1,357,348,359,-1,376,374,329,-1,329,374,372,-1,329,372,331,-1,331,372,370,-1,331,370,333,-1,333,370,369,-1,333,369,335,-1,335,369,337,-1,
        ]
    }
}
Shape{
    appearance Appearance {
        material  Material 	{
            diffuseColor 0.20784313725490197 0.20784313725490197 0.20784313725490197
            specularColor 0.01568627450980392 0.01568627450980392 0.01568627450980392
            ambientIntensity 0.298
            transparency 0.0
            shininess 0.5
        }
    }
    geometry IndexedFaceSet {
        ccw TRUE
        solid FALSE
        coord DEF co Coordinate {
            point [
                -0.2392 0.3967 0.4154, -0.2392 -0.3967 0.4154, -0.2382 0.3967 0.42, -0.2382 -0.3967 0.42, -0.2381 0.3967 0.4201, -0.2381 -0.3967 0.4201, -0.236 0.3967 0.4243, -0.236 -0.3967 0.4243, -0.2359 0.3967 0.4244, -0.2359 -0.3967 0.4244, -0.2328 0.3967 0.428, -0.2328 -0.3967 0.428, -0.2328 0.3967 0.428, -0.2328 -0.3967 0.428, -0.2289 0.3967 0.4307, -0.2289 -0.3967 0.4307, -0.2288 0.3967 0.4308, -0.2288 -0.3967 0.4308, -0.2244 0.3967 0.4325, -0.2244 -0.3967 0.4325, -0.2244 0.3967 0.4325, -0.2244 -0.3967 0.4325, -0.2196 -0.3967 0.4331, -0.2196 0.3967 0.4331, -0.2324 0.4002 0.428, -0.2286 0.3992 0.4307, -0.2242 0.398 0.4325, -0.2238 0.3991 0.4325, -0.222 0.4009 0.4325, -0.223 0.4001 0.4325, -0.2209 0.4014 0.4325, -0.2375 0.4015 0.42, -0.2385 0.4018 0.4159, -0.2385 0.4018 0.4159, -0.2365 0.4065 0.4162, -0.2357 0.406 0.42, -0.2365 0.4065 0.4162, -0.2327 0.4099 0.42, -0.2334 0.4105 0.4163, -0.2289 0.4128 0.42, -0.2294 0.4136 0.4162, -0.2293 0.4136 0.4162, -0.2244 0.4147 0.42, -0.2247 0.4156 0.4159, -0.2246 0.4156 0.4159, -0.2196 0.4153 0.42, -0.2196 0.4163 0.4154, -0.2196 0.4015 0.4325, -0.2277 0.4014 0.4307, -0.2262 0.4033 0.4307, -0.2243 0.4048 0.4307, -0.222 0.4057 0.4307, -0.2196 0.4015 0.4325, -0.2196 0.406 0.4308, -0.2196 0.406 0.4307, -0.2196 0.4099 0.428, -0.2311 0.4034 0.428, -0.229 0.4061 0.428, -0.2262 0.4082 0.428, -0.223 0.4095 0.428, -0.2354 0.401 0.4243, -0.2338 0.4049 0.4243, -0.2312 0.4083 0.4243, -0.2278 0.4109 0.4243, -0.2239 0.4126 0.4243, -0.2196 0.41 0.428, -0.2196 0.4131 0.4244, -0.2196 0.4131 0.4243, -0.2196 0.4152 0.4201, -0.2196 -0.413 0.4244, -0.2196 -0.4099 0.428, -0.223 -0.4095 0.428, -0.222 -0.4057 0.4307, -0.2209 -0.4013 0.4325, -0.222 -0.4009 0.4325, -0.2238 -0.3991 0.4325, -0.223 -0.4001 0.4325, -0.2242 -0.3979 0.4325, -0.2196 -0.4015 0.4325, -0.2244 -0.4146 0.42, -0.2247 -0.4156 0.4159, -0.2246 -0.4156 0.4159, -0.2293 -0.4136 0.4162, -0.2289 -0.4128 0.42, -0.2294 -0.4136 0.4162, -0.2327 -0.4098 0.42, -0.2334 -0.4105 0.4163, -0.2357 -0.406 0.42, -0.2365 -0.4064 0.4162, -0.2365 -0.4064 0.4162, -0.2375 -0.4015 0.42, -0.2385 -0.4018 0.4159, -0.2385 -0.4017 0.4159, -0.2196 -0.4099 0.428, -0.2196 -0.406 0.4307, -0.2196 -0.4059 0.4308, -0.2196 -0.4015 0.4325, -0.2243 -0.4048 0.4307, -0.2262 -0.4033 0.4307, -0.2277 -0.4014 0.4307, -0.2286 -0.3991 0.4307, -0.2262 -0.4082 0.428, -0.229 -0.4061 0.428, -0.2311 -0.4033 0.428, -0.2324 -0.4001 0.428, -0.2196 -0.4152 0.4201, -0.2196 -0.4131 0.4243, -0.2239 -0.4125 0.4243, -0.2278 -0.4109 0.4243, -0.2312 -0.4083 0.4243, -0.2338 -0.4049 0.4243, -0.2354 -0.4009 0.4243, -0.2196 -0.4153 0.42, -0.2196 -0.4163 0.4154, 0.2195 0.4163 0.4154, 0.2195 0.4153 0.42, 0.2195 0.4152 0.4201, 0.2195 0.4131 0.4243, 0.2195 0.4131 0.4244, 0.2195 0.41 0.428, 0.2195 0.4099 0.428, 0.2195 0.406 0.4307, 0.2195 0.406 0.4308, 0.2195 0.4015 0.4325, 0.2195 0.4015 0.4325, 0.2195 0.3967 0.4331, -0.2533 0.4233 0.2561, -0.2533 0.4233 0.2561, -0.2553 0.4186 0.256, -0.2553 0.4185 0.256, -0.256 0.4135 0.2559, -0.2502 0.4273 0.2561, -0.2462 0.4305 0.2561, -0.2461 0.4305 0.2561, -0.2414 0.4324 0.256, -0.2414 0.4324 0.256, -0.2364 0.4331 0.2559, -0.2462 -0.4304 0.2561, -0.2461 -0.4304 0.2561, -0.2414 -0.4324 0.256, -0.2414 -0.4324 0.256, -0.2364 -0.4331 0.2559, -0.2502 -0.4273 0.2561, -0.2533 -0.4233 0.2561, -0.2533 -0.4232 0.2561, -0.2553 -0.4185 0.256, -0.2553 -0.4185 0.256, -0.256 -0.4135 0.2559, 0.2195 -0.4163 0.4154, 0.2195 -0.4153 0.42, 0.2195 -0.4152 0.4201, 0.2195 -0.4131 0.4243, 0.2195 -0.413 0.4244, 0.2195 -0.4099 0.428, 0.2195 -0.4099 0.428, 0.2195 -0.406 0.4307, 0.2195 -0.4059 0.4308, 0.2195 -0.4015 0.4325, 0.2195 -0.4015 0.4325, 0.2195 -0.3967 0.4331, 0.2391 -0.3967 0.4154, 0.2391 0.3967 0.4154, 0.2381 -0.3967 0.42, 0.2381 0.3967 0.42, 0.238 -0.3967 0.4201, 0.238 0.3967 0.4201, 0.2359 -0.3967 0.4243, 0.2359 0.3967 0.4243, 0.2358 -0.3967 0.4244, 0.2358 0.3967 0.4244, 0.2327 -0.3967 0.428, 0.2327 0.3967 0.428, 0.2327 -0.3967 0.428, 0.2327 0.3967 0.428, 0.2288 -0.3967 0.4307, 0.2288 0.3967 0.4307, 0.2287 -0.3967 0.4308, 0.2287 0.3967 0.4308, 0.2243 -0.3967 0.4325, 0.2243 0.3967 0.4325, 0.2243 -0.3967 0.4325, 0.2243 0.3967 0.4325, 0.2229 0.4095 0.428, 0.2219 0.4057 0.4307, 0.2207 0.4014 0.4325, 0.2219 0.4009 0.4325, 0.2237 0.3991 0.4325, 0.2229 0.4001 0.4325, 0.2241 0.398 0.4325, 0.2243 0.4147 0.42, 0.2246 0.4156 0.4159, 0.2245 0.4156 0.4159, 0.2292 0.4136 0.4162, 0.2288 0.4128 0.42, 0.2293 0.4136 0.4162, 0.2326 0.4099 0.42, 0.2333 0.4105 0.4163, 0.2356 0.406 0.42, 0.2364 0.4065 0.4162, 0.2364 0.4065 0.4162, 0.2374 0.4015 0.42, 0.2384 0.4018 0.4159, 0.2384 0.4018 0.4159, 0.2242 0.4048 0.4307, 0.2261 0.4033 0.4307, 0.2276 0.4014 0.4307, 0.2285 0.3992 0.4307, 0.2261 0.4082 0.428, 0.2289 0.4061 0.428, 0.231 0.4034 0.428, 0.2323 0.4002 0.428, 0.2238 0.4126 0.4243, 0.2277 0.4109 0.4243, 0.2311 0.4083 0.4243, 0.2337 0.4049 0.4243, 0.2353 0.401 0.4243, -0.2363 0.4331 0.2559, -0.2259 0.4227 0.058, -0.231 0.422 0.0578, -0.2449 0.4081 0.0578, -0.2456 0.4031 0.058, -0.256 0.4134 0.2559, -0.2449 0.4081 0.0578, -0.2429 0.4129 0.0576, -0.2429 0.4129 0.0576, -0.2398 0.4169 0.0576, -0.2357 0.4201 0.0576, -0.2357 0.4201 0.0576, -0.231 0.422 0.0578, -0.2259 -0.0223 0.0394, -0.2259 -0.403 0.0394, -0.2309 -0.403 0.04, -0.2456 -0.403 0.058, -0.2447 -0.403 0.0533, -0.2447 0.4031 0.0533, -0.2447 -0.403 0.0531, -0.2447 0.4031 0.0531, -0.2427 -0.403 0.0487, -0.2427 0.4031 0.0487, -0.2426 -0.403 0.0486, -0.2426 0.4031 0.0486, -0.2395 -0.403 0.0448, -0.2395 0.4031 0.0448, -0.2395 -0.403 0.0448, -0.2395 0.4031 0.0448, -0.2355 -0.403 0.0419, -0.2355 0.4031 0.0419, -0.2355 -0.403 0.0418, -0.2355 0.4031 0.0418, -0.2309 -0.403 0.04, -0.2309 0.4031 0.04, -0.2309 0.4031 0.04, -0.2259 0.4031 0.0394, -0.2449 -0.4081 0.0578, -0.245 -0.4074 0.0578, -0.256 -0.4134 0.2559, -0.2435 -0.4115 0.0577, -0.2429 -0.4128 0.0576, -0.2411 -0.4152 0.0576, -0.2398 -0.4169 0.0576, -0.2381 -0.4182 0.0576, -0.2357 -0.42 0.0576, -0.2344 -0.4206 0.0577, -0.231 -0.422 0.0578, -0.2363 -0.4331 0.2559, -0.2303 -0.4221 0.0578, -0.2259 -0.4227 0.058, 0.2323 -0.4001 0.428, 0.2285 -0.3991 0.4307, 0.2241 -0.3979 0.4325, 0.2237 -0.3991 0.4325, 0.2219 -0.4009 0.4325, 0.2229 -0.4001 0.4325, 0.2207 -0.4013 0.4325, 0.2374 -0.4015 0.42, 0.2384 -0.4018 0.4159, 0.2384 -0.4017 0.4159, 0.2364 -0.4064 0.4162, 0.2356 -0.406 0.42, 0.2364 -0.4064 0.4162, 0.2326 -0.4098 0.42, 0.2333 -0.4105 0.4163, 0.2288 -0.4128 0.42, 0.2293 -0.4136 0.4162, 0.2292 -0.4136 0.4162, 0.2243 -0.4146 0.42, 0.2246 -0.4156 0.4159, 0.2245 -0.4156 0.4159, 0.2276 -0.4014 0.4307, 0.2261 -0.4033 0.4307, 0.2242 -0.4048 0.4307, 0.2219 -0.4057 0.4307, 0.231 -0.4033 0.428, 0.2289 -0.4061 0.428, 0.2261 -0.4082 0.428, 0.2229 -0.4095 0.428, 0.2353 -0.4009 0.4243, 0.2337 -0.4049 0.4243, 0.2311 -0.4083 0.4243, 0.2277 -0.4109 0.4243, 0.2238 -0.4125 0.4243, 0.2461 0.4305 0.2561, 0.246 0.4305 0.2561, 0.2413 0.4324 0.256, 0.2413 0.4324 0.256, 0.2363 0.4331 0.2559, 0.2501 0.4273 0.2561, 0.2532 0.4233 0.2561, 0.2532 0.4233 0.2561, 0.2552 0.4186 0.256, 0.2552 0.4185 0.256, 0.2559 0.4135 0.2559, -0.2259 0.408 0.04, -0.2272 0.4079 0.04, -0.2352 0.4055 0.0419, -0.2391 0.4066 0.0448, -0.2421 0.4074 0.0487, -0.2441 0.4079 0.0533, -0.2422 0.4125 0.0533, -0.2259 0.4219 0.0533, -0.2308 0.4212 0.0533, -0.2259 0.4218 0.0531, -0.2303 0.4192 0.0487, -0.2404 0.4114 0.0487, -0.2392 0.4164 0.0533, -0.2259 0.4198 0.0487, -0.2259 0.4197 0.0486, -0.2295 0.4162 0.0448, -0.2377 0.4099 0.0448, -0.2378 0.4149 0.0487, -0.2259 0.4167 0.0448, -0.2259 0.4166 0.0448, -0.2284 0.4123 0.0419, -0.2356 0.4127 0.0448, -0.2342 0.4079 0.0419, -0.2307 0.4043 0.04, -0.2353 0.4194 0.0533, -0.2343 0.4176 0.0487, -0.2327 0.4149 0.0448, -0.2307 0.4114 0.0419, -0.2284 0.4074 0.04, -0.2327 0.4098 0.0419, -0.2302 0.4055 0.04, -0.2294 0.4066 0.04, -0.2259 0.4127 0.0419, -0.2259 0.4126 0.0418, -0.2259 0.408 0.04, -0.2308 -0.4041 0.04, -0.229 -0.4069 0.04, -0.2298 -0.4061 0.04, -0.2259 -0.4126 0.0418, -0.2259 -0.4126 0.0419, -0.2281 -0.4124 0.0419, -0.2259 -0.4166 0.0448, -0.2259 -0.4166 0.0448, -0.229 -0.4163 0.0448, -0.2297 -0.4194 0.0487, -0.2301 -0.4214 0.0533, -0.2341 -0.42 0.0533, -0.2429 -0.4112 0.0533, -0.2443 -0.4072 0.0533, -0.2377 -0.4177 0.0533, -0.2259 -0.4218 0.0533, -0.2259 -0.4218 0.0531, -0.2259 -0.4198 0.0487, -0.2259 -0.4197 0.0486, -0.2423 -0.4068 0.0487, -0.2332 -0.4181 0.0487, -0.2392 -0.4061 0.0448, -0.2318 -0.4153 0.0448, -0.2364 -0.4161 0.0487, -0.2406 -0.4148 0.0533, -0.2353 -0.4052 0.0419, -0.239 -0.4135 0.0487, -0.2344 -0.4137 0.0448, -0.2301 -0.4117 0.0419, -0.227 -0.4079 0.04, -0.2334 -0.409 0.0419, -0.241 -0.4103 0.0487, -0.2382 -0.4089 0.0448, -0.2346 -0.4072 0.0419, -0.2304 -0.4052 0.04, -0.2259 -0.408 0.04, -0.2259 -0.408 0.04, -0.2366 -0.4115 0.0448, -0.2319 -0.4105 0.0419, -0.2281 -0.4075 0.04, 0.2553 -0.4178 0.256, 0.2559 -0.4135 0.2559, 0.2501 -0.4273 0.2561, 0.2514 -0.4256 0.2561, 0.2552 -0.4185 0.256, 0.2538 -0.4219 0.2561, 0.2532 -0.4233 0.2561, 0.2483 -0.4287 0.2561, 0.2461 -0.4304 0.2561, 0.2446 -0.431 0.2561, 0.2413 -0.4324 0.256, 0.2404 -0.4325 0.256, 0.2363 -0.4331 0.2559, 0.2448 0.4081 0.0578, 0.2449 0.4074 0.0578, 0.2559 0.4134 0.2559, 0.2455 0.4031 0.058, 0.2434 0.4115 0.0577, 0.2428 0.4129 0.0576, 0.241 0.4152 0.0576, 0.2397 0.4169 0.0576, 0.238 0.4183 0.0576, 0.2356 0.4201 0.0576, 0.2343 0.4206 0.0577, 0.2309 0.422 0.0578, 0.2362 0.4331 0.2559, 0.2302 0.4221 0.0578, 0.2258 0.4227 0.058, 0.0131 0.4031 0.0394, 0.2258 0.4031 0.0394, 0.2258 0.408 0.04, 0.2258 0.408 0.04, 0.2258 0.4126 0.0418, 0.2258 0.4127 0.0419, 0.2258 0.4166 0.0448, 0.2258 0.4167 0.0448, 0.2258 0.4197 0.0486, 0.2258 0.4198 0.0487, 0.2258 0.4218 0.0531, 0.2258 0.4219 0.0533, 0.0131 -0.403 0.0394, 0.2258 -0.403 0.0394, 0.2258 -0.408 0.04, 0.2258 -0.4227 0.058, 0.2258 -0.4218 0.0533, 0.2258 -0.4218 0.0531, 0.2258 -0.4198 0.0487, 0.2258 -0.4197 0.0486, 0.2258 -0.4166 0.0448, 0.2258 -0.4166 0.0448, 0.2258 -0.4126 0.0419, 0.2258 -0.4126 0.0418, 0.2258 -0.408 0.04, 0.2362 -0.4331 0.2559, 0.23 -0.4222 0.0578, 0.245 -0.4074 0.0578, 0.2455 -0.403 0.058, 0.2559 -0.4134 0.2559, 0.2447 -0.4081 0.0578, 0.2435 -0.4116 0.0577, 0.2427 -0.4128 0.0577, 0.2411 -0.4153 0.0576, 0.2396 -0.4168 0.0576, 0.238 -0.4184 0.0576, 0.2356 -0.4199 0.0577, 0.2342 -0.4208 0.0577, 0.2309 -0.4219 0.0578, 0.2308 0.4031 0.04, 0.2307 0.4042 0.04, 0.2289 0.4069 0.04, 0.2297 0.4062 0.04, 0.228 0.4124 0.0419, 0.2289 0.4163 0.0448, 0.2296 0.4194 0.0487, 0.23 0.4214 0.0533, 0.234 0.42 0.0533, 0.2428 0.4112 0.0533, 0.2442 0.4072 0.0533, 0.2376 0.4178 0.0533, 0.2446 0.4031 0.0533, 0.2446 0.4031 0.0531, 0.2422 0.4068 0.0487, 0.2331 0.4182 0.0487, 0.2426 0.4031 0.0487, 0.2425 0.4031 0.0486, 0.2391 0.4061 0.0448, 0.2317 0.4153 0.0448, 0.2363 0.4162 0.0487, 0.2405 0.4148 0.0533, 0.2394 0.4031 0.0448, 0.2394 0.4031 0.0448, 0.2352 0.4052 0.0419, 0.2389 0.4135 0.0487, 0.2343 0.4137 0.0448, 0.23 0.4117 0.0419, 0.2269 0.4079 0.04, 0.2333 0.409 0.0419, 0.2409 0.4103 0.0487, 0.2381 0.409 0.0448, 0.2345 0.4072 0.0419, 0.2303 0.4052 0.04, 0.2365 0.4116 0.0448, 0.2318 0.4106 0.0419, 0.228 0.4075 0.04, 0.2354 0.4031 0.0419, 0.2354 0.4031 0.0418, 0.2308 0.4031 0.04, 0.2271 -0.4078 0.04, 0.2354 -0.403 0.0418, 0.2354 -0.403 0.0419, 0.2351 -0.4055 0.0419, 0.2394 -0.403 0.0448, 0.2394 -0.403 0.0448, 0.239 -0.4065 0.0448, 0.242 -0.4074 0.0487, 0.244 -0.4079 0.0533, 0.2421 -0.4124 0.0533, 0.2352 -0.4193 0.0533, 0.2307 -0.4212 0.0533, 0.2446 -0.403 0.0533, 0.2446 -0.403 0.0531, 0.2426 -0.403 0.0487, 0.2425 -0.403 0.0486, 0.2302 -0.4192 0.0487, 0.2403 -0.4114 0.0487, 0.2391 -0.4163 0.0533, 0.2294 -0.4162 0.0448, 0.2376 -0.4098 0.0448, 0.2377 -0.4149 0.0487, 0.2283 -0.4123 0.0419, 0.2355 -0.4126 0.0448, 0.2341 -0.4078 0.0419, 0.2306 -0.4043 0.04, 0.2342 -0.4175 0.0487, 0.2326 -0.4148 0.0448, 0.2306 -0.4113 0.0419, 0.2283 -0.4073 0.04, 0.2308 -0.403 0.04, 0.2308 -0.403 0.04, 0.2326 -0.4098 0.0419, 0.2301 -0.4055 0.04, 0.2293 -0.4065 0.04, 0.2258 -0.0223 0.0394
            ]
        }
        coordIndex [
            0,1,2,-1,2,1,3,-1,2,3,4,-1,4,3,5,-1,4,5,6,-1,6,5,7,-1,6,7,8,-1,8,7,9,-1,8,9,10,-1,10,9,11,-1,10,11,12,-1,12,11,13,-1,12,13,14,-1,14,13,15,-1,14,15,16,-1,16,15,17,-1,16,17,18,-1,18,17,19,-1,18,19,20,-1,19,21,20,-1,20,21,22,-1,20,22,23,-1,8,10,24,-1,25,26,27,-1,23,28,29,-1,30,28,23,-1,27,26,23,-1,20,23,26,-1,31,32,33,-1,32,31,34,-1,34,31,35,-1,34,35,36,-1,36,35,37,-1,36,37,38,-1,38,37,39,-1,38,39,40,-1,40,39,41,-1,41,39,42,-1,41,42,43,-1,43,42,44,-1,44,42,45,-1,44,45,46,-1,47,30,23,-1,12,14,25,-1,25,14,16,-1,25,16,26,-1,26,16,18,-1,26,18,20,-1,48,29,49,-1,49,29,28,-1,49,28,50,-1,50,28,30,-1,50,30,51,-1,47,52,30,-1,30,52,53,-1,30,53,51,-1,51,53,54,-1,51,54,55,-1,24,48,56,-1,56,48,49,-1,56,49,57,-1,57,49,50,-1,57,50,58,-1,58,50,51,-1,58,51,59,-1,59,51,55,-1,4,6,60,-1,60,6,8,-1,8,24,60,-1,60,24,56,-1,60,56,61,-1,61,56,57,-1,61,57,62,-1,62,57,58,-1,62,58,63,-1,63,58,59,-1,63,59,64,-1,10,12,24,-1,24,12,25,-1,24,25,48,-1,48,25,27,-1,48,27,29,-1,29,27,23,-1,4,31,2,-1,2,31,33,-1,2,33,0,-1,55,65,59,-1,59,65,66,-1,59,66,64,-1,64,66,67,-1,64,67,68,-1,4,60,31,-1,31,60,61,-1,31,61,35,-1,35,61,62,-1,35,62,37,-1,37,62,63,-1,37,63,39,-1,39,63,64,-1,39,64,42,-1,42,64,68,-1,42,68,45,-1,69,70,71,-1,72,73,74,-1,22,75,76,-1,77,75,22,-1,74,73,22,-1,78,22,73,-1,79,80,81,-1,80,79,82,-1,82,79,83,-1,82,83,84,-1,84,83,85,-1,84,85,86,-1,86,85,87,-1,86,87,88,-1,88,87,89,-1,89,87,90,-1,89,90,91,-1,91,90,92,-1,92,90,3,-1,92,3,1,-1,21,77,22,-1,93,94,72,-1,72,94,95,-1,72,95,73,-1,73,95,96,-1,73,96,78,-1,97,76,98,-1,98,76,75,-1,98,75,99,-1,99,75,77,-1,99,77,100,-1,21,19,77,-1,77,19,17,-1,77,17,100,-1,100,17,15,-1,100,15,13,-1,71,97,101,-1,101,97,98,-1,101,98,102,-1,102,98,99,-1,102,99,103,-1,103,99,100,-1,103,100,104,-1,104,100,13,-1,105,106,107,-1,107,106,69,-1,69,71,107,-1,107,71,101,-1,107,101,108,-1,108,101,102,-1,108,102,109,-1,109,102,103,-1,109,103,110,-1,110,103,104,-1,110,104,111,-1,70,93,71,-1,71,93,72,-1,71,72,97,-1,97,72,74,-1,97,74,76,-1,76,74,22,-1,105,79,112,-1,112,79,81,-1,112,81,113,-1,13,11,104,-1,104,11,9,-1,104,9,111,-1,111,9,7,-1,111,7,5,-1,105,107,79,-1,79,107,108,-1,79,108,83,-1,83,108,109,-1,83,109,85,-1,85,109,110,-1,85,110,87,-1,87,110,111,-1,87,111,90,-1,90,111,5,-1,90,5,3,-1,114,46,115,-1,115,46,45,-1,115,45,116,-1,116,45,68,-1,116,68,117,-1,117,68,67,-1,117,67,118,-1,118,67,66,-1,118,66,119,-1,119,66,65,-1,119,65,120,-1,120,65,55,-1,120,55,121,-1,121,55,54,-1,121,54,122,-1,122,54,53,-1,122,53,123,-1,123,53,52,-1,123,52,124,-1,52,47,124,-1,124,47,23,-1,124,23,125,-1,126,127,33,-1,33,127,128,-1,33,128,0,-1,0,128,129,-1,0,129,130,-1,33,32,126,-1,126,32,34,-1,126,34,131,-1,131,34,36,-1,36,38,131,-1,131,38,40,-1,131,40,132,-1,132,40,41,-1,132,41,133,-1,133,41,43,-1,133,43,134,-1,134,43,44,-1,134,44,135,-1,135,44,46,-1,135,46,136,-1,137,138,81,-1,81,138,139,-1,81,139,113,-1,113,139,140,-1,113,140,141,-1,81,80,137,-1,137,80,82,-1,137,82,142,-1,142,82,84,-1,84,86,142,-1,142,86,88,-1,142,88,143,-1,143,88,89,-1,143,89,144,-1,144,89,91,-1,144,91,145,-1,145,91,92,-1,145,92,146,-1,146,92,1,-1,146,1,147,-1,113,148,112,-1,112,148,149,-1,112,149,105,-1,105,149,150,-1,105,150,106,-1,106,150,151,-1,106,151,69,-1,69,151,152,-1,69,152,70,-1,70,152,153,-1,70,153,93,-1,93,153,154,-1,93,154,94,-1,94,154,155,-1,94,155,95,-1,95,155,156,-1,95,156,96,-1,96,156,157,-1,96,157,78,-1,157,158,78,-1,78,158,159,-1,78,159,22,-1,160,161,162,-1,162,161,163,-1,162,163,164,-1,164,163,165,-1,164,165,166,-1,166,165,167,-1,166,167,168,-1,168,167,169,-1,168,169,170,-1,170,169,171,-1,170,171,172,-1,172,171,173,-1,172,173,174,-1,174,173,175,-1,174,175,176,-1,176,175,177,-1,176,177,178,-1,178,177,179,-1,178,179,180,-1,179,181,180,-1,180,181,125,-1,180,125,159,-1,118,119,182,-1,183,184,185,-1,125,186,187,-1,188,186,125,-1,185,184,125,-1,124,125,184,-1,189,190,191,-1,190,189,192,-1,192,189,193,-1,192,193,194,-1,194,193,195,-1,194,195,196,-1,196,195,197,-1,196,197,198,-1,198,197,199,-1,199,197,200,-1,199,200,201,-1,201,200,202,-1,202,200,163,-1,202,163,161,-1,181,188,125,-1,120,121,183,-1,183,121,122,-1,183,122,184,-1,184,122,123,-1,184,123,124,-1,203,187,204,-1,204,187,186,-1,204,186,205,-1,205,186,188,-1,205,188,206,-1,181,179,188,-1,188,179,177,-1,188,177,206,-1,206,177,175,-1,206,175,173,-1,182,203,207,-1,207,203,204,-1,207,204,208,-1,208,204,205,-1,208,205,209,-1,209,205,206,-1,209,206,210,-1,210,206,173,-1,116,117,211,-1,211,117,118,-1,118,182,211,-1,211,182,207,-1,211,207,212,-1,212,207,208,-1,212,208,213,-1,213,208,209,-1,213,209,214,-1,214,209,210,-1,214,210,215,-1,119,120,182,-1,182,120,183,-1,182,183,203,-1,203,183,185,-1,203,185,187,-1,187,185,125,-1,116,189,115,-1,115,189,191,-1,115,191,114,-1,173,171,210,-1,210,171,169,-1,210,169,215,-1,215,169,167,-1,215,167,165,-1,116,211,189,-1,189,211,212,-1,189,212,193,-1,193,212,213,-1,193,213,195,-1,195,213,214,-1,195,214,197,-1,197,214,215,-1,197,215,200,-1,200,215,165,-1,200,165,163,-1,216,217,136,-1,136,217,218,-1,219,220,221,-1,221,130,219,-1,219,130,129,-1,219,129,222,-1,222,129,128,-1,222,128,223,-1,223,128,127,-1,223,127,224,-1,224,127,126,-1,224,126,225,-1,225,126,131,-1,225,131,226,-1,226,131,132,-1,226,132,227,-1,227,132,133,-1,227,133,228,-1,228,133,134,-1,228,134,218,-1,218,134,135,-1,218,135,136,-1,229,230,231,-1,232,220,233,-1,233,220,234,-1,233,234,235,-1,235,234,236,-1,235,236,237,-1,237,236,238,-1,237,238,239,-1,239,238,240,-1,239,240,241,-1,241,240,242,-1,241,242,243,-1,243,242,244,-1,243,244,245,-1,245,244,246,-1,245,246,247,-1,247,246,248,-1,247,248,249,-1,249,248,250,-1,249,250,231,-1,231,250,251,-1,231,251,229,-1,229,251,252,-1,253,146,147,-1,253,147,254,-1,254,147,255,-1,254,255,232,-1,146,253,145,-1,145,253,256,-1,145,256,144,-1,144,256,257,-1,144,257,143,-1,143,257,258,-1,143,258,142,-1,258,259,142,-1,142,259,260,-1,142,260,137,-1,137,260,261,-1,137,261,138,-1,138,261,262,-1,138,262,139,-1,139,262,263,-1,139,263,140,-1,140,263,141,-1,141,263,264,-1,264,263,265,-1,264,265,266,-1,168,170,267,-1,268,269,270,-1,159,271,272,-1,273,271,159,-1,270,269,159,-1,180,159,269,-1,274,275,276,-1,275,274,277,-1,277,274,278,-1,277,278,279,-1,279,278,280,-1,279,280,281,-1,281,280,282,-1,281,282,283,-1,283,282,284,-1,284,282,285,-1,284,285,286,-1,286,285,287,-1,287,285,149,-1,287,149,148,-1,158,273,159,-1,172,174,268,-1,268,174,176,-1,268,176,269,-1,269,176,178,-1,269,178,180,-1,288,272,289,-1,289,272,271,-1,289,271,290,-1,290,271,273,-1,290,273,291,-1,158,157,273,-1,273,157,156,-1,273,156,291,-1,291,156,155,-1,291,155,154,-1,267,288,292,-1,292,288,289,-1,292,289,293,-1,293,289,290,-1,293,290,294,-1,294,290,291,-1,294,291,295,-1,295,291,154,-1,164,166,296,-1,296,166,168,-1,168,267,296,-1,296,267,292,-1,296,292,297,-1,297,292,293,-1,297,293,298,-1,298,293,294,-1,298,294,299,-1,299,294,295,-1,299,295,300,-1,170,172,267,-1,267,172,268,-1,267,268,288,-1,288,268,270,-1,288,270,272,-1,272,270,159,-1,164,274,162,-1,162,274,276,-1,162,276,160,-1,154,153,295,-1,295,153,152,-1,295,152,300,-1,300,152,151,-1,300,151,150,-1,164,296,274,-1,274,296,297,-1,274,297,278,-1,278,297,298,-1,278,298,280,-1,280,298,299,-1,280,299,282,-1,282,299,300,-1,282,300,285,-1,285,300,150,-1,285,150,149,-1,301,302,191,-1,191,302,303,-1,191,303,114,-1,114,303,304,-1,114,304,305,-1,191,190,301,-1,301,190,192,-1,301,192,306,-1,306,192,194,-1,194,196,306,-1,306,196,198,-1,306,198,307,-1,307,198,199,-1,307,199,308,-1,308,199,201,-1,308,201,309,-1,309,201,202,-1,309,202,310,-1,310,202,161,-1,310,161,311,-1,312,252,313,-1,248,246,314,-1,244,242,315,-1,316,317,318,-1,218,217,319,-1,227,228,320,-1,320,228,218,-1,219,222,317,-1,317,222,223,-1,317,223,318,-1,318,223,224,-1,318,224,225,-1,220,219,234,-1,234,219,317,-1,234,317,236,-1,236,317,316,-1,236,316,238,-1,238,316,240,-1,218,319,320,-1,320,319,321,-1,320,321,322,-1,242,240,315,-1,315,240,316,-1,315,316,323,-1,323,316,318,-1,323,318,324,-1,324,318,225,-1,321,325,322,-1,322,325,326,-1,322,326,327,-1,246,244,314,-1,314,244,315,-1,314,315,328,-1,328,315,323,-1,328,323,329,-1,329,323,324,-1,326,330,327,-1,327,330,331,-1,327,331,332,-1,329,333,328,-1,328,333,334,-1,328,334,314,-1,314,334,335,-1,314,335,248,-1,226,227,336,-1,336,227,320,-1,336,320,337,-1,337,320,322,-1,337,322,338,-1,338,322,327,-1,338,327,339,-1,339,327,332,-1,339,332,340,-1,340,332,313,-1,340,313,252,-1,252,251,335,-1,335,251,250,-1,335,250,248,-1,333,341,334,-1,334,341,342,-1,334,342,335,-1,335,342,252,-1,341,343,342,-1,342,343,252,-1,331,344,332,-1,332,344,345,-1,332,345,313,-1,313,345,346,-1,313,346,312,-1,225,226,324,-1,324,226,336,-1,324,336,329,-1,329,336,337,-1,329,337,333,-1,333,337,338,-1,333,338,341,-1,341,338,339,-1,341,339,343,-1,343,339,340,-1,343,340,252,-1,231,230,347,-1,348,349,230,-1,350,351,352,-1,353,354,355,-1,356,357,358,-1,257,256,359,-1,253,254,360,-1,360,254,232,-1,361,260,259,-1,358,262,261,-1,262,358,263,-1,263,358,357,-1,263,357,265,-1,266,265,362,-1,362,265,357,-1,362,357,363,-1,363,357,356,-1,363,356,364,-1,364,356,365,-1,232,233,360,-1,360,233,235,-1,360,235,366,-1,354,365,355,-1,355,365,356,-1,355,356,367,-1,367,356,358,-1,367,358,361,-1,361,358,261,-1,361,261,260,-1,235,237,366,-1,366,237,239,-1,366,239,368,-1,351,353,352,-1,352,353,355,-1,352,355,369,-1,369,355,367,-1,369,367,370,-1,370,367,361,-1,370,361,371,-1,371,361,259,-1,371,259,258,-1,239,241,368,-1,368,241,243,-1,368,243,372,-1,371,373,370,-1,370,373,374,-1,370,374,369,-1,369,374,375,-1,369,375,352,-1,352,375,376,-1,352,376,350,-1,349,348,377,-1,256,253,359,-1,359,253,360,-1,359,360,378,-1,378,360,366,-1,378,366,379,-1,379,366,368,-1,379,368,380,-1,380,368,372,-1,380,372,381,-1,381,372,347,-1,381,347,230,-1,230,382,376,-1,376,382,383,-1,376,383,350,-1,373,384,374,-1,374,384,385,-1,374,385,375,-1,375,385,386,-1,375,386,376,-1,376,386,230,-1,384,377,385,-1,385,377,348,-1,385,348,386,-1,386,348,230,-1,243,245,372,-1,372,245,247,-1,372,247,347,-1,347,247,249,-1,347,249,231,-1,258,257,371,-1,371,257,359,-1,371,359,373,-1,373,359,378,-1,373,378,384,-1,384,378,379,-1,384,379,377,-1,377,379,380,-1,377,380,349,-1,349,380,381,-1,349,381,230,-1,387,388,160,-1,281,389,390,-1,387,160,391,-1,391,160,276,-1,391,276,392,-1,392,276,275,-1,392,275,393,-1,393,275,277,-1,393,277,390,-1,390,277,279,-1,390,279,281,-1,389,281,394,-1,394,281,283,-1,394,283,395,-1,395,283,284,-1,395,284,396,-1,396,284,286,-1,396,286,397,-1,397,286,287,-1,397,287,398,-1,398,287,148,-1,398,148,399,-1,400,310,311,-1,400,311,401,-1,401,311,402,-1,401,402,403,-1,310,400,309,-1,309,400,404,-1,309,404,308,-1,308,404,405,-1,308,405,307,-1,307,405,406,-1,307,406,306,-1,406,407,306,-1,306,407,408,-1,306,408,301,-1,301,408,409,-1,301,409,302,-1,302,409,410,-1,302,410,303,-1,303,410,411,-1,303,411,304,-1,304,411,305,-1,305,411,412,-1,412,411,413,-1,412,413,414,-1,415,252,312,-1,416,415,417,-1,417,415,312,-1,417,312,418,-1,418,312,346,-1,418,346,419,-1,419,346,345,-1,419,345,420,-1,420,345,344,-1,420,344,421,-1,421,344,331,-1,421,331,422,-1,422,331,330,-1,422,330,423,-1,423,330,326,-1,423,326,424,-1,424,326,325,-1,424,325,425,-1,425,325,321,-1,425,321,426,-1,426,321,319,-1,426,319,414,-1,414,319,217,-1,427,428,429,-1,430,266,431,-1,431,266,362,-1,431,362,432,-1,432,362,363,-1,432,363,433,-1,433,363,364,-1,433,364,434,-1,434,364,365,-1,434,365,435,-1,435,365,354,-1,435,354,436,-1,436,354,353,-1,436,353,437,-1,437,353,351,-1,437,351,438,-1,438,351,350,-1,438,350,439,-1,439,350,383,-1,439,383,429,-1,429,383,382,-1,429,382,427,-1,427,382,230,-1,440,430,399,-1,399,430,441,-1,442,443,444,-1,444,388,442,-1,442,388,387,-1,442,387,445,-1,445,387,391,-1,445,391,446,-1,446,391,392,-1,446,392,447,-1,447,392,393,-1,447,393,448,-1,448,393,390,-1,448,390,449,-1,449,390,389,-1,449,389,450,-1,450,389,394,-1,450,394,451,-1,451,394,395,-1,451,395,452,-1,452,395,396,-1,452,396,453,-1,453,396,397,-1,453,397,441,-1,441,397,398,-1,441,398,399,-1,454,416,455,-1,456,457,416,-1,419,420,458,-1,421,422,459,-1,460,461,462,-1,405,404,463,-1,400,401,464,-1,464,401,403,-1,465,408,407,-1,462,410,409,-1,410,462,411,-1,411,462,461,-1,411,461,413,-1,414,413,426,-1,426,413,461,-1,426,461,425,-1,425,461,460,-1,425,460,424,-1,424,460,423,-1,403,466,464,-1,464,466,467,-1,464,467,468,-1,422,423,459,-1,459,423,460,-1,459,460,469,-1,469,460,462,-1,469,462,465,-1,465,462,409,-1,465,409,408,-1,467,470,468,-1,468,470,471,-1,468,471,472,-1,420,421,458,-1,458,421,459,-1,458,459,473,-1,473,459,469,-1,473,469,474,-1,474,469,465,-1,474,465,475,-1,475,465,407,-1,475,407,406,-1,471,476,472,-1,472,476,477,-1,472,477,478,-1,475,479,474,-1,474,479,480,-1,474,480,473,-1,473,480,481,-1,473,481,458,-1,458,481,482,-1,458,482,419,-1,457,456,483,-1,404,400,463,-1,463,400,464,-1,463,464,484,-1,484,464,468,-1,484,468,485,-1,485,468,472,-1,485,472,486,-1,486,472,478,-1,486,478,487,-1,487,478,455,-1,487,455,416,-1,416,417,482,-1,482,417,418,-1,482,418,419,-1,479,488,480,-1,480,488,489,-1,480,489,481,-1,481,489,490,-1,481,490,482,-1,482,490,416,-1,488,483,489,-1,489,483,456,-1,489,456,490,-1,490,456,416,-1,477,491,478,-1,478,491,492,-1,478,492,455,-1,455,492,493,-1,455,493,454,-1,406,405,475,-1,475,405,463,-1,475,463,479,-1,479,463,484,-1,479,484,488,-1,488,484,485,-1,488,485,483,-1,483,485,486,-1,483,486,457,-1,457,486,487,-1,457,487,416,-1,429,428,494,-1,495,496,497,-1,498,499,500,-1,501,502,503,-1,450,451,504,-1,441,430,431,-1,452,453,505,-1,505,453,441,-1,442,445,502,-1,502,445,446,-1,502,446,503,-1,503,446,447,-1,503,447,448,-1,443,442,506,-1,506,442,502,-1,506,502,507,-1,507,502,501,-1,507,501,508,-1,508,501,509,-1,441,431,505,-1,505,431,432,-1,505,432,510,-1,499,509,500,-1,500,509,501,-1,500,501,511,-1,511,501,503,-1,511,503,512,-1,512,503,448,-1,512,448,449,-1,432,433,510,-1,510,433,434,-1,510,434,513,-1,496,498,497,-1,497,498,500,-1,497,500,514,-1,514,500,511,-1,514,511,515,-1,515,511,512,-1,434,435,513,-1,513,435,436,-1,513,436,516,-1,515,517,514,-1,514,517,518,-1,514,518,497,-1,497,518,519,-1,497,519,495,-1,451,452,504,-1,504,452,505,-1,504,505,520,-1,520,505,510,-1,520,510,521,-1,521,510,513,-1,521,513,522,-1,522,513,516,-1,522,516,523,-1,523,516,494,-1,523,494,428,-1,428,524,519,-1,519,524,525,-1,519,525,495,-1,517,526,518,-1,518,526,527,-1,518,527,519,-1,519,527,428,-1,526,528,527,-1,527,528,428,-1,436,437,516,-1,516,437,438,-1,516,438,494,-1,494,438,439,-1,494,439,429,-1,449,450,512,-1,512,450,504,-1,512,504,515,-1,515,504,520,-1,515,520,517,-1,517,520,521,-1,517,521,526,-1,526,521,522,-1,526,522,528,-1,528,522,523,-1,528,523,428,-1,529,416,454,-1,428,529,524,-1,524,529,454,-1,524,454,525,-1,525,454,493,-1,525,493,495,-1,495,493,492,-1,495,492,496,-1,496,492,491,-1,496,491,498,-1,498,491,477,-1,498,477,499,-1,499,477,476,-1,499,476,509,-1,509,476,471,-1,509,471,508,-1,508,471,470,-1,508,470,507,-1,507,470,467,-1,507,467,506,-1,506,467,466,-1,506,466,443,-1,443,466,403,-1,
        ]
    }
}
Shape{
    appearance Appearance {
        material  Material 	{
            diffuseColor 0.8313725490196079 0.8313725490196079 0.8196078431372549
            specularColor 0.6666666666666666 0.6666666666666666 0.6549019607843137
            ambientIntensity 0.83
            transparency 0.0
            shininess 0.5
        }
    }
    geometry IndexedFaceSet {
        ccw TRUE
        solid FALSE
        coord DEF co Coordinate {
            point [
                0.1968 -0.2559 0.4291, 0.1968 -0.2559 0.4331, 0.1948 -0.2406 0.4291, 0.1948 -0.2406 0.4331, 0.1889 -0.2264 0.4291, 0.1889 -0.2264 0.4331, 0.1795 -0.2141 0.4291, 0.1795 -0.2141 0.4331, 0.1673 -0.2047 0.4291, 0.1673 -0.2047 0.4331, 0.153 -0.1988 0.4291, 0.153 -0.1988 0.4331, 0.1377 -0.1968 0.4291, 0.1377 -0.1968 0.4331, 0.1225 -0.1988 0.4291, 0.1225 -0.1988 0.4331, 0.1082 -0.2047 0.4291, 0.1082 -0.2047 0.4331, 0.096 -0.2141 0.4291, 0.096 -0.2141 0.4331, 0.0866 -0.2264 0.4291, 0.0866 -0.2264 0.4331, 0.0807 -0.2406 0.4291, 0.0807 -0.2406 0.4331, 0.0787 -0.2559 0.4291, 0.0787 -0.2559 0.4331, 0.0807 -0.2712 0.4291, 0.0807 -0.2712 0.4331, 0.0866 -0.2854 0.4291, 0.0866 -0.2854 0.4331, 0.096 -0.2976 0.4291, 0.096 -0.2976 0.4331, 0.1082 -0.307 0.4291, 0.1082 -0.307 0.4331, 0.1225 -0.3129 0.4291, 0.1225 -0.3129 0.4331, 0.1377 -0.3149 0.4291, 0.1377 -0.3149 0.4331, 0.153 -0.3129 0.4291, 0.153 -0.3129 0.4331, 0.1673 -0.307 0.4291, 0.1673 -0.307 0.4331, 0.1795 -0.2976 0.4291, 0.1795 -0.2976 0.4331, 0.1889 -0.2854 0.4291, 0.1889 -0.2854 0.4331, 0.1948 -0.2712 0.4291, 0.1948 -0.2712 0.4331, 0.1377 -0.2559 0.4291, 0.0698 -0.022 0.0394, 0.0698 -0.022 0.0433, 0.0698 0.0174 0.0394, 0.0698 0.0174 0.0433, 0.0496 -0.022 0.0394, 0.0496 -0.022 0.0433, 0.0496 -0.0177 0.0394, 0.0496 -0.0177 0.0433, 0.0645 -0.0177 0.0394, 0.0645 -0.0177 0.0433, 0.0645 0.0174 0.0394, 0.0645 0.0174 0.0433, 0.0262 0.0135 0.0433, 0.0262 0.0135 0.0394, 0.0214 0.0129 0.0394, 0.0214 0.0129 0.0433, 0.017 0.011 0.0394, 0.017 0.011 0.0433, 0.017 0.0163 0.0394, 0.017 0.0163 0.0433, 0.0215 0.0175 0.0394, 0.0215 0.0175 0.0433, 0.0262 0.0178 0.0394, 0.0262 0.0178 0.0433, 0.0325 0.0165 0.0394, 0.0325 0.0165 0.0433, 0.0364 0.0151 0.0394, 0.0364 0.0151 0.0433, 0.0391 0.0135 0.0394, 0.0391 0.0135 0.0433, 0.041 0.0115 0.0394, 0.041 0.0115 0.0433, 0.043 0.0082 0.0394, 0.043 0.0082 0.0433, 0.0458 -0.0008 0.0394, 0.0458 -0.0008 0.0433, 0.0463 -0.0031 0.0394, 0.0463 -0.0031 0.0433, 0.0278 -0.0225 0.0394, 0.0278 -0.0225 0.0433, 0.0287 -0.0223 0.0394, 0.0309 -0.0217 0.0433, 0.0309 -0.0217 0.0394, 0.0384 -0.019 0.0433, 0.0384 -0.019 0.0394, 0.0412 -0.017 0.0433, 0.0412 -0.017 0.0394, 0.0429 -0.0151 0.0433, 0.0429 -0.0151 0.0394, 0.0442 -0.0126 0.0433, 0.0442 -0.0126 0.0394, 0.0453 -0.0089 0.0433, 0.0453 -0.0089 0.0394, 0.017 -0.02 0.0394, 0.017 -0.02 0.0433, 0.0222 -0.0219 0.0433, 0.0254 -0.0223 0.0394, 0.0222 -0.0219 0.0394, 0.017 -0.0157 0.0394, 0.017 -0.0157 0.0433, 0.0219 -0.0176 0.0394, 0.0219 -0.0176 0.0433, 0.0271 -0.0182 0.0394, 0.0271 -0.0182 0.0433, 0.0315 -0.0172 0.0394, 0.0315 -0.0172 0.0433, 0.0343 -0.0161 0.0394, 0.0343 -0.0161 0.0433, 0.0361 -0.015 0.0394, 0.0361 -0.015 0.0433, 0.0373 -0.0138 0.0394, 0.0373 -0.0138 0.0433, 0.0387 -0.0117 0.0394, 0.0387 -0.0117 0.0433, 0.0401 -0.0075 0.0394, 0.0401 -0.0075 0.0433, 0.041 -0.0028 0.0394, 0.041 -0.0028 0.0433, 0.0403 0.0021 0.0394, 0.0403 0.0021 0.0433, 0.0394 0.0051 0.0394, 0.0394 0.0051 0.0433, 0.0384 0.0072 0.0394, 0.0384 0.0072 0.0433, 0.037 0.0088 0.0394, 0.037 0.0088 0.0433, 0.0346 0.0105 0.0394, 0.0346 0.0105 0.0433, 0.0282 0.013 0.0394, 0.0282 0.013 0.0433, -0.0099 0.0001 0.0394, -0.0099 0.0001 0.0433, -0.0099 -0.0043 0.0394, -0.0099 -0.0043 0.0433, 0.004 0.0001 0.0394, 0.004 0.0001 0.0433, 0.004 0.013 0.0394, 0.004 0.013 0.0433, -0.0109 0.013 0.0394, -0.0109 0.013 0.0433, -0.0109 0.0174 0.0394, -0.0109 0.0174 0.0433, 0.0093 0.0174 0.0394, 0.0093 0.0174 0.0433, 0.0093 -0.022 0.0394, 0.0093 -0.022 0.0433, -0.0118 -0.022 0.0394, -0.0118 -0.022 0.0433, -0.0118 -0.0177 0.0394, -0.0118 -0.0177 0.0433, 0.004 -0.0177 0.0394, 0.004 -0.0177 0.0433, 0.004 -0.0043 0.0394, 0.004 -0.0043 0.0433, -0.0636 -0.011 0.0394, -0.0636 -0.011 0.0433, -0.0598 -0.022 0.0394, -0.0598 -0.022 0.0433, -0.0799 -0.011 0.0394, -0.0799 -0.011 0.0433, -0.0838 -0.022 0.0394, -0.0838 -0.022 0.0433, -0.0896 -0.022 0.0394, -0.0896 -0.022 0.0433, -0.0742 0.0174 0.0394, -0.0742 0.0174 0.0433, -0.069 0.0174 0.0394, -0.069 0.0174 0.0433, -0.0541 -0.022 0.0394, -0.0541 -0.022 0.0433, -0.0781 -0.0067 0.0433, -0.0649 -0.0067 0.0433, -0.0708 0.0098 0.0433, -0.075 0.0018 0.0433, -0.0781 -0.0067 0.0394, -0.0649 -0.0067 0.0394, -0.0708 0.0098 0.0394, -0.075 0.0018 0.0394, -0.0446 0.0034 0.0433, -0.0459 -0.002 0.0433, -0.0512 -0.0018 0.0433, -0.0506 -0.0042 0.0433, -0.0452 -0.0067 0.0433, -0.0475 -0.013 0.0433, -0.0443 -0.0097 0.0433, -0.0433 -0.0118 0.0433, -0.0454 -0.0163 0.0433, -0.042 -0.0133 0.0433, -0.0433 -0.0182 0.0433, -0.0399 -0.0147 0.0433, -0.0406 -0.0197 0.0433, -0.0359 -0.0164 0.0433, -0.0498 0.0042 0.0433, -0.0485 0.008 0.0433, -0.043 0.0073 0.0433, -0.0469 0.0105 0.0433, -0.0416 0.0093 0.0433, -0.045 0.0124 0.0433, -0.0401 0.0105 0.0433, -0.0418 0.0143 0.0433, -0.0381 0.0115 0.0433, -0.0352 0.0123 0.0433, -0.0333 0.0168 0.0433, -0.0306 0.013 0.0433, -0.0306 0.0174 0.0433, -0.0248 0.013 0.0433, -0.0195 0.0174 0.0433, -0.0248 -0.0177 0.0433, -0.0195 -0.022 0.0433, -0.0304 -0.0177 0.0433, -0.0302 -0.022 0.0433, -0.0366 -0.0209 0.0433, -0.0195 -0.022 0.0394, -0.0195 0.0174 0.0394, -0.0302 -0.022 0.0394, -0.0366 -0.0209 0.0394, -0.0406 -0.0197 0.0394, -0.0433 -0.0182 0.0394, -0.0454 -0.0163 0.0394, -0.0475 -0.013 0.0394, -0.0506 -0.0042 0.0394, -0.0512 -0.0018 0.0394, -0.0498 0.0042 0.0394, -0.0485 0.008 0.0394, -0.0469 0.0105 0.0394, -0.045 0.0124 0.0394, -0.0418 0.0143 0.0394, -0.0333 0.0168 0.0394, -0.0306 0.0174 0.0394, -0.0306 0.013 0.0394, -0.0352 0.0123 0.0394, -0.0381 0.0115 0.0394, -0.0401 0.0105 0.0394, -0.0416 0.0093 0.0394, -0.043 0.0073 0.0394, -0.0446 0.0034 0.0394, -0.0459 -0.002 0.0394, -0.0248 0.013 0.0394, -0.0248 -0.0177 0.0394, -0.0304 -0.0177 0.0394, -0.0452 -0.0067 0.0394, -0.0443 -0.0097 0.0394, -0.0433 -0.0118 0.0394, -0.042 -0.0133 0.0394, -0.0399 -0.0147 0.0394, -0.0359 -0.0164 0.0394
            ]
        }
        coordIndex [
            0,1,2,-1,2,1,3,-1,2,3,4,-1,4,3,5,-1,4,5,6,-1,6,5,7,-1,6,7,8,-1,8,7,9,-1,8,9,10,-1,10,9,11,-1,10,11,12,-1,12,11,13,-1,12,13,14,-1,14,13,15,-1,14,15,16,-1,16,15,17,-1,16,17,18,-1,18,17,19,-1,18,19,20,-1,20,19,21,-1,20,21,22,-1,22,21,23,-1,22,23,24,-1,24,23,25,-1,24,25,26,-1,26,25,27,-1,26,27,28,-1,28,27,29,-1,28,29,30,-1,30,29,31,-1,30,31,32,-1,32,31,33,-1,32,33,34,-1,34,33,35,-1,34,35,36,-1,36,35,37,-1,36,37,38,-1,38,37,39,-1,38,39,40,-1,40,39,41,-1,40,41,42,-1,42,41,43,-1,42,43,44,-1,44,43,45,-1,44,45,46,-1,46,45,47,-1,46,47,0,-1,0,47,1,-1,44,46,48,-1,48,46,0,-1,48,0,2,-1,38,40,48,-1,48,40,42,-1,48,42,44,-1,32,34,48,-1,48,34,36,-1,48,36,38,-1,26,28,48,-1,48,28,30,-1,48,30,32,-1,20,22,48,-1,48,22,24,-1,48,24,26,-1,14,16,48,-1,48,16,18,-1,48,18,20,-1,8,10,48,-1,48,10,12,-1,48,12,14,-1,2,4,48,-1,48,4,6,-1,48,6,8,-1,49,50,51,-1,51,50,52,-1,53,54,49,-1,49,54,50,-1,55,56,53,-1,53,56,54,-1,57,58,55,-1,55,58,56,-1,59,60,57,-1,57,60,58,-1,59,51,60,-1,60,51,52,-1,60,52,58,-1,58,52,50,-1,58,50,56,-1,56,50,54,-1,61,62,63,-1,61,63,64,-1,64,63,65,-1,64,65,66,-1,67,68,65,-1,65,68,66,-1,68,67,69,-1,68,69,70,-1,70,69,71,-1,70,71,72,-1,72,71,73,-1,72,73,74,-1,74,73,75,-1,74,75,76,-1,76,75,77,-1,76,77,78,-1,78,77,79,-1,78,79,80,-1,80,79,81,-1,80,81,82,-1,82,81,83,-1,82,83,84,-1,84,83,85,-1,84,85,86,-1,87,88,89,-1,89,88,90,-1,89,90,91,-1,91,90,92,-1,91,92,93,-1,93,92,94,-1,93,94,95,-1,95,94,96,-1,95,96,97,-1,97,96,98,-1,97,98,99,-1,99,98,100,-1,99,100,101,-1,101,100,86,-1,101,86,85,-1,102,103,104,-1,88,87,105,-1,88,105,104,-1,104,105,106,-1,104,106,102,-1,107,108,102,-1,102,108,103,-1,108,107,109,-1,108,109,110,-1,110,109,111,-1,110,111,112,-1,112,111,113,-1,112,113,114,-1,114,113,115,-1,114,115,116,-1,116,115,117,-1,116,117,118,-1,118,117,119,-1,118,119,120,-1,120,119,121,-1,120,121,122,-1,122,121,123,-1,122,123,124,-1,124,123,125,-1,124,125,126,-1,126,125,127,-1,126,127,128,-1,128,127,129,-1,128,129,130,-1,130,129,131,-1,130,131,132,-1,132,131,133,-1,132,133,134,-1,134,133,135,-1,134,135,136,-1,136,135,137,-1,136,137,138,-1,138,137,62,-1,138,62,61,-1,66,68,64,-1,64,68,70,-1,64,70,61,-1,61,70,72,-1,61,72,138,-1,138,72,74,-1,138,74,136,-1,124,98,122,-1,122,98,96,-1,122,96,120,-1,120,96,94,-1,120,94,118,-1,118,94,92,-1,74,76,136,-1,136,76,78,-1,136,78,134,-1,134,78,80,-1,134,80,132,-1,132,80,82,-1,132,82,130,-1,103,108,104,-1,104,108,110,-1,104,110,88,-1,88,110,112,-1,88,112,90,-1,90,112,114,-1,90,114,92,-1,92,114,116,-1,92,116,118,-1,130,82,128,-1,128,82,84,-1,128,84,126,-1,126,84,86,-1,126,86,124,-1,124,86,100,-1,124,100,98,-1,139,140,141,-1,141,140,142,-1,143,144,139,-1,139,144,140,-1,145,146,143,-1,143,146,144,-1,147,148,145,-1,145,148,146,-1,149,150,147,-1,147,150,148,-1,151,152,149,-1,149,152,150,-1,153,154,151,-1,151,154,152,-1,155,156,153,-1,153,156,154,-1,157,158,155,-1,155,158,156,-1,159,160,157,-1,157,160,158,-1,161,162,159,-1,159,162,160,-1,161,141,162,-1,162,141,142,-1,156,158,154,-1,154,158,160,-1,142,140,162,-1,162,140,144,-1,148,150,146,-1,146,150,152,-1,146,152,144,-1,144,152,154,-1,144,154,162,-1,162,154,160,-1,163,164,165,-1,165,164,166,-1,167,168,163,-1,163,168,164,-1,169,170,167,-1,167,170,168,-1,171,172,169,-1,169,172,170,-1,173,174,171,-1,171,174,172,-1,175,176,173,-1,173,176,174,-1,177,178,175,-1,175,178,176,-1,177,165,178,-1,178,165,166,-1,179,172,174,-1,180,181,176,-1,176,181,174,-1,174,181,182,-1,174,182,179,-1,178,166,164,-1,170,172,168,-1,168,172,179,-1,168,179,164,-1,164,179,180,-1,164,180,178,-1,178,180,176,-1,179,183,180,-1,180,183,184,-1,181,185,186,-1,181,186,182,-1,182,186,183,-1,182,183,179,-1,184,185,180,-1,180,185,181,-1,187,188,189,-1,189,188,190,-1,190,188,191,-1,190,191,192,-1,191,193,192,-1,192,193,194,-1,192,194,195,-1,195,194,196,-1,195,196,197,-1,197,196,198,-1,197,198,199,-1,199,198,200,-1,189,201,187,-1,187,201,202,-1,187,202,203,-1,203,202,204,-1,203,204,205,-1,205,204,206,-1,205,206,207,-1,207,206,208,-1,207,208,209,-1,209,208,210,-1,210,208,211,-1,210,211,212,-1,212,211,213,-1,212,213,214,-1,214,213,215,-1,214,215,216,-1,216,215,217,-1,216,217,218,-1,218,217,219,-1,218,219,200,-1,200,219,220,-1,200,220,199,-1,221,217,222,-1,222,217,215,-1,223,219,221,-1,221,219,217,-1,219,223,224,-1,219,224,220,-1,220,224,225,-1,220,225,199,-1,199,225,226,-1,199,226,197,-1,197,226,227,-1,197,227,195,-1,195,227,228,-1,195,228,192,-1,192,228,229,-1,192,229,190,-1,190,229,230,-1,190,230,189,-1,189,230,231,-1,189,231,201,-1,201,231,232,-1,201,232,202,-1,202,232,233,-1,202,233,204,-1,204,233,234,-1,204,234,206,-1,206,234,235,-1,206,235,208,-1,208,235,236,-1,208,236,211,-1,211,236,237,-1,211,237,213,-1,237,222,213,-1,213,222,215,-1,212,238,239,-1,212,239,210,-1,210,239,240,-1,210,240,209,-1,209,240,241,-1,209,241,207,-1,207,241,242,-1,207,242,205,-1,205,242,243,-1,205,243,203,-1,203,243,244,-1,203,244,187,-1,187,244,245,-1,187,245,188,-1,214,246,212,-1,212,246,238,-1,216,247,214,-1,214,247,246,-1,218,248,216,-1,216,248,247,-1,188,245,249,-1,188,249,191,-1,191,249,250,-1,191,250,193,-1,193,250,251,-1,193,251,194,-1,194,251,252,-1,194,252,196,-1,196,252,253,-1,196,253,198,-1,198,253,254,-1,198,254,200,-1,200,254,248,-1,200,248,218,-1,
        ]
    }
}
Shape{
    appearance Appearance {
        material  Material 	{
            diffuseColor 0.20784313725490197 0.20784313725490197 0.20784313725490197
            specularColor 0.01568627450980392 0.01568627450980392 0.01568627450980392
            ambientIntensity 0.298
            transparency 0.0
            shininess 0.5
        }
    }
    geometry IndexedFaceSet {
        ccw TRUE
        solid FALSE
        coord DEF co Coordinate {
            point [
                -0.0708 0.0098 0.0394, -0.0649 -0.0067 0.0394, -0.075 0.0018 0.0394, -0.0781 -0.0067 0.0394, -0.0306 0.013 0.0394, -0.0248 0.013 0.0394, -0.0452 -0.0067 0.0394, -0.0443 -0.0097 0.0394, -0.0381 0.0115 0.0394, -0.0352 0.0123 0.0394, -0.0446 0.0034 0.0394, -0.0459 -0.002 0.0394, -0.0248 -0.0177 0.0394, -0.0304 -0.0177 0.0394, -0.0359 -0.0164 0.0394, -0.0399 -0.0147 0.0394, -0.042 -0.0133 0.0394, -0.0433 -0.0118 0.0394, -0.0401 0.0105 0.0394, -0.043 0.0073 0.0394, -0.0416 0.0093 0.0394
            ]
        }
        coordIndex [
            0,1,2,-1,2,1,3,-1,4,5,6,-1,6,5,7,-1,8,9,10,-1,4,6,9,-1,9,6,11,-1,9,11,10,-1,12,13,5,-1,5,13,14,-1,5,14,15,-1,15,16,5,-1,5,16,17,-1,5,17,7,-1,8,10,18,-1,18,10,19,-1,18,19,20,-1,
        ]
    }
}