#VRML V2.0 utf8
# 3D model generated by easyeda2kicad.py (https://github.com/uPesy/easyeda2kicad.py)

Shape{
    appearance Appearance {
        material  Material 	{
            diffuseColor 0.25098039215686274 0.25098039215686274 0.25098039215686274
            specularColor 0.12549019607843137 0.12549019607843137 0.12549019607843137
            ambientIntensity 0.251
            transparency 0.0
            shininess 0.5
        }
    }
    geometry IndexedFaceSet {
        ccw TRUE
        solid FALSE
        coord DEF co Coordinate {
            point [
                -0.015 -0.0144 0.0197, -0.015 -0.0187 0.0197, -0.0188 -0.0189 0.0197, 0.0061 -0.0187 0.0197, -0.014 0.0164 0.0197, 0.0008 0.0164 0.0197, 0.0008 0.0034 0.0197, 0.0138 -0.0167 0.0197, 0.0138 -0.0123 0.0197, 0.0061 0.0207 0.0197, 0.0008 -0.0009 0.0197, 0.0008 -0.0144 0.0197, -0.0131 -0.0009 0.0197, -0.0131 0.0034 0.0197, 0.0333 -0.0174 0.0197, 0.0464 -0.0187 0.0197, 0.0295 -0.0187 0.0197, 0.0269 -0.0189 0.0197, -0.014 0.0207 0.0197, -0.0188 0.2272 0.0197, 0.041 0.0103 0.0197, 0.0387 0.014 0.0197, 0.0613 0.0207 0.0197, 0.0269 0.0164 0.0197, 0.0298 0.0153 0.0197, 0.0145 -0.0127 0.0197, 0.0326 0.0135 0.0197, 0.0349 0.0109 0.0197, 0.0378 0.0006 0.0197, 0.0374 -0.0037 0.0197, 0.0363 -0.0071 0.0197, 0.0276 -0.0144 0.0197, 0.0239 -0.0149 0.0197, 0.0304 -0.0134 0.0197, 0.0329 -0.0118 0.0197, 0.0347 -0.0098 0.0197, 0.0187 -0.0143 0.0197, 0.0366 0.0078 0.0197, 0.0376 0.0036 0.0197, 0.0351 0.0174 0.0197, 0.0666 0.0207 0.0197, 0.5422 0.2272 0.0197, 0.0666 -0.0187 0.0197, 0.5422 -0.0189 0.0197, 0.0365 -0.0153 0.0197, 0.0394 -0.0122 0.0197, 0.0464 -0.0144 0.0197, 0.0415 -0.0085 0.0197, 0.0613 -0.0144 0.0197, 0.0427 -0.0043 0.0197, 0.0431 0.0002 0.0197, 0.0425 0.0058 0.0197, 0.0314 0.0196 0.0197, 0.027 0.0208 0.0197, 0.0231 0.0212 0.0197, 0.0184 0.0208 0.0197, 0.0138 0.0196 0.0197, 0.0138 0.0143 0.0197, 0.0182 0.0162 0.0197, 0.023 0.0168 0.0197, 0.0246 -0.0192 0.0197, 0.5422 -0.2272 0.0197, 0.0236 -0.0192 0.0197, -0.0188 -0.2272 0.0197, 0.022 -0.0189 0.0197, -0.5422 -0.2272 0.0197, -0.5422 -0.0189 0.0197, 0.018 -0.0184 0.0197, -0.063 -0.0187 0.0197, -0.0573 -0.0187 0.0197, -0.0524 -0.0079 0.0197, -0.0502 -0.0114 0.0197, -0.0469 -0.0145 0.0197, -0.0428 -0.0169 0.0197, -0.0721 0.0207 0.0197, -0.5422 0.2272 0.0197, -0.0774 0.0207 0.0197, -0.0928 -0.0187 0.0197, -0.087 -0.0187 0.0197, -0.083 -0.0076 0.0197, -0.0668 -0.0076 0.0197, -0.0227 0.0207 0.0197, -0.0338 0.0207 0.0197, -0.0484 0.0155 0.0197, -0.0512 0.0125 0.0197, -0.053 0.0091 0.0197, -0.0395 0.0201 0.0197, -0.0441 0.0185 0.0197, -0.0484 0.0156 0.0197, -0.0383 -0.0183 0.0197, -0.0334 -0.0187 0.0197, -0.0227 -0.0187 0.0197, -0.0541 0.0052 0.0197, -0.0544 0.0015 0.0197, -0.0538 -0.0038 0.0197, -0.536 -0.2407 0.3852, -0.5512 -0.2559 0.1673, -0.439 -0.2559 0.1673, -0.439 -0.2529 0.2106, -0.2815 -0.2529 0.2106, 0.536 -0.2407 0.3852, 0.439 -0.2559 0.1673, 0.5512 -0.2559 0.1673, 0.439 -0.2529 0.2106, 0.2815 -0.2529 0.2106, 0.2815 -0.2559 0.1673, -0.2815 -0.2559 0.1673, 0.5618 -0.2272 0.038, 0.5618 0.2272 0.038, 0.5709 -0.2363 0.1673, 0.5709 0.2363 0.1673, -0.5422 -0.2469 0.038, 0.5422 -0.2469 0.038, -0.5618 0.2272 0.038, -0.5618 -0.2272 0.038, -0.5709 0.2363 0.1673, -0.5709 -0.2363 0.1673, 0.0787 0.2559 0.1673, 0.5512 0.2559 0.1673, 0.5422 0.2469 0.038, -0.0787 0.2559 0.1673, -0.5422 0.2469 0.038, -0.5512 0.2559 0.1673, 0.5556 -0.221 0.3852, 0.5556 0.221 0.3852, -0.0787 0.2529 0.2106, -0.536 0.2407 0.3852, 0.0787 0.2529 0.2106, 0.536 0.2407 0.3852, -0.5556 0.221 0.3852, -0.5556 -0.221 0.3852, -0.3351 -0.1265 0.4035, -0.3415 -0.1418 0.4035, 0.536 -0.221 0.4035, -0.3516 -0.155 0.4035, -0.3647 -0.1651 0.4035, -0.38 -0.1714 0.4035, -0.536 -0.221 0.4035, -0.3965 -0.1736 0.4035, -0.4129 -0.1714 0.4035, -0.4282 -0.1651 0.4035, -0.4413 -0.155 0.4035, -0.4514 -0.1418 0.4035, -0.3516 -0.0652 0.4035, -0.3415 -0.0784 0.4035, 0.536 0.221 0.4035, -0.3351 -0.0937 0.4035, -0.333 -0.1101 0.4035, -0.4578 -0.0937 0.4035, -0.536 0.221 0.4035, -0.4599 -0.1101 0.4035, -0.4578 -0.1265 0.4035, -0.4514 -0.0784 0.4035, -0.4413 -0.0652 0.4035, -0.4282 -0.0551 0.4035, -0.38 -0.0488 0.4035, -0.3647 -0.0551 0.4035, -0.4129 -0.0488 0.4035, -0.3965 -0.0466 0.4035
            ]
        }
        coordIndex [
            0,1,2,-1,2,1,3,-1,4,5,6,-1,7,3,8,-1,8,3,9,-1,10,11,12,-1,12,11,0,-1,12,0,13,-1,14,15,16,-1,16,15,17,-1,6,13,4,-1,4,13,0,-1,4,0,18,-1,18,0,19,-1,18,19,9,-1,20,21,22,-1,23,24,25,-1,25,24,26,-1,25,26,27,-1,28,29,25,-1,25,29,30,-1,31,32,33,-1,33,32,34,-1,30,35,25,-1,25,35,34,-1,25,34,36,-1,36,34,32,-1,27,37,25,-1,25,37,38,-1,25,38,28,-1,21,39,22,-1,22,39,19,-1,22,19,40,-1,40,19,41,-1,40,41,42,-1,42,41,43,-1,14,44,15,-1,15,44,45,-1,15,45,46,-1,46,45,47,-1,46,47,48,-1,47,49,48,-1,48,49,50,-1,48,50,22,-1,22,50,51,-1,22,51,20,-1,39,52,19,-1,19,52,53,-1,19,53,54,-1,54,55,19,-1,19,55,56,-1,19,56,9,-1,9,56,57,-1,9,57,8,-1,8,57,58,-1,8,58,25,-1,25,58,59,-1,25,59,23,-1,15,42,17,-1,17,42,43,-1,17,43,60,-1,60,43,61,-1,60,61,62,-1,62,61,63,-1,62,63,64,-1,65,66,63,-1,63,66,2,-1,63,2,64,-1,64,2,3,-1,64,3,67,-1,67,3,7,-1,68,69,2,-1,70,71,69,-1,69,71,72,-1,69,72,73,-1,19,74,75,-1,75,74,76,-1,75,76,66,-1,66,76,77,-1,66,77,2,-1,2,77,78,-1,2,78,68,-1,68,78,79,-1,68,79,80,-1,0,2,19,-1,19,2,81,-1,19,81,82,-1,83,84,74,-1,74,84,85,-1,82,86,19,-1,19,86,87,-1,19,87,74,-1,74,87,88,-1,74,88,83,-1,73,89,69,-1,69,89,90,-1,69,90,2,-1,2,90,91,-1,2,91,81,-1,85,92,74,-1,74,92,93,-1,74,93,69,-1,69,93,94,-1,69,94,70,-1,95,96,97,-1,97,98,95,-1,95,98,99,-1,95,99,100,-1,101,102,103,-1,103,102,100,-1,103,100,104,-1,104,100,99,-1,104,99,105,-1,105,99,106,-1,107,108,109,-1,109,108,110,-1,97,96,111,-1,102,101,112,-1,112,101,105,-1,112,105,111,-1,111,105,106,-1,111,106,97,-1,113,114,115,-1,115,114,116,-1,117,118,119,-1,117,119,120,-1,120,119,121,-1,120,121,122,-1,109,110,123,-1,123,110,124,-1,120,122,125,-1,125,122,126,-1,125,126,127,-1,127,126,128,-1,127,128,117,-1,117,128,118,-1,115,116,129,-1,129,116,130,-1,131,132,133,-1,133,132,134,-1,134,135,133,-1,133,135,136,-1,133,136,137,-1,137,136,138,-1,137,138,139,-1,139,140,137,-1,137,140,141,-1,137,141,142,-1,143,144,145,-1,145,144,146,-1,145,146,133,-1,133,146,147,-1,133,147,131,-1,148,149,150,-1,150,149,137,-1,150,137,151,-1,151,137,142,-1,148,152,149,-1,149,152,153,-1,149,153,154,-1,149,155,145,-1,145,155,156,-1,145,156,143,-1,154,157,149,-1,149,157,158,-1,149,158,155,-1,
        ]
    }
}
Shape{
    appearance Appearance {
        material  Material 	{
            diffuseColor 1.0 1.0 1.0
            specularColor 0.5019607843137255 0.5019607843137255 0.5019607843137255
            ambientIntensity 1.0
            transparency 0.0
            shininess 0.5
        }
    }
    geometry IndexedFaceSet {
        ccw TRUE
        solid FALSE
        coord DEF co Coordinate {
            point [
                0.0787 0.2914 0.2106, -0.0787 0.2914 0.2106, 0.0787 0.2529 0.2106, -0.0787 0.2529 0.2106, -0.0787 0.2559 0.1673, -0.0787 0.2914 0.1673, 0.0787 0.2559 0.1673, 0.0787 0.2914 0.1673, 0.0787 0.3072 0.2086, 0.0787 0.2964 0.1667, 0.0787 0.322 0.2027, 0.0787 0.301 0.1649, 0.0787 0.3348 0.1933, 0.0787 0.305 0.1619, 0.0787 0.3448 0.181, 0.0787 0.3081 0.1581, 0.0787 0.3515 0.1666, 0.0787 0.3102 0.1536, 0.0787 0.3543 0.1509, 0.0787 0.3111 0.1487, 0.0787 0.3582 0.0769, 0.0787 0.315 0.0746, 0.0787 0.3598 0.0681, 0.0787 0.3185 0.0551, 0.0787 0.3635 0.06, 0.0787 0.3268 0.037, 0.0787 0.3692 0.053, 0.0787 0.3394 0.0216, 0.0787 0.3764 0.0477, 0.0787 0.3554 0.0099, 0.0787 0.3847 0.0444, 0.0787 0.3739 0.0025, 0.0787 0.3936 0.0433, 0.0787 0.3936 0.0, 0.0787 0.4724 0.0433, 0.0787 0.4724 0.0, -0.0787 0.4724 0.0433, -0.0787 0.4724 0.0, -0.0787 0.3936 0.0433, -0.0787 0.3936 0.0, -0.0787 0.3847 0.0444, -0.0787 0.3739 0.0025, -0.0787 0.3764 0.0477, -0.0787 0.3554 0.0099, -0.0787 0.3692 0.053, -0.0787 0.3394 0.0216, -0.0787 0.3635 0.06, -0.0787 0.3268 0.037, -0.0787 0.3598 0.0681, -0.0787 0.3185 0.0551, -0.0787 0.3582 0.0769, -0.0787 0.315 0.0746, -0.0787 0.3543 0.1509, -0.0787 0.3111 0.1487, -0.0787 0.3515 0.1666, -0.0787 0.3102 0.1536, -0.0787 0.3448 0.181, -0.0787 0.3081 0.1581, -0.0787 0.3348 0.1933, -0.0787 0.305 0.1619, -0.0787 0.322 0.2027, -0.0787 0.301 0.1649, -0.0787 0.3072 0.2086, -0.0787 0.2964 0.1667, 0.439 -0.3111 0.1487, 0.2815 -0.3111 0.1487, 0.439 -0.3102 0.1536, 0.2815 -0.3102 0.1536, 0.439 -0.3081 0.1581, 0.2815 -0.3081 0.1581, 0.439 -0.305 0.1619, 0.2815 -0.305 0.1619, 0.439 -0.301 0.1649, 0.2815 -0.301 0.1649, 0.439 -0.2964 0.1667, 0.2815 -0.2964 0.1667, 0.439 -0.2914 0.1673, 0.2815 -0.2914 0.1673, 0.439 -0.2559 0.1673, 0.2815 -0.2559 0.1673, 0.439 -0.2914 0.2106, 0.439 -0.2529 0.2106, 0.2815 -0.2914 0.2106, 0.2815 -0.2529 0.2106, 0.2815 -0.3072 0.2086, 0.439 -0.3072 0.2086, 0.2815 -0.322 0.2027, 0.439 -0.322 0.2027, 0.2815 -0.3348 0.1933, 0.439 -0.3348 0.1933, 0.2815 -0.3448 0.181, 0.439 -0.3448 0.181, 0.2815 -0.3515 0.1666, 0.439 -0.3515 0.1666, 0.2815 -0.3543 0.1509, 0.439 -0.3543 0.1509, 0.439 -0.3582 0.0769, 0.2815 -0.3582 0.0769, 0.439 -0.3598 0.0681, 0.2815 -0.3598 0.0681, 0.439 -0.3635 0.06, 0.2815 -0.3635 0.06, 0.439 -0.3692 0.053, 0.2815 -0.3692 0.053, 0.439 -0.3764 0.0477, 0.2815 -0.3764 0.0477, 0.439 -0.3847 0.0444, 0.2815 -0.3847 0.0444, 0.439 -0.3936 0.0433, 0.2815 -0.3936 0.0433, 0.439 -0.4724 0.0433, 0.2815 -0.4724 0.0433, 0.439 -0.4724 0.0, 0.2815 -0.4724 0.0, 0.439 -0.3936 0.0, 0.2815 -0.3936 0.0, 0.2815 -0.3739 0.0025, 0.439 -0.3739 0.0025, 0.2815 -0.3554 0.0099, 0.439 -0.3554 0.0099, 0.2815 -0.3394 0.0216, 0.439 -0.3394 0.0216, 0.2815 -0.3268 0.037, 0.439 -0.3268 0.037, 0.2815 -0.3185 0.0551, 0.439 -0.3185 0.0551, 0.2815 -0.315 0.0746, 0.439 -0.315 0.0746, -0.439 -0.2914 0.1673, -0.2815 -0.2914 0.1673, -0.439 -0.2964 0.1667, -0.2815 -0.2964 0.1667, -0.439 -0.301 0.1649, -0.2815 -0.301 0.1649, -0.439 -0.305 0.1619, -0.2815 -0.305 0.1619, -0.439 -0.3081 0.1581, -0.2815 -0.3081 0.1581, -0.439 -0.3102 0.1536, -0.2815 -0.3102 0.1536, -0.439 -0.3111 0.1487, -0.2815 -0.3111 0.1487, -0.439 -0.315 0.0746, -0.2815 -0.315 0.0746, -0.2815 -0.3185 0.0551, -0.439 -0.3185 0.0551, -0.2815 -0.3268 0.037, -0.439 -0.3268 0.037, -0.2815 -0.3394 0.0216, -0.439 -0.3394 0.0216, -0.2815 -0.3554 0.0099, -0.439 -0.3554 0.0099, -0.2815 -0.3739 0.0025, -0.439 -0.3739 0.0025, -0.2815 -0.3936 0.0, -0.439 -0.3936 0.0, -0.439 -0.4724 0.0, -0.2815 -0.4724 0.0, -0.439 -0.4724 0.0433, -0.2815 -0.4724 0.0433, -0.439 -0.3936 0.0433, -0.2815 -0.3936 0.0433, -0.439 -0.3847 0.0444, -0.2815 -0.3847 0.0444, -0.439 -0.3764 0.0477, -0.2815 -0.3764 0.0477, -0.439 -0.3692 0.053, -0.2815 -0.3692 0.053, -0.439 -0.3635 0.06, -0.2815 -0.3635 0.06, -0.439 -0.3598 0.0681, -0.2815 -0.3598 0.0681, -0.439 -0.3582 0.0769, -0.2815 -0.3582 0.0769, -0.439 -0.3543 0.1509, -0.2815 -0.3543 0.1509, -0.2815 -0.3515 0.1666, -0.439 -0.3515 0.1666, -0.2815 -0.3448 0.181, -0.439 -0.3448 0.181, -0.2815 -0.3348 0.1933, -0.439 -0.3348 0.1933, -0.2815 -0.322 0.2027, -0.439 -0.322 0.2027, -0.2815 -0.3072 0.2086, -0.439 -0.3072 0.2086, -0.2815 -0.2914 0.2106, -0.439 -0.2914 0.2106, -0.439 -0.2529 0.2106, -0.2815 -0.2529 0.2106, -0.439 -0.2559 0.1673, -0.2815 -0.2559 0.1673
            ]
        }
        coordIndex [
            0,1,2,-1,2,1,3,-1,4,5,6,-1,6,5,7,-1,2,6,0,-1,0,6,7,-1,0,7,8,-1,8,7,9,-1,8,9,10,-1,10,9,11,-1,10,11,12,-1,12,11,13,-1,12,13,14,-1,14,13,15,-1,14,15,16,-1,16,15,17,-1,16,17,18,-1,18,17,19,-1,18,19,20,-1,20,19,21,-1,20,21,22,-1,22,21,23,-1,22,23,24,-1,24,23,25,-1,24,25,26,-1,26,25,27,-1,26,27,28,-1,28,27,29,-1,28,29,30,-1,30,29,31,-1,30,31,32,-1,32,31,33,-1,32,33,34,-1,34,33,35,-1,36,37,38,-1,38,37,39,-1,38,39,40,-1,40,39,41,-1,40,41,42,-1,42,41,43,-1,42,43,44,-1,44,43,45,-1,44,45,46,-1,46,45,47,-1,46,47,48,-1,48,47,49,-1,48,49,50,-1,50,49,51,-1,50,51,52,-1,52,51,53,-1,52,53,54,-1,54,53,55,-1,54,55,56,-1,56,55,57,-1,56,57,58,-1,58,57,59,-1,58,59,60,-1,60,59,61,-1,60,61,62,-1,62,61,63,-1,62,63,1,-1,1,63,5,-1,1,5,3,-1,3,5,4,-1,35,33,37,-1,37,33,39,-1,34,35,36,-1,36,35,37,-1,32,34,38,-1,38,34,36,-1,32,38,30,-1,30,38,40,-1,30,40,28,-1,28,40,42,-1,28,42,26,-1,26,42,44,-1,26,44,24,-1,24,44,46,-1,24,46,22,-1,22,46,48,-1,22,48,20,-1,20,48,50,-1,18,20,52,-1,52,20,50,-1,18,52,54,-1,18,54,16,-1,16,54,56,-1,16,56,14,-1,14,56,58,-1,14,58,12,-1,12,58,60,-1,12,60,10,-1,10,60,62,-1,10,62,8,-1,8,62,1,-1,8,1,0,-1,7,5,9,-1,9,5,63,-1,9,63,11,-1,11,63,61,-1,11,61,13,-1,13,61,59,-1,13,59,15,-1,15,59,57,-1,15,57,17,-1,17,57,55,-1,17,55,19,-1,19,55,53,-1,21,19,51,-1,51,19,53,-1,21,51,49,-1,21,49,23,-1,23,49,47,-1,23,47,25,-1,25,47,45,-1,25,45,27,-1,27,45,43,-1,27,43,29,-1,29,43,41,-1,29,41,31,-1,31,41,39,-1,31,39,33,-1,64,65,66,-1,66,65,67,-1,66,67,68,-1,68,67,69,-1,68,69,70,-1,70,69,71,-1,70,71,72,-1,72,71,73,-1,72,73,74,-1,74,73,75,-1,74,75,76,-1,76,75,77,-1,78,76,79,-1,79,76,77,-1,80,81,82,-1,82,81,83,-1,80,82,84,-1,80,84,85,-1,85,84,86,-1,85,86,87,-1,87,86,88,-1,87,88,89,-1,89,88,90,-1,89,90,91,-1,91,90,92,-1,91,92,93,-1,93,92,94,-1,93,94,95,-1,96,95,97,-1,97,95,94,-1,96,97,98,-1,98,97,99,-1,98,99,100,-1,100,99,101,-1,100,101,102,-1,102,101,103,-1,102,103,104,-1,104,103,105,-1,104,105,106,-1,106,105,107,-1,106,107,108,-1,108,107,109,-1,110,108,111,-1,111,108,109,-1,112,110,113,-1,113,110,111,-1,114,112,115,-1,115,112,113,-1,114,115,116,-1,114,116,117,-1,117,116,118,-1,117,118,119,-1,119,118,120,-1,119,120,121,-1,121,120,122,-1,121,122,123,-1,123,122,124,-1,123,124,125,-1,125,124,126,-1,125,126,127,-1,64,127,65,-1,65,127,126,-1,110,112,108,-1,108,112,114,-1,108,114,106,-1,106,114,117,-1,106,117,104,-1,104,117,119,-1,104,119,102,-1,102,119,121,-1,102,121,100,-1,100,121,123,-1,100,123,98,-1,98,123,125,-1,98,125,96,-1,96,125,127,-1,96,127,95,-1,95,127,64,-1,95,64,93,-1,93,64,66,-1,93,66,91,-1,91,66,68,-1,91,68,89,-1,89,68,70,-1,89,70,87,-1,87,70,72,-1,87,72,85,-1,85,72,74,-1,85,74,80,-1,80,74,76,-1,80,76,81,-1,81,76,78,-1,83,79,82,-1,82,79,77,-1,82,77,84,-1,84,77,75,-1,84,75,86,-1,86,75,73,-1,86,73,88,-1,88,73,71,-1,88,71,90,-1,90,71,69,-1,90,69,92,-1,92,69,67,-1,92,67,94,-1,94,67,65,-1,94,65,97,-1,97,65,126,-1,97,126,99,-1,99,126,124,-1,99,124,101,-1,101,124,122,-1,101,122,103,-1,103,122,120,-1,103,120,105,-1,105,120,118,-1,105,118,107,-1,107,118,116,-1,107,116,109,-1,109,116,115,-1,109,115,111,-1,111,115,113,-1,128,129,130,-1,130,129,131,-1,130,131,132,-1,132,131,133,-1,132,133,134,-1,134,133,135,-1,134,135,136,-1,136,135,137,-1,136,137,138,-1,138,137,139,-1,138,139,140,-1,140,139,141,-1,142,140,143,-1,143,140,141,-1,142,143,144,-1,142,144,145,-1,145,144,146,-1,145,146,147,-1,147,146,148,-1,147,148,149,-1,149,148,150,-1,149,150,151,-1,151,150,152,-1,151,152,153,-1,153,152,154,-1,153,154,155,-1,156,155,157,-1,157,155,154,-1,158,156,159,-1,159,156,157,-1,160,158,161,-1,161,158,159,-1,160,161,162,-1,162,161,163,-1,162,163,164,-1,164,163,165,-1,164,165,166,-1,166,165,167,-1,166,167,168,-1,168,167,169,-1,168,169,170,-1,170,169,171,-1,170,171,172,-1,172,171,173,-1,174,172,175,-1,175,172,173,-1,174,175,176,-1,174,176,177,-1,177,176,178,-1,177,178,179,-1,179,178,180,-1,179,180,181,-1,181,180,182,-1,181,182,183,-1,183,182,184,-1,183,184,185,-1,185,184,186,-1,185,186,187,-1,188,187,189,-1,189,187,186,-1,128,190,129,-1,129,190,191,-1,156,158,155,-1,155,158,160,-1,155,160,153,-1,153,160,162,-1,153,162,151,-1,151,162,164,-1,151,164,149,-1,149,164,166,-1,149,166,147,-1,147,166,168,-1,147,168,145,-1,145,168,170,-1,145,170,142,-1,142,170,172,-1,142,172,140,-1,140,172,174,-1,140,174,138,-1,138,174,177,-1,138,177,136,-1,136,177,179,-1,136,179,134,-1,134,179,181,-1,134,181,132,-1,132,181,183,-1,132,183,130,-1,130,183,185,-1,130,185,128,-1,128,185,187,-1,128,187,190,-1,190,187,188,-1,159,157,161,-1,161,157,154,-1,161,154,163,-1,163,154,152,-1,163,152,165,-1,165,152,150,-1,165,150,167,-1,167,150,148,-1,167,148,169,-1,169,148,146,-1,169,146,171,-1,171,146,144,-1,171,144,173,-1,173,144,143,-1,173,143,175,-1,175,143,141,-1,175,141,176,-1,176,141,139,-1,176,139,178,-1,178,139,137,-1,178,137,180,-1,180,137,135,-1,180,135,182,-1,182,135,133,-1,182,133,184,-1,184,133,131,-1,184,131,186,-1,186,131,129,-1,186,129,189,-1,189,129,191,-1,
        ]
    }
}
Shape{
    appearance Appearance {
        material  Material 	{
            diffuseColor 0.0 0.0 0.0
            specularColor 0.0 0.0 0.0
            ambientIntensity 0.0
            transparency 0.0
            shininess 0.5
        }
    }
    geometry IndexedFaceSet {
        ccw TRUE
        solid FALSE
        coord DEF co Coordinate {
            point [
                -0.333 -0.1101 0.4031, -0.333 -0.1101 0.4035, -0.3351 -0.0937 0.4031, -0.3351 -0.0937 0.4035, -0.3415 -0.0784 0.4031, -0.3415 -0.0784 0.4035, -0.3516 -0.0652 0.4031, -0.3516 -0.0652 0.4035, -0.3647 -0.0551 0.4031, -0.3647 -0.0551 0.4035, -0.38 -0.0488 0.4031, -0.38 -0.0488 0.4035, -0.3965 -0.0466 0.4031, -0.3965 -0.0466 0.4035, -0.4129 -0.0488 0.4031, -0.4129 -0.0488 0.4035, -0.4282 -0.0551 0.4031, -0.4282 -0.0551 0.4035, -0.4413 -0.0652 0.4031, -0.4413 -0.0652 0.4035, -0.4514 -0.0784 0.4031, -0.4514 -0.0784 0.4035, -0.4578 -0.0937 0.4031, -0.4578 -0.0937 0.4035, -0.4599 -0.1101 0.4031, -0.4599 -0.1101 0.4035, -0.4578 -0.1265 0.4031, -0.4578 -0.1265 0.4035, -0.4514 -0.1418 0.4031, -0.4514 -0.1418 0.4035, -0.4413 -0.155 0.4031, -0.4413 -0.155 0.4035, -0.4282 -0.1651 0.4031, -0.4282 -0.1651 0.4035, -0.4129 -0.1714 0.4031, -0.4129 -0.1714 0.4035, -0.3965 -0.1736 0.4031, -0.3965 -0.1736 0.4035, -0.38 -0.1714 0.4031, -0.38 -0.1714 0.4035, -0.3647 -0.1651 0.4031, -0.3647 -0.1651 0.4035, -0.3516 -0.155 0.4031, -0.3516 -0.155 0.4035, -0.3415 -0.1418 0.4031, -0.3415 -0.1418 0.4035, -0.3351 -0.1265 0.4031, -0.3351 -0.1265 0.4035, -0.3965 -0.1101 0.4031, -0.0774 0.0207 0.0201, -0.0928 -0.0187 0.0201, -0.0774 0.0207 0.0197, -0.0928 -0.0187 0.0197, -0.087 -0.0187 0.0201, -0.087 -0.0187 0.0197, -0.083 -0.0076 0.0201, -0.083 -0.0076 0.0197, -0.0668 -0.0076 0.0201, -0.0668 -0.0076 0.0197, -0.063 -0.0187 0.0201, -0.063 -0.0187 0.0197, -0.0573 -0.0187 0.0201, -0.0573 -0.0187 0.0197, -0.0721 0.0207 0.0201, -0.0721 0.0207 0.0197, -0.0681 -0.0033 0.0201, -0.0813 -0.0033 0.0201, -0.074 0.0131 0.0201, -0.0744 0.0145 0.0201, -0.0746 0.0159 0.0201, -0.0747 0.0159 0.0201, -0.075 0.0145 0.0201, -0.0753 0.0131 0.0201, -0.0681 -0.0033 0.0197, -0.0813 -0.0033 0.0197, -0.074 0.0131 0.0197, -0.0744 0.0145 0.0197, -0.0746 0.0159 0.0197, -0.0747 0.0159 0.0197, -0.075 0.0145 0.0197, -0.0753 0.0131 0.0197, -0.0334 -0.0187 0.0201, -0.0227 -0.0187 0.0201, -0.0334 -0.0187 0.0197, -0.0227 -0.0187 0.0197, -0.0227 0.0207 0.0201, -0.0227 0.0207 0.0197, -0.0338 0.0207 0.0201, -0.0338 0.0207 0.0197, -0.0544 0.0015 0.0201, -0.0544 0.0015 0.0197, -0.0541 0.0052 0.0197, -0.0541 0.0052 0.0201, -0.053 0.0091 0.0197, -0.053 0.0091 0.0201, -0.0512 0.0125 0.0197, -0.0512 0.0125 0.0201, -0.0484 0.0155 0.0197, -0.0484 0.0155 0.0201, -0.0484 0.0156 0.0197, -0.0484 0.0156 0.0201, -0.0441 0.0185 0.0197, -0.0441 0.0185 0.0201, -0.0395 0.0201 0.0197, -0.0395 0.0201 0.0201, -0.0383 -0.0183 0.0197, -0.0383 -0.0183 0.0201, -0.0428 -0.0169 0.0197, -0.0428 -0.0169 0.0201, -0.0469 -0.0145 0.0197, -0.0469 -0.0145 0.0201, -0.0502 -0.0114 0.0197, -0.0502 -0.0114 0.0201, -0.0524 -0.0079 0.0197, -0.0524 -0.0079 0.0201, -0.0538 -0.0038 0.0197, -0.0538 -0.0038 0.0201, -0.0465 0.0108 0.0201, -0.0446 0.0129 0.0201, -0.0417 0.0147 0.0201, -0.0384 0.0159 0.0201, -0.0338 0.0164 0.0201, -0.028 0.0164 0.0201, -0.028 -0.0144 0.0201, -0.0336 -0.0144 0.0201, -0.0377 -0.014 0.0201, -0.041 -0.013 0.0201, -0.0437 -0.0114 0.0201, -0.0459 -0.0092 0.0201, -0.0476 -0.0065 0.0201, -0.0487 -0.0028 0.0201, -0.0491 0.0014 0.0201, -0.0488 0.0053 0.0201, -0.0478 0.0084 0.0201, -0.0338 0.0164 0.0197, -0.028 0.0164 0.0197, -0.0384 0.0159 0.0197, -0.0417 0.0147 0.0197, -0.0446 0.0129 0.0197, -0.0465 0.0108 0.0197, -0.0478 0.0084 0.0197, -0.0488 0.0053 0.0197, -0.0491 0.0014 0.0197, -0.0487 -0.0028 0.0197, -0.0476 -0.0065 0.0197, -0.0459 -0.0092 0.0197, -0.0437 -0.0114 0.0197, -0.041 -0.013 0.0197, -0.0377 -0.014 0.0197, -0.0336 -0.0144 0.0197, -0.028 -0.0144 0.0197, -0.015 -0.0144 0.0201, -0.015 -0.0187 0.0201, -0.015 -0.0144 0.0197, -0.015 -0.0187 0.0197, 0.0061 -0.0187 0.0201, 0.0061 -0.0187 0.0197, 0.0061 0.0207 0.0201, 0.0061 0.0207 0.0197, -0.014 0.0207 0.0201, -0.014 0.0207 0.0197, -0.014 0.0164 0.0201, -0.014 0.0164 0.0197, 0.0008 0.0164 0.0201, 0.0008 0.0164 0.0197, 0.0008 0.0034 0.0201, 0.0008 0.0034 0.0197, -0.0131 0.0034 0.0201, -0.0131 0.0034 0.0197, -0.0131 -0.0009 0.0201, -0.0131 -0.0009 0.0197, 0.0008 -0.0009 0.0201, 0.0008 -0.0009 0.0197, 0.0008 -0.0144 0.0201, 0.0008 -0.0144 0.0197, 0.0138 -0.0123 0.0201, 0.0138 -0.0167 0.0201, 0.0138 -0.0123 0.0197, 0.0138 -0.0167 0.0197, 0.018 -0.0184 0.0201, 0.0246 -0.0192 0.0201, 0.0246 -0.0192 0.0197, 0.0236 -0.0192 0.0197, 0.0236 -0.0192 0.0201, 0.022 -0.0189 0.0197, 0.018 -0.0184 0.0197, 0.0269 -0.0189 0.0197, 0.0295 -0.0187 0.0201, 0.0295 -0.0187 0.0197, 0.0333 -0.0174 0.0201, 0.0333 -0.0174 0.0197, 0.0365 -0.0153 0.0201, 0.0365 -0.0153 0.0197, 0.0394 -0.0122 0.0201, 0.0394 -0.0122 0.0197, 0.0415 -0.0085 0.0201, 0.0415 -0.0085 0.0197, 0.0427 -0.0043 0.0201, 0.0427 -0.0043 0.0197, 0.0431 0.0002 0.0201, 0.0431 0.0002 0.0197, 0.0231 0.0212 0.0201, 0.0231 0.0212 0.0197, 0.027 0.0208 0.0197, 0.027 0.0208 0.0201, 0.0314 0.0196 0.0197, 0.0314 0.0196 0.0201, 0.0351 0.0174 0.0197, 0.0351 0.0174 0.0201, 0.0387 0.014 0.0197, 0.0387 0.014 0.0201, 0.041 0.0103 0.0197, 0.041 0.0103 0.0201, 0.0425 0.0058 0.0197, 0.0425 0.0058 0.0201, 0.0138 0.0196 0.0201, 0.0138 0.0196 0.0197, 0.0184 0.0208 0.0197, 0.0184 0.0208 0.0201, 0.0138 0.0143 0.0201, 0.0138 0.0143 0.0197, 0.023 0.0168 0.0201, 0.023 0.0168 0.0197, 0.0182 0.0162 0.0197, 0.0182 0.0162 0.0201, 0.0378 0.0006 0.0201, 0.0378 0.0006 0.0197, 0.0376 0.0036 0.0197, 0.0376 0.0036 0.0201, 0.0366 0.0078 0.0197, 0.0366 0.0078 0.0201, 0.0349 0.0109 0.0197, 0.0349 0.0109 0.0201, 0.0326 0.0135 0.0197, 0.0326 0.0135 0.0201, 0.0298 0.0153 0.0197, 0.0298 0.0153 0.0201, 0.0269 0.0164 0.0197, 0.0269 0.0164 0.0201, 0.0239 -0.0149 0.0201, 0.0239 -0.0149 0.0197, 0.0276 -0.0144 0.0197, 0.0276 -0.0144 0.0201, 0.0304 -0.0134 0.0197, 0.0304 -0.0134 0.0201, 0.0329 -0.0118 0.0197, 0.0329 -0.0118 0.0201, 0.0347 -0.0098 0.0197, 0.0347 -0.0098 0.0201, 0.0363 -0.0071 0.0197, 0.0363 -0.0071 0.0201, 0.0374 -0.0037 0.0197, 0.0374 -0.0037 0.0201, 0.0145 -0.0127 0.0197, 0.0145 -0.0127 0.0201, 0.0187 -0.0143 0.0197, 0.0187 -0.0143 0.0201, 0.0464 -0.0144 0.0201, 0.0464 -0.0187 0.0201, 0.0464 -0.0144 0.0197, 0.0464 -0.0187 0.0197, 0.0666 -0.0187 0.0201, 0.0666 -0.0187 0.0197, 0.0666 0.0207 0.0201, 0.0666 0.0207 0.0197, 0.0613 0.0207 0.0201, 0.0613 0.0207 0.0197, 0.0613 -0.0144 0.0201, 0.0613 -0.0144 0.0197
            ]
        }
        coordIndex [
            0,1,2,-1,2,1,3,-1,2,3,4,-1,4,3,5,-1,4,5,6,-1,6,5,7,-1,6,7,8,-1,8,7,9,-1,8,9,10,-1,10,9,11,-1,10,11,12,-1,12,11,13,-1,12,13,14,-1,14,13,15,-1,14,15,16,-1,16,15,17,-1,16,17,18,-1,18,17,19,-1,18,19,20,-1,20,19,21,-1,20,21,22,-1,22,21,23,-1,22,23,24,-1,24,23,25,-1,24,25,26,-1,26,25,27,-1,26,27,28,-1,28,27,29,-1,28,29,30,-1,30,29,31,-1,30,31,32,-1,32,31,33,-1,32,33,34,-1,34,33,35,-1,34,35,36,-1,36,35,37,-1,36,37,38,-1,38,37,39,-1,38,39,40,-1,40,39,41,-1,40,41,42,-1,42,41,43,-1,42,43,44,-1,44,43,45,-1,44,45,46,-1,46,45,47,-1,46,47,0,-1,0,47,1,-1,44,46,48,-1,48,46,0,-1,48,0,2,-1,38,40,48,-1,48,40,42,-1,48,42,44,-1,32,34,48,-1,48,34,36,-1,48,36,38,-1,26,28,48,-1,48,28,30,-1,48,30,32,-1,20,22,48,-1,48,22,24,-1,48,24,26,-1,14,16,48,-1,48,16,18,-1,48,18,20,-1,8,10,48,-1,48,10,12,-1,48,12,14,-1,2,4,48,-1,48,4,6,-1,48,6,8,-1,49,50,51,-1,51,50,52,-1,50,53,52,-1,52,53,54,-1,53,55,54,-1,54,55,56,-1,55,57,56,-1,56,57,58,-1,57,59,58,-1,58,59,60,-1,59,61,60,-1,60,61,62,-1,61,63,62,-1,62,63,64,-1,63,49,64,-1,64,49,51,-1,65,57,66,-1,66,57,55,-1,67,63,65,-1,65,63,61,-1,65,61,57,-1,57,61,59,-1,67,68,63,-1,63,68,69,-1,63,69,49,-1,49,69,70,-1,49,70,71,-1,71,72,49,-1,49,72,66,-1,49,66,50,-1,50,66,55,-1,50,55,53,-1,65,66,73,-1,73,66,74,-1,67,65,75,-1,75,65,73,-1,67,75,76,-1,67,76,68,-1,68,76,77,-1,68,77,69,-1,70,69,78,-1,78,69,77,-1,70,78,79,-1,70,79,71,-1,71,79,80,-1,71,80,72,-1,66,72,74,-1,74,72,80,-1,81,82,83,-1,83,82,84,-1,82,85,84,-1,84,85,86,-1,85,87,86,-1,86,87,88,-1,89,90,91,-1,89,91,92,-1,92,91,93,-1,92,93,94,-1,94,93,95,-1,94,95,96,-1,96,95,97,-1,96,97,98,-1,98,97,99,-1,98,99,100,-1,100,99,101,-1,100,101,102,-1,102,101,103,-1,102,103,104,-1,104,103,88,-1,104,88,87,-1,81,83,105,-1,81,105,106,-1,106,105,107,-1,106,107,108,-1,108,107,109,-1,108,109,110,-1,110,109,111,-1,110,111,112,-1,112,111,113,-1,112,113,114,-1,114,113,115,-1,114,115,116,-1,116,115,90,-1,116,90,89,-1,94,96,117,-1,117,96,98,-1,117,98,118,-1,118,98,100,-1,118,100,119,-1,119,100,102,-1,119,102,120,-1,120,102,104,-1,120,104,121,-1,121,104,87,-1,121,87,122,-1,122,87,85,-1,122,85,123,-1,123,85,82,-1,123,82,124,-1,124,82,81,-1,124,81,125,-1,125,81,106,-1,125,106,126,-1,126,106,108,-1,126,108,127,-1,127,108,110,-1,127,110,128,-1,128,110,112,-1,128,112,129,-1,129,112,114,-1,129,114,130,-1,130,114,116,-1,130,116,131,-1,131,116,89,-1,131,89,132,-1,132,89,92,-1,132,92,133,-1,133,92,94,-1,133,94,117,-1,121,122,134,-1,134,122,135,-1,121,134,136,-1,121,136,120,-1,120,136,137,-1,120,137,119,-1,119,137,138,-1,119,138,118,-1,118,138,139,-1,118,139,117,-1,117,139,140,-1,117,140,133,-1,133,140,141,-1,133,141,132,-1,132,141,142,-1,132,142,131,-1,131,142,143,-1,131,143,130,-1,130,143,144,-1,130,144,129,-1,129,144,145,-1,129,145,128,-1,128,145,146,-1,128,146,127,-1,127,146,147,-1,127,147,126,-1,126,147,148,-1,126,148,125,-1,125,148,149,-1,125,149,124,-1,123,124,150,-1,150,124,149,-1,122,123,135,-1,135,123,150,-1,151,152,153,-1,153,152,154,-1,152,155,154,-1,154,155,156,-1,155,157,156,-1,156,157,158,-1,157,159,158,-1,158,159,160,-1,159,161,160,-1,160,161,162,-1,161,163,162,-1,162,163,164,-1,163,165,164,-1,164,165,166,-1,165,167,166,-1,166,167,168,-1,167,169,168,-1,168,169,170,-1,169,171,170,-1,170,171,172,-1,171,173,172,-1,172,173,174,-1,173,151,174,-1,174,151,153,-1,155,152,151,-1,151,173,155,-1,155,173,171,-1,155,171,157,-1,161,159,163,-1,163,159,157,-1,163,157,165,-1,165,157,171,-1,165,171,167,-1,167,171,169,-1,175,176,177,-1,177,176,178,-1,178,176,179,-1,180,181,182,-1,180,182,183,-1,183,182,184,-1,183,184,179,-1,179,184,185,-1,179,185,178,-1,181,180,186,-1,186,180,187,-1,186,187,188,-1,188,187,189,-1,188,189,190,-1,190,189,191,-1,190,191,192,-1,192,191,193,-1,192,193,194,-1,194,193,195,-1,194,195,196,-1,196,195,197,-1,196,197,198,-1,198,197,199,-1,198,199,200,-1,201,202,203,-1,201,203,204,-1,204,203,205,-1,204,205,206,-1,206,205,207,-1,206,207,208,-1,208,207,209,-1,208,209,210,-1,210,209,211,-1,210,211,212,-1,212,211,213,-1,212,213,214,-1,214,213,200,-1,214,200,199,-1,215,216,217,-1,215,217,218,-1,218,217,202,-1,218,202,201,-1,215,219,216,-1,216,219,220,-1,221,222,223,-1,221,223,224,-1,224,223,220,-1,224,220,219,-1,225,226,227,-1,225,227,228,-1,228,227,229,-1,228,229,230,-1,230,229,231,-1,230,231,232,-1,232,231,233,-1,232,233,234,-1,234,233,235,-1,234,235,236,-1,236,235,237,-1,236,237,238,-1,238,237,222,-1,238,222,221,-1,239,240,241,-1,239,241,242,-1,242,241,243,-1,242,243,244,-1,244,243,245,-1,244,245,246,-1,246,245,247,-1,246,247,248,-1,248,247,249,-1,248,249,250,-1,250,249,251,-1,250,251,252,-1,252,251,226,-1,252,226,225,-1,175,177,253,-1,175,253,254,-1,254,253,255,-1,254,255,256,-1,256,255,240,-1,256,240,239,-1,242,180,239,-1,239,180,183,-1,239,183,256,-1,256,183,179,-1,256,179,254,-1,254,179,176,-1,254,176,175,-1,219,215,224,-1,224,215,218,-1,224,218,221,-1,221,218,201,-1,221,201,238,-1,238,201,204,-1,238,204,236,-1,236,204,206,-1,236,206,234,-1,234,206,208,-1,234,208,232,-1,232,208,210,-1,232,210,230,-1,230,210,212,-1,230,212,228,-1,228,212,214,-1,228,214,225,-1,225,214,199,-1,225,199,252,-1,252,199,197,-1,252,197,250,-1,250,197,195,-1,250,195,248,-1,248,195,193,-1,248,193,246,-1,246,193,191,-1,246,191,244,-1,244,191,189,-1,244,189,242,-1,242,189,187,-1,242,187,180,-1,257,258,259,-1,259,258,260,-1,258,261,260,-1,260,261,262,-1,261,263,262,-1,262,263,264,-1,263,265,264,-1,264,265,266,-1,265,267,266,-1,266,267,268,-1,267,257,268,-1,268,257,259,-1,265,263,267,-1,267,263,261,-1,267,261,257,-1,257,261,258,-1,
        ]
    }
}
Shape{
    appearance Appearance {
        material  Material 	{
            diffuseColor 0.25098039215686274 0.25098039215686274 0.25098039215686274
            specularColor 0.12549019607843137 0.12549019607843137 0.12549019607843137
            ambientIntensity 0.251
            transparency 0.0
            shininess 0.5
        }
    }
    geometry IndexedFaceSet {
        ccw TRUE
        solid FALSE
        coord DEF co Coordinate {
            point [
                -0.0681 -0.0033 0.0197, -0.0813 -0.0033 0.0197, -0.074 0.0131 0.0197, -0.0753 0.0131 0.0197, -0.0744 0.0145 0.0197, -0.075 0.0145 0.0197, -0.0746 0.0159 0.0197, -0.0747 0.0159 0.0197, -0.028 0.0164 0.0197, -0.028 -0.0144 0.0197, -0.0338 0.0164 0.0197, -0.0336 -0.0144 0.0197, -0.0377 -0.014 0.0197, -0.0491 0.0014 0.0197, -0.0488 0.0053 0.0197, -0.0478 0.0084 0.0197, -0.0384 0.0159 0.0197, -0.041 -0.013 0.0197, -0.0437 -0.0114 0.0197, -0.0459 -0.0092 0.0197, -0.0476 -0.0065 0.0197, -0.0487 -0.0028 0.0197, -0.0465 0.0108 0.0197, -0.0446 0.0129 0.0197, -0.0417 0.0147 0.0197, -0.5556 0.221 0.3852, -0.5549 0.2261 0.3855, -0.5709 0.2363 0.1673, -0.5702 0.2414 0.1673, -0.5694 0.2438 0.1673, -0.5549 0.2261 0.3855, -0.5682 0.2461 0.1673, -0.553 0.2308 0.3857, -0.5668 0.2482 0.1673, -0.553 0.2308 0.3857, -0.5651 0.2502 0.1673, -0.5498 0.2349 0.3858, -0.5632 0.2519 0.1673, -0.5458 0.238 0.3857, -0.5611 0.2533 0.1673, -0.5458 0.238 0.3857, -0.5588 0.2544 0.1673, -0.5411 0.24 0.3855, -0.5563 0.2552 0.1673, -0.5411 0.24 0.3855, -0.536 0.2407 0.3852, -0.5512 0.2559 0.1673, -0.5422 0.2469 0.038, -0.5473 0.2462 0.0377, -0.5473 0.2462 0.0377, -0.552 0.2442 0.0375, -0.552 0.2442 0.0375, -0.556 0.2411 0.0374, -0.5592 0.237 0.0375, -0.5592 0.237 0.0375, -0.5611 0.2323 0.0377, -0.5611 0.2323 0.0377, -0.5618 0.2272 0.038, -0.5526 0.221 0.3945, -0.5495 0.221 0.3982, -0.549 0.2245 0.3982, -0.5452 0.2235 0.4011, -0.5407 0.2223 0.4029, -0.5402 0.2235 0.4029, -0.536 0.221 0.4035, -0.5384 0.2253 0.4029, -0.5395 0.2245 0.4029, -0.5373 0.2258 0.4029, -0.5409 0.221 0.4029, -0.5541 0.2259 0.3899, -0.5522 0.2304 0.3899, -0.5492 0.2343 0.3899, -0.5454 0.2373 0.3899, -0.5408 0.2391 0.3899, -0.536 0.2398 0.3899, -0.536 0.2259 0.4029, -0.5494 0.221 0.3982, -0.5455 0.221 0.4011, -0.5454 0.221 0.4011, -0.5409 0.221 0.4029, -0.5442 0.2258 0.4011, -0.5427 0.2277 0.4011, -0.5407 0.2293 0.4011, -0.5384 0.2302 0.4011, -0.536 0.2259 0.4029, -0.536 0.2305 0.4011, -0.536 0.2305 0.4011, -0.536 0.2344 0.3982, -0.5477 0.2278 0.3982, -0.5455 0.2306 0.3982, -0.5427 0.2327 0.3982, -0.5395 0.2341 0.3982, -0.5547 0.221 0.39, -0.5526 0.221 0.3944, -0.5521 0.2253 0.3944, -0.5504 0.2293 0.3944, -0.5478 0.2328 0.3944, -0.5443 0.2354 0.3944, -0.5403 0.2371 0.3944, -0.5547 0.221 0.3899, -0.536 0.2345 0.3982, -0.536 0.2376 0.3945, -0.536 0.2377 0.3944, -0.536 0.2397 0.39, -0.5422 0.2321 0.0203, -0.5422 0.2272 0.0197, -0.5435 0.232 0.0203, -0.5516 0.2272 0.0221, -0.5517 0.2272 0.0221, -0.5514 0.2297 0.0221, -0.5556 0.2272 0.025, -0.5557 0.2272 0.025, -0.5552 0.2307 0.025, -0.5583 0.2315 0.0288, -0.5603 0.2321 0.0333, -0.5584 0.2366 0.0333, -0.5422 0.246 0.0333, -0.547 0.2453 0.0333, -0.5609 0.2272 0.0333, -0.5609 0.2272 0.0332, -0.5588 0.2272 0.0288, -0.5587 0.2272 0.0288, -0.5422 0.2459 0.0332, -0.5465 0.2433 0.0288, -0.5566 0.2355 0.0288, -0.5554 0.2405 0.0333, -0.5422 0.2439 0.0288, -0.5422 0.2438 0.0288, -0.5457 0.2403 0.025, -0.5539 0.234 0.025, -0.5539 0.239 0.0288, -0.5422 0.2407 0.025, -0.5422 0.2406 0.025, -0.5446 0.2364 0.0221, -0.5517 0.2368 0.025, -0.5504 0.232 0.0221, -0.5469 0.2285 0.0203, -0.5516 0.2434 0.0333, -0.5505 0.2416 0.0288, -0.5489 0.2389 0.025, -0.5469 0.2354 0.0221, -0.5446 0.2315 0.0203, -0.5471 0.2272 0.0203, -0.5471 0.2272 0.0203, -0.5489 0.2339 0.0221, -0.5464 0.2297 0.0203, -0.5457 0.2307 0.0203, -0.5422 0.2367 0.0221, -0.5422 0.2367 0.0221, -0.5422 0.2321 0.0203, -0.536 -0.2407 0.3852, -0.5411 -0.24 0.3855, -0.5512 -0.2559 0.1673, -0.5563 -0.2552 0.1673, -0.5588 -0.2544 0.1673, -0.5411 -0.24 0.3855, -0.5611 -0.2533 0.1673, -0.5458 -0.238 0.3857, -0.5632 -0.2519 0.1673, -0.5458 -0.238 0.3857, -0.5651 -0.2502 0.1673, -0.5498 -0.2349 0.3858, -0.5668 -0.2482 0.1673, -0.553 -0.2308 0.3857, -0.5682 -0.2461 0.1673, -0.553 -0.2308 0.3857, -0.5694 -0.2438 0.1673, -0.5549 -0.2261 0.3855, -0.5702 -0.2414 0.1673, -0.5549 -0.2261 0.3855, -0.5556 -0.221 0.3852, -0.5709 -0.2363 0.1673, -0.5547 -0.221 0.3899, -0.5547 -0.221 0.39, -0.5526 -0.221 0.3944, -0.5526 -0.221 0.3945, -0.5495 -0.221 0.3982, -0.5494 -0.221 0.3982, -0.5455 -0.221 0.4011, -0.5454 -0.221 0.4011, -0.5409 -0.221 0.4029, -0.5409 -0.221 0.4029, -0.536 -0.221 0.4035, 0.536 0.2407 0.3852, 0.536 0.2398 0.3899, 0.536 0.2397 0.39, 0.536 0.2377 0.3944, 0.536 0.2376 0.3945, 0.536 0.2345 0.3982, 0.536 0.2344 0.3982, 0.536 0.2305 0.4011, 0.536 0.2305 0.4011, 0.536 0.2259 0.4029, 0.536 0.2259 0.4029, 0.536 0.221 0.4035, 0.5411 0.24 0.3855, 0.5512 0.2559 0.1673, 0.5563 0.2552 0.1673, 0.5588 0.2544 0.1673, 0.5411 0.24 0.3855, 0.5611 0.2533 0.1673, 0.5458 0.238 0.3857, 0.5632 0.2519 0.1673, 0.5458 0.238 0.3857, 0.5651 0.2502 0.1673, 0.5498 0.2349 0.3858, 0.5668 0.2482 0.1673, 0.553 0.2308 0.3857, 0.5682 0.2461 0.1673, 0.553 0.2308 0.3857, 0.5694 0.2438 0.1673, 0.5549 0.2261 0.3855, 0.5702 0.2414 0.1673, 0.5549 0.2261 0.3855, 0.5556 0.221 0.3852, 0.5709 0.2363 0.1673, 0.5618 0.2272 0.038, 0.5611 0.2323 0.0377, 0.5611 0.2323 0.0377, 0.5592 0.237 0.0375, 0.5592 0.237 0.0375, 0.556 0.2411 0.0374, 0.552 0.2442 0.0375, 0.552 0.2442 0.0375, 0.5473 0.2462 0.0377, 0.5473 0.2462 0.0377, 0.5422 0.2469 0.038, -0.0188 0.2272 0.0197, 0.5422 0.246 0.0333, 0.5422 0.2459 0.0332, 0.5422 0.2439 0.0288, 0.5422 0.2438 0.0288, 0.5422 0.2407 0.025, 0.5422 0.2406 0.025, 0.5422 0.2367 0.0221, 0.5422 0.2367 0.0221, 0.5422 0.2321 0.0203, 0.5422 0.2321 0.0203, 0.5422 0.2272 0.0197, -0.5422 -0.0189 0.0197, -0.5422 -0.2272 0.0197, -0.5471 -0.2272 0.0203, -0.5618 -0.2272 0.038, -0.5609 -0.2272 0.0333, -0.5609 -0.2272 0.0332, -0.5588 -0.2272 0.0288, -0.5587 -0.2272 0.0288, -0.5557 -0.2272 0.025, -0.5556 -0.2272 0.025, -0.5517 -0.2272 0.0221, -0.5516 -0.2272 0.0221, -0.5471 -0.2272 0.0203, -0.5611 -0.2323 0.0377, -0.5611 -0.2323 0.0377, -0.5592 -0.237 0.0375, -0.5592 -0.237 0.0375, -0.556 -0.2411 0.0374, -0.552 -0.2442 0.0375, -0.552 -0.2442 0.0375, -0.5473 -0.2462 0.0377, -0.5473 -0.2462 0.0377, -0.5422 -0.2469 0.038, -0.536 -0.2376 0.3945, -0.536 -0.2345 0.3982, -0.5395 -0.2341 0.3982, -0.5384 -0.2302 0.4011, -0.5373 -0.2258 0.4029, -0.5384 -0.2253 0.4029, -0.5402 -0.2235 0.4029, -0.5395 -0.2245 0.4029, -0.5407 -0.2223 0.4029, -0.536 -0.2259 0.4029, -0.5408 -0.2391 0.3899, -0.5454 -0.2373 0.3899, -0.5492 -0.2343 0.3899, -0.5522 -0.2304 0.3899, -0.5541 -0.2259 0.3899, -0.536 -0.2344 0.3982, -0.536 -0.2305 0.4011, -0.536 -0.2305 0.4011, -0.536 -0.2259 0.4029, -0.5407 -0.2293 0.4011, -0.5427 -0.2277 0.4011, -0.5442 -0.2258 0.4011, -0.5452 -0.2235 0.4011, -0.5427 -0.2327 0.3982, -0.5455 -0.2306 0.3982, -0.5477 -0.2278 0.3982, -0.549 -0.2245 0.3982, -0.536 -0.2397 0.39, -0.536 -0.2377 0.3944, -0.5403 -0.2371 0.3944, -0.5443 -0.2354 0.3944, -0.5478 -0.2328 0.3944, -0.5504 -0.2293 0.3944, -0.5521 -0.2253 0.3944, -0.536 -0.2398 0.3899, 0.5395 0.2341 0.3982, 0.5384 0.2302 0.4011, 0.5373 0.2258 0.4029, 0.5384 0.2253 0.4029, 0.5402 0.2235 0.4029, 0.5395 0.2245 0.4029, 0.5407 0.2223 0.4029, 0.5408 0.2391 0.3899, 0.5454 0.2373 0.3899, 0.5492 0.2343 0.3899, 0.5522 0.2304 0.3899, 0.5541 0.2259 0.3899, 0.5547 0.221 0.3899, 0.5409 0.221 0.4029, 0.5407 0.2293 0.4011, 0.5427 0.2277 0.4011, 0.5442 0.2258 0.4011, 0.5452 0.2235 0.4011, 0.5409 0.221 0.4029, 0.5454 0.221 0.4011, 0.5455 0.221 0.4011, 0.5494 0.221 0.3982, 0.5427 0.2327 0.3982, 0.5455 0.2306 0.3982, 0.5477 0.2278 0.3982, 0.549 0.2245 0.3982, 0.5403 0.2371 0.3944, 0.5443 0.2354 0.3944, 0.5478 0.2328 0.3944, 0.5504 0.2293 0.3944, 0.5521 0.2253 0.3944, 0.5495 0.221 0.3982, 0.5526 0.221 0.3945, 0.5526 0.221 0.3944, 0.5547 0.221 0.39, 0.5471 0.2272 0.0203, 0.5469 0.2285 0.0203, 0.5446 0.2364 0.0221, 0.5457 0.2403 0.025, 0.5465 0.2433 0.0288, 0.547 0.2453 0.0333, 0.5516 0.2434 0.0333, 0.5609 0.2272 0.0333, 0.5603 0.2321 0.0333, 0.5609 0.2272 0.0332, 0.5583 0.2315 0.0288, 0.5505 0.2416 0.0288, 0.5554 0.2405 0.0333, 0.5588 0.2272 0.0288, 0.5587 0.2272 0.0288, 0.5552 0.2307 0.025, 0.5489 0.2389 0.025, 0.5539 0.239 0.0288, 0.5557 0.2272 0.025, 0.5556 0.2272 0.025, 0.5514 0.2297 0.0221, 0.5517 0.2368 0.025, 0.5469 0.2354 0.0221, 0.5435 0.232 0.0203, 0.5584 0.2366 0.0333, 0.5566 0.2355 0.0288, 0.5539 0.234 0.025, 0.5504 0.232 0.0221, 0.5464 0.2297 0.0203, 0.5489 0.2339 0.0221, 0.5446 0.2315 0.0203, 0.5457 0.2307 0.0203, 0.5517 0.2272 0.0221, 0.5516 0.2272 0.0221, 0.5471 0.2272 0.0203, -0.5469 -0.2285 0.0203, -0.5422 -0.2367 0.0221, -0.5422 -0.2367 0.0221, -0.5446 -0.2364 0.0221, -0.5422 -0.2406 0.025, -0.5422 -0.2407 0.025, -0.5457 -0.2403 0.025, -0.5465 -0.2433 0.0288, -0.547 -0.2453 0.0333, -0.5516 -0.2434 0.0333, -0.5603 -0.2321 0.0333, -0.5422 -0.246 0.0333, -0.5422 -0.2459 0.0332, -0.5422 -0.2439 0.0288, -0.5422 -0.2438 0.0288, -0.5583 -0.2315 0.0288, -0.5505 -0.2416 0.0288, -0.5554 -0.2405 0.0333, -0.5552 -0.2307 0.025, -0.5489 -0.2389 0.025, -0.5539 -0.239 0.0288, -0.5514 -0.2297 0.0221, -0.5517 -0.2368 0.025, -0.5469 -0.2354 0.0221, -0.5435 -0.232 0.0203, -0.5584 -0.2366 0.0333, -0.5566 -0.2355 0.0288, -0.5539 -0.234 0.025, -0.5504 -0.232 0.0221, -0.5464 -0.2297 0.0203, -0.5422 -0.2321 0.0203, -0.5422 -0.2321 0.0203, -0.5489 -0.2339 0.0221, -0.5446 -0.2315 0.0203, -0.5457 -0.2307 0.0203, 0.536 -0.2407 0.3852, 0.536 -0.2398 0.3899, 0.536 -0.2397 0.39, 0.536 -0.2377 0.3944, 0.536 -0.2376 0.3945, 0.536 -0.2345 0.3982, 0.536 -0.2344 0.3982, 0.536 -0.2305 0.4011, 0.536 -0.2305 0.4011, 0.536 -0.2259 0.4029, 0.536 -0.2259 0.4029, 0.536 -0.221 0.4035, 0.5556 -0.221 0.3852, 0.5547 -0.221 0.3899, 0.5547 -0.221 0.39, 0.5526 -0.221 0.3944, 0.5526 -0.221 0.3945, 0.5495 -0.221 0.3982, 0.5494 -0.221 0.3982, 0.5455 -0.221 0.4011, 0.5454 -0.221 0.4011, 0.5409 -0.221 0.4029, 0.5409 -0.221 0.4029, 0.5422 -0.0189 0.0197, 0.5422 -0.2272 0.0197, 0.5471 -0.2272 0.0203, 0.5471 -0.2272 0.0203, 0.5516 -0.2272 0.0221, 0.5517 -0.2272 0.0221, 0.5556 -0.2272 0.025, 0.5557 -0.2272 0.025, 0.5587 -0.2272 0.0288, 0.5588 -0.2272 0.0288, 0.5609 -0.2272 0.0332, 0.5609 -0.2272 0.0333, 0.5618 -0.2272 0.038, -0.0188 -0.2272 0.0197, 0.5422 -0.2321 0.0203, 0.5422 -0.2321 0.0203, 0.5422 -0.2367 0.0221, 0.5422 -0.2367 0.0221, 0.5422 -0.2406 0.025, 0.5422 -0.2407 0.025, 0.5422 -0.2438 0.0288, 0.5422 -0.2439 0.0288, 0.5422 -0.2459 0.0332, 0.5422 -0.246 0.0333, 0.5422 -0.2469 0.038, 0.549 -0.2245 0.3982, 0.5452 -0.2235 0.4011, 0.5407 -0.2223 0.4029, 0.5402 -0.2235 0.4029, 0.5384 -0.2253 0.4029, 0.5395 -0.2245 0.4029, 0.5373 -0.2258 0.4029, 0.5541 -0.2259 0.3899, 0.5549 -0.2261 0.3855, 0.5549 -0.2261 0.3855, 0.553 -0.2308 0.3857, 0.5522 -0.2304 0.3899, 0.553 -0.2308 0.3857, 0.5492 -0.2343 0.3899, 0.5498 -0.2349 0.3858, 0.5454 -0.2373 0.3899, 0.5458 -0.238 0.3857, 0.5458 -0.238 0.3857, 0.5408 -0.2391 0.3899, 0.5411 -0.24 0.3855, 0.5411 -0.24 0.3855, 0.5442 -0.2258 0.4011, 0.5427 -0.2277 0.4011, 0.5407 -0.2293 0.4011, 0.5384 -0.2302 0.4011, 0.5477 -0.2278 0.3982, 0.5455 -0.2306 0.3982, 0.5427 -0.2327 0.3982, 0.5395 -0.2341 0.3982, 0.5521 -0.2253 0.3944, 0.5504 -0.2293 0.3944, 0.5478 -0.2328 0.3944, 0.5443 -0.2354 0.3944, 0.5403 -0.2371 0.3944, 0.5435 -0.232 0.0203, 0.5514 -0.2297 0.0221, 0.5552 -0.2307 0.025, 0.5583 -0.2315 0.0288, 0.5603 -0.2321 0.0333, 0.5584 -0.2366 0.0333, 0.5473 -0.2462 0.0377, 0.552 -0.2442 0.0375, 0.5473 -0.2462 0.0377, 0.547 -0.2453 0.0333, 0.5611 -0.2323 0.0377, 0.5611 -0.2323 0.0377, 0.5592 -0.237 0.0375, 0.5592 -0.237 0.0375, 0.556 -0.2411 0.0374, 0.5465 -0.2433 0.0288, 0.5566 -0.2355 0.0288, 0.5554 -0.2405 0.0333, 0.5457 -0.2403 0.025, 0.5539 -0.234 0.025, 0.5539 -0.239 0.0288, 0.5446 -0.2364 0.0221, 0.5517 -0.2368 0.025, 0.5504 -0.232 0.0221, 0.5469 -0.2285 0.0203, 0.552 -0.2442 0.0375, 0.5516 -0.2434 0.0333, 0.5505 -0.2416 0.0288, 0.5489 -0.2389 0.025, 0.5469 -0.2354 0.0221, 0.5446 -0.2315 0.0203, 0.5489 -0.2339 0.0221, 0.5464 -0.2297 0.0203, 0.5457 -0.2307 0.0203, 0.5709 -0.2363 0.1673, 0.5702 -0.2414 0.1673, 0.5694 -0.2438 0.1673, 0.5682 -0.2461 0.1673, 0.5668 -0.2482 0.1673, 0.5651 -0.2502 0.1673, 0.5632 -0.2519 0.1673, 0.5611 -0.2533 0.1673, 0.5588 -0.2544 0.1673, 0.5563 -0.2552 0.1673, 0.5512 -0.2559 0.1673
            ]
        }
        coordIndex [
            0,1,2,-1,2,1,3,-1,2,3,4,-1,4,3,5,-1,4,5,6,-1,6,5,7,-1,8,9,10,-1,10,9,11,-1,10,11,12,-1,13,14,10,-1,10,14,15,-1,10,15,16,-1,12,17,10,-1,10,17,18,-1,10,18,19,-1,19,20,10,-1,10,20,21,-1,10,21,13,-1,22,23,15,-1,15,23,24,-1,15,24,16,-1,25,26,27,-1,27,26,28,-1,28,26,29,-1,29,26,30,-1,29,30,31,-1,31,30,32,-1,31,32,33,-1,33,32,34,-1,33,34,35,-1,35,34,36,-1,35,36,37,-1,37,36,38,-1,37,38,39,-1,39,38,40,-1,39,40,41,-1,41,40,42,-1,41,42,43,-1,42,44,43,-1,43,44,45,-1,43,45,46,-1,47,48,46,-1,46,48,43,-1,43,48,41,-1,41,48,49,-1,41,49,39,-1,39,49,50,-1,39,50,37,-1,37,50,51,-1,37,51,35,-1,35,51,52,-1,35,52,33,-1,33,52,53,-1,33,53,31,-1,31,53,54,-1,31,54,29,-1,29,54,55,-1,29,55,28,-1,55,56,28,-1,28,56,57,-1,28,57,27,-1,58,59,60,-1,61,62,63,-1,64,65,66,-1,67,65,64,-1,63,62,64,-1,68,64,62,-1,69,30,26,-1,30,69,32,-1,32,69,70,-1,32,70,34,-1,34,70,71,-1,34,71,36,-1,36,71,72,-1,36,72,38,-1,38,72,40,-1,40,72,73,-1,40,73,42,-1,42,73,44,-1,44,73,74,-1,44,74,45,-1,75,67,64,-1,76,77,61,-1,61,77,78,-1,61,78,62,-1,62,78,79,-1,62,79,68,-1,80,66,81,-1,81,66,65,-1,81,65,82,-1,82,65,67,-1,82,67,83,-1,75,84,67,-1,67,84,85,-1,67,85,83,-1,83,85,86,-1,83,86,87,-1,60,80,88,-1,88,80,81,-1,88,81,89,-1,89,81,82,-1,89,82,90,-1,90,82,83,-1,90,83,91,-1,91,83,87,-1,92,93,94,-1,94,93,58,-1,58,60,94,-1,94,60,88,-1,94,88,95,-1,95,88,89,-1,95,89,96,-1,96,89,90,-1,96,90,97,-1,97,90,91,-1,97,91,98,-1,59,76,60,-1,60,76,61,-1,60,61,80,-1,80,61,63,-1,80,63,66,-1,66,63,64,-1,92,69,99,-1,99,69,26,-1,99,26,25,-1,87,100,91,-1,91,100,101,-1,91,101,98,-1,98,101,102,-1,98,102,103,-1,92,94,69,-1,69,94,95,-1,69,95,70,-1,70,95,96,-1,70,96,71,-1,71,96,97,-1,71,97,72,-1,72,97,98,-1,72,98,73,-1,73,98,103,-1,73,103,74,-1,104,105,106,-1,107,108,109,-1,110,111,112,-1,113,114,115,-1,48,47,116,-1,50,49,117,-1,117,49,48,-1,56,55,114,-1,114,55,54,-1,114,54,115,-1,115,54,53,-1,115,53,52,-1,57,56,118,-1,118,56,114,-1,118,114,119,-1,119,114,113,-1,119,113,120,-1,120,113,121,-1,48,116,117,-1,117,116,122,-1,117,122,123,-1,111,121,112,-1,112,121,113,-1,112,113,124,-1,124,113,115,-1,124,115,125,-1,125,115,52,-1,122,126,123,-1,123,126,127,-1,123,127,128,-1,108,110,109,-1,109,110,112,-1,109,112,129,-1,129,112,124,-1,129,124,130,-1,130,124,125,-1,127,131,128,-1,128,131,132,-1,128,132,133,-1,130,134,129,-1,129,134,135,-1,129,135,109,-1,109,135,136,-1,109,136,107,-1,51,50,137,-1,137,50,117,-1,137,117,138,-1,138,117,123,-1,138,123,139,-1,139,123,128,-1,139,128,140,-1,140,128,133,-1,140,133,141,-1,141,133,106,-1,141,106,105,-1,105,142,136,-1,136,142,143,-1,136,143,107,-1,134,144,135,-1,135,144,145,-1,135,145,136,-1,136,145,105,-1,144,146,145,-1,145,146,105,-1,132,147,133,-1,133,147,148,-1,133,148,106,-1,106,148,149,-1,106,149,104,-1,52,51,125,-1,125,51,137,-1,125,137,130,-1,130,137,138,-1,130,138,134,-1,134,138,139,-1,134,139,144,-1,144,139,140,-1,144,140,146,-1,146,140,141,-1,146,141,105,-1,150,151,152,-1,152,151,153,-1,153,151,154,-1,154,151,155,-1,154,155,156,-1,156,155,157,-1,156,157,158,-1,158,157,159,-1,158,159,160,-1,160,159,161,-1,160,161,162,-1,162,161,163,-1,162,163,164,-1,164,163,165,-1,164,165,166,-1,166,165,167,-1,166,167,168,-1,167,169,168,-1,168,169,170,-1,168,170,171,-1,25,170,99,-1,99,170,172,-1,99,172,92,-1,92,172,173,-1,92,173,93,-1,93,173,174,-1,93,174,58,-1,58,174,175,-1,58,175,59,-1,59,175,176,-1,59,176,76,-1,76,176,177,-1,76,177,77,-1,77,177,178,-1,77,178,78,-1,78,178,179,-1,78,179,79,-1,79,179,180,-1,79,180,68,-1,180,181,68,-1,68,181,182,-1,68,182,64,-1,183,45,184,-1,184,45,74,-1,184,74,185,-1,185,74,103,-1,185,103,186,-1,186,103,102,-1,186,102,187,-1,187,102,101,-1,187,101,188,-1,188,101,100,-1,188,100,189,-1,189,100,87,-1,189,87,190,-1,190,87,86,-1,190,86,191,-1,191,86,85,-1,191,85,192,-1,192,85,84,-1,192,84,193,-1,84,75,193,-1,193,75,64,-1,193,64,194,-1,183,195,196,-1,196,195,197,-1,197,195,198,-1,198,195,199,-1,198,199,200,-1,200,199,201,-1,200,201,202,-1,202,201,203,-1,202,203,204,-1,204,203,205,-1,204,205,206,-1,206,205,207,-1,206,207,208,-1,208,207,209,-1,208,209,210,-1,210,209,211,-1,210,211,212,-1,211,213,212,-1,212,213,214,-1,212,214,215,-1,216,217,215,-1,215,217,212,-1,212,217,210,-1,210,217,218,-1,210,218,208,-1,208,218,219,-1,208,219,206,-1,206,219,220,-1,206,220,204,-1,204,220,221,-1,204,221,202,-1,202,221,222,-1,202,222,200,-1,200,222,223,-1,200,223,198,-1,198,223,224,-1,198,224,197,-1,224,225,197,-1,197,225,226,-1,197,226,196,-1,227,105,104,-1,47,226,116,-1,116,226,228,-1,116,228,122,-1,122,228,229,-1,122,229,126,-1,126,229,230,-1,126,230,127,-1,127,230,231,-1,127,231,131,-1,131,231,232,-1,131,232,132,-1,132,232,233,-1,132,233,147,-1,147,233,234,-1,147,234,148,-1,148,234,235,-1,148,235,149,-1,149,235,236,-1,149,236,104,-1,104,236,237,-1,104,237,227,-1,227,237,238,-1,239,240,241,-1,242,57,243,-1,243,57,118,-1,243,118,244,-1,244,118,119,-1,244,119,245,-1,245,119,120,-1,245,120,246,-1,246,120,121,-1,246,121,247,-1,247,121,111,-1,247,111,248,-1,248,111,110,-1,248,110,249,-1,249,110,108,-1,249,108,250,-1,250,108,107,-1,250,107,251,-1,251,107,143,-1,251,143,241,-1,241,143,142,-1,241,142,239,-1,239,142,105,-1,242,252,171,-1,171,252,168,-1,168,252,166,-1,166,252,253,-1,166,253,164,-1,164,253,254,-1,164,254,162,-1,162,254,255,-1,162,255,160,-1,160,255,256,-1,160,256,158,-1,158,256,257,-1,158,257,156,-1,156,257,258,-1,156,258,154,-1,154,258,259,-1,154,259,153,-1,259,260,153,-1,153,260,261,-1,153,261,152,-1,262,263,264,-1,265,266,267,-1,182,268,269,-1,270,268,182,-1,267,266,182,-1,271,182,266,-1,272,155,151,-1,155,272,157,-1,157,272,273,-1,157,273,159,-1,159,273,274,-1,159,274,161,-1,161,274,275,-1,161,275,163,-1,163,275,165,-1,165,275,276,-1,165,276,167,-1,167,276,169,-1,169,276,172,-1,169,172,170,-1,181,270,182,-1,277,278,265,-1,265,278,279,-1,265,279,266,-1,266,279,280,-1,266,280,271,-1,281,269,282,-1,282,269,268,-1,282,268,283,-1,283,268,270,-1,283,270,284,-1,181,180,270,-1,270,180,179,-1,270,179,284,-1,284,179,178,-1,284,178,177,-1,264,281,285,-1,285,281,282,-1,285,282,286,-1,286,282,283,-1,286,283,287,-1,287,283,284,-1,287,284,288,-1,288,284,177,-1,289,290,291,-1,291,290,262,-1,262,264,291,-1,291,264,285,-1,291,285,292,-1,292,285,286,-1,292,286,293,-1,293,286,287,-1,293,287,294,-1,294,287,288,-1,294,288,295,-1,263,277,264,-1,264,277,265,-1,264,265,281,-1,281,265,267,-1,281,267,269,-1,269,267,182,-1,289,272,296,-1,296,272,151,-1,296,151,150,-1,177,176,288,-1,288,176,175,-1,288,175,295,-1,295,175,174,-1,295,174,173,-1,289,291,272,-1,272,291,292,-1,272,292,273,-1,273,292,293,-1,273,293,274,-1,274,293,294,-1,274,294,275,-1,275,294,295,-1,275,295,276,-1,276,295,173,-1,276,173,172,-1,187,188,297,-1,298,299,300,-1,194,301,302,-1,303,301,194,-1,300,299,194,-1,193,194,299,-1,304,199,195,-1,199,304,201,-1,201,304,305,-1,201,305,203,-1,203,305,306,-1,203,306,205,-1,205,306,307,-1,205,307,207,-1,207,307,209,-1,209,307,308,-1,209,308,211,-1,211,308,213,-1,213,308,309,-1,213,309,214,-1,310,303,194,-1,189,190,298,-1,298,190,191,-1,298,191,299,-1,299,191,192,-1,299,192,193,-1,311,302,312,-1,312,302,301,-1,312,301,313,-1,313,301,303,-1,313,303,314,-1,310,315,303,-1,303,315,316,-1,303,316,314,-1,314,316,317,-1,314,317,318,-1,297,311,319,-1,319,311,312,-1,319,312,320,-1,320,312,313,-1,320,313,321,-1,321,313,314,-1,321,314,322,-1,322,314,318,-1,185,186,323,-1,323,186,187,-1,187,297,323,-1,323,297,319,-1,323,319,324,-1,324,319,320,-1,324,320,325,-1,325,320,321,-1,325,321,326,-1,326,321,322,-1,326,322,327,-1,188,189,297,-1,297,189,298,-1,297,298,311,-1,311,298,300,-1,311,300,302,-1,302,300,194,-1,185,304,184,-1,184,304,195,-1,184,195,183,-1,318,328,322,-1,322,328,329,-1,322,329,327,-1,327,329,330,-1,327,330,331,-1,185,323,304,-1,304,323,324,-1,304,324,305,-1,305,324,325,-1,305,325,306,-1,306,325,326,-1,306,326,307,-1,307,326,327,-1,307,327,308,-1,308,327,331,-1,308,331,309,-1,332,238,333,-1,235,234,334,-1,233,232,335,-1,336,337,338,-1,217,216,339,-1,219,218,340,-1,340,218,217,-1,225,224,337,-1,337,224,223,-1,337,223,338,-1,338,223,222,-1,338,222,221,-1,226,225,228,-1,228,225,337,-1,228,337,229,-1,229,337,336,-1,229,336,230,-1,230,336,231,-1,217,339,340,-1,340,339,341,-1,340,341,342,-1,232,231,335,-1,335,231,336,-1,335,336,343,-1,343,336,338,-1,343,338,344,-1,344,338,221,-1,341,345,342,-1,342,345,346,-1,342,346,347,-1,234,233,334,-1,334,233,335,-1,334,335,348,-1,348,335,343,-1,348,343,349,-1,349,343,344,-1,346,350,347,-1,347,350,351,-1,347,351,352,-1,349,353,348,-1,348,353,354,-1,348,354,334,-1,334,354,355,-1,334,355,235,-1,220,219,356,-1,356,219,340,-1,356,340,357,-1,357,340,342,-1,357,342,358,-1,358,342,347,-1,358,347,359,-1,359,347,352,-1,359,352,360,-1,360,352,333,-1,360,333,238,-1,238,237,355,-1,355,237,236,-1,355,236,235,-1,353,361,354,-1,354,361,362,-1,354,362,355,-1,355,362,238,-1,361,363,362,-1,362,363,238,-1,351,364,352,-1,352,364,365,-1,352,365,333,-1,333,365,366,-1,333,366,332,-1,221,220,344,-1,344,220,356,-1,344,356,349,-1,349,356,357,-1,349,357,353,-1,353,357,358,-1,353,358,361,-1,361,358,359,-1,361,359,363,-1,363,359,360,-1,363,360,238,-1,241,240,367,-1,368,369,370,-1,371,372,373,-1,374,375,376,-1,252,242,243,-1,254,253,377,-1,377,253,252,-1,260,259,375,-1,375,259,258,-1,375,258,376,-1,376,258,257,-1,376,257,256,-1,261,260,378,-1,378,260,375,-1,378,375,379,-1,379,375,374,-1,379,374,380,-1,380,374,381,-1,252,243,377,-1,377,243,244,-1,377,244,382,-1,372,381,373,-1,373,381,374,-1,373,374,383,-1,383,374,376,-1,383,376,384,-1,384,376,256,-1,244,245,382,-1,382,245,246,-1,382,246,385,-1,369,371,370,-1,370,371,373,-1,370,373,386,-1,386,373,383,-1,386,383,387,-1,387,383,384,-1,246,247,385,-1,385,247,248,-1,385,248,388,-1,387,389,386,-1,386,389,390,-1,386,390,370,-1,370,390,391,-1,370,391,368,-1,255,254,392,-1,392,254,377,-1,392,377,393,-1,393,377,382,-1,393,382,394,-1,394,382,385,-1,394,385,395,-1,395,385,388,-1,395,388,396,-1,396,388,367,-1,396,367,240,-1,240,397,391,-1,391,397,398,-1,391,398,368,-1,389,399,390,-1,390,399,400,-1,390,400,391,-1,391,400,240,-1,399,401,400,-1,400,401,240,-1,248,249,388,-1,388,249,250,-1,388,250,367,-1,367,250,251,-1,367,251,241,-1,256,255,384,-1,384,255,392,-1,384,392,387,-1,387,392,393,-1,387,393,389,-1,389,393,394,-1,389,394,399,-1,399,394,395,-1,399,395,401,-1,401,395,396,-1,401,396,240,-1,150,402,296,-1,296,402,403,-1,296,403,289,-1,289,403,404,-1,289,404,290,-1,290,404,405,-1,290,405,262,-1,262,405,406,-1,262,406,263,-1,263,406,407,-1,263,407,277,-1,277,407,408,-1,277,408,278,-1,278,408,409,-1,278,409,279,-1,279,409,410,-1,279,410,280,-1,280,410,411,-1,280,411,271,-1,411,412,271,-1,271,412,413,-1,271,413,182,-1,414,214,415,-1,415,214,309,-1,415,309,416,-1,416,309,331,-1,416,331,417,-1,417,331,330,-1,417,330,418,-1,418,330,329,-1,418,329,419,-1,419,329,328,-1,419,328,420,-1,420,328,318,-1,420,318,421,-1,421,318,317,-1,421,317,422,-1,422,317,316,-1,422,316,423,-1,423,316,315,-1,423,315,424,-1,315,310,424,-1,424,310,194,-1,424,194,413,-1,425,238,332,-1,426,425,427,-1,427,425,332,-1,427,332,428,-1,428,332,366,-1,428,366,429,-1,429,366,365,-1,429,365,430,-1,430,365,364,-1,430,364,431,-1,431,364,351,-1,431,351,432,-1,432,351,350,-1,432,350,433,-1,433,350,346,-1,433,346,434,-1,434,346,345,-1,434,345,435,-1,435,345,341,-1,435,341,436,-1,436,341,339,-1,436,339,437,-1,437,339,216,-1,438,426,439,-1,240,438,397,-1,397,438,439,-1,397,439,398,-1,398,439,440,-1,398,440,368,-1,368,440,441,-1,368,441,369,-1,369,441,442,-1,369,442,371,-1,371,442,443,-1,371,443,372,-1,372,443,444,-1,372,444,381,-1,381,444,445,-1,381,445,380,-1,380,445,446,-1,380,446,379,-1,379,446,447,-1,379,447,378,-1,378,447,448,-1,378,448,261,-1,261,448,449,-1,418,419,450,-1,451,452,453,-1,413,454,455,-1,456,454,413,-1,453,452,413,-1,424,413,452,-1,457,458,459,-1,458,457,460,-1,460,457,461,-1,460,461,462,-1,462,461,463,-1,462,463,464,-1,464,463,465,-1,464,465,466,-1,466,465,467,-1,467,465,468,-1,467,468,469,-1,469,468,470,-1,470,468,403,-1,470,403,402,-1,412,456,413,-1,420,421,451,-1,451,421,422,-1,451,422,452,-1,452,422,423,-1,452,423,424,-1,471,455,472,-1,472,455,454,-1,472,454,473,-1,473,454,456,-1,473,456,474,-1,412,411,456,-1,456,411,410,-1,456,410,474,-1,474,410,409,-1,474,409,408,-1,450,471,475,-1,475,471,472,-1,475,472,476,-1,476,472,473,-1,476,473,477,-1,477,473,474,-1,477,474,478,-1,478,474,408,-1,416,417,479,-1,479,417,418,-1,418,450,479,-1,479,450,475,-1,479,475,480,-1,480,475,476,-1,480,476,481,-1,481,476,477,-1,481,477,482,-1,482,477,478,-1,482,478,483,-1,419,420,450,-1,450,420,451,-1,450,451,471,-1,471,451,453,-1,471,453,455,-1,455,453,413,-1,416,457,415,-1,415,457,459,-1,415,459,414,-1,408,407,478,-1,478,407,406,-1,478,406,483,-1,483,406,405,-1,483,405,404,-1,416,479,457,-1,457,479,480,-1,457,480,461,-1,461,480,481,-1,461,481,463,-1,463,481,482,-1,463,482,465,-1,465,482,483,-1,465,483,468,-1,468,483,404,-1,468,404,403,-1,439,426,484,-1,429,430,485,-1,431,432,486,-1,487,488,489,-1,490,449,448,-1,491,492,493,-1,493,492,490,-1,494,495,488,-1,488,495,496,-1,488,496,489,-1,489,496,497,-1,489,497,498,-1,437,494,436,-1,436,494,488,-1,436,488,435,-1,435,488,487,-1,435,487,434,-1,434,487,433,-1,490,448,493,-1,493,448,447,-1,493,447,499,-1,432,433,486,-1,486,433,487,-1,486,487,500,-1,500,487,489,-1,500,489,501,-1,501,489,498,-1,447,446,499,-1,499,446,445,-1,499,445,502,-1,430,431,485,-1,485,431,486,-1,485,486,503,-1,503,486,500,-1,503,500,504,-1,504,500,501,-1,445,444,502,-1,502,444,443,-1,502,443,505,-1,504,506,503,-1,503,506,507,-1,503,507,485,-1,485,507,508,-1,485,508,429,-1,509,491,510,-1,510,491,493,-1,510,493,511,-1,511,493,499,-1,511,499,512,-1,512,499,502,-1,512,502,513,-1,513,502,505,-1,513,505,514,-1,514,505,484,-1,514,484,426,-1,426,427,508,-1,508,427,428,-1,508,428,429,-1,506,515,507,-1,507,515,516,-1,507,516,508,-1,508,516,426,-1,515,517,516,-1,516,517,426,-1,443,442,505,-1,505,442,441,-1,505,441,484,-1,484,441,440,-1,484,440,439,-1,498,509,501,-1,501,509,510,-1,501,510,504,-1,504,510,511,-1,504,511,506,-1,506,511,512,-1,506,512,515,-1,515,512,513,-1,515,513,517,-1,517,513,514,-1,517,514,426,-1,414,459,518,-1,518,459,519,-1,519,459,520,-1,520,459,458,-1,520,458,521,-1,521,458,460,-1,521,460,522,-1,522,460,462,-1,522,462,523,-1,523,462,464,-1,523,464,524,-1,524,464,466,-1,524,466,525,-1,525,466,467,-1,525,467,526,-1,526,467,469,-1,526,469,527,-1,469,470,527,-1,527,470,402,-1,527,402,528,-1,449,490,528,-1,528,490,527,-1,527,490,526,-1,526,490,492,-1,526,492,525,-1,525,492,491,-1,525,491,524,-1,524,491,509,-1,524,509,523,-1,523,509,498,-1,523,498,522,-1,522,498,497,-1,522,497,521,-1,521,497,496,-1,521,496,520,-1,520,496,495,-1,520,495,519,-1,495,494,519,-1,519,494,437,-1,519,437,518,-1,
        ]
    }
}