#VRML V2.0 utf8
# 3D model generated by easyeda2kicad.py (https://github.com/uPesy/easyeda2kicad.py)

Shape{
    appearance Appearance {
        material  Material 	{
            diffuseColor 0.2235294117647059 0.2235294117647059 0.2235294117647059
            specularColor 0.11372549019607843 0.11372549019607843 0.11372549019607843
            ambientIntensity 0.2235
            transparency 0.0
            shininess 0.5
        }
    }
    geometry IndexedFaceSet {
        ccw TRUE
        solid FALSE
        coord DEF co Coordinate {
            point [
                0.36 -0.2124 0.4331, 0.36 0.2124 0.4331, -0.2282 -0.2124 0.4331, -0.2282 0.2124 0.4331, -0.36 0.2124 0.4331, -0.36 -0.2124 0.4331, -0.3109 0.2124 0.4331, -0.3109 -0.2124 0.4331, -0.3516 -0.2039 0.0394, -0.3516 0.2039 0.0394, 0.3516 -0.2039 0.0394, 0.3516 0.2039 0.0394, 0.3741 0.2461 0.315, 0.3002 0.2461 0.315, 0.3002 0.2419 0.3445, 0.3742 0.2461 0.315, 0.36 0.2318 0.4161, 0.2116 0.2419 0.3445, -0.36 0.2318 0.4161, -0.0443 0.2419 0.3445, -0.0443 0.2461 0.315, -0.2116 0.2461 0.315, -0.2116 0.2419 0.3445, -0.3002 0.2419 0.3445, 0.0443 0.2419 0.3445, 0.0443 0.2461 0.315, 0.2116 0.2461 0.315, -0.3002 0.2461 0.315, -0.3741 0.2461 0.315, -0.3742 0.2461 0.315, -0.3795 0.2124 0.4161, -0.3937 0.2266 0.315, -0.3937 0.2265 0.315, -0.3795 -0.2124 0.4161, -0.3937 -0.2265 0.315, -0.3937 -0.2266 0.315, 0.3795 -0.2124 0.4161, 0.3937 -0.2266 0.315, 0.3937 -0.2265 0.315, 0.3795 0.2124 0.4161, 0.3937 0.2265 0.315, 0.3937 0.2266 0.315, -0.3741 -0.2461 0.315, -0.3002 -0.2461 0.315, -0.3002 -0.2419 0.3445, -0.3742 -0.2461 0.315, -0.36 -0.2318 0.4161, -0.2116 -0.2419 0.3445, 0.36 -0.2318 0.4161, 0.0443 -0.2419 0.3445, 0.0443 -0.2461 0.315, 0.2116 -0.2461 0.315, 0.2116 -0.2419 0.3445, 0.3002 -0.2419 0.3445, -0.0443 -0.2419 0.3445, -0.0443 -0.2461 0.315, -0.2116 -0.2461 0.315, 0.3002 -0.2461 0.315, 0.3741 -0.2461 0.315, 0.3742 -0.2461 0.315, 0.3002 -0.2435 0.2854, 0.2116 -0.2435 0.2854, 0.0443 -0.2435 0.2854, -0.0443 -0.2435 0.2854, -0.3516 -0.2235 0.0573, 0.3516 -0.2235 0.0573, -0.3002 -0.2435 0.2854, -0.2116 -0.2435 0.2854, 0.3712 -0.2039 0.0573, 0.3712 0.2039 0.0573, -0.3712 0.2039 0.0573, -0.3712 -0.2039 0.0573, -0.3002 0.2435 0.2854, -0.2116 0.2435 0.2854, -0.0443 0.2435 0.2854, 0.0443 0.2435 0.2854, 0.3516 0.2235 0.0573, -0.3516 0.2235 0.0573, 0.3002 0.2435 0.2854, 0.2116 0.2435 0.2854, -0.36 0.217 0.4325, -0.3109 0.2136 0.433, -0.2282 0.2136 0.433, 0.36 0.217 0.4325, 0.36 0.2307 0.4205, -0.36 0.2307 0.4205, 0.36 0.2306 0.4206, -0.36 0.2306 0.4206, 0.36 0.2285 0.4247, -0.36 0.2285 0.4247, 0.36 0.2284 0.4248, -0.36 0.2284 0.4248, 0.36 0.2253 0.4282, -0.36 0.2253 0.4282, 0.36 0.2253 0.4282, -0.36 0.2253 0.4282, 0.36 0.2214 0.4308, -0.36 0.2214 0.4308, 0.36 0.2214 0.4309, -0.36 0.2214 0.4309, 0.36 0.217 0.4325, -0.36 0.217 0.4325, 0.3633 0.2249 0.4282, 0.3623 0.2211 0.4308, 0.3612 0.2169 0.4325, 0.3623 0.2164 0.4325, 0.364 0.2147 0.4325, 0.3633 0.2157 0.4325, 0.3645 0.2136 0.4325, 0.3647 0.2301 0.4205, 0.365 0.2311 0.4167, 0.365 0.2311 0.4167, 0.3696 0.2291 0.4171, 0.3692 0.2282 0.4205, 0.3697 0.2291 0.4171, 0.373 0.2253 0.4205, 0.3736 0.226 0.4172, 0.3759 0.2215 0.4205, 0.3767 0.222 0.4171, 0.3767 0.222 0.4171, 0.3777 0.2171 0.4205, 0.3787 0.2174 0.4167, 0.3787 0.2173 0.4167, 0.3783 0.2124 0.4205, 0.3646 0.2124 0.4325, 0.3645 0.2202 0.4308, 0.3664 0.2188 0.4308, 0.3679 0.2169 0.4308, 0.3688 0.2147 0.4308, 0.3647 0.2124 0.4325, 0.369 0.2124 0.4309, 0.3691 0.2124 0.4308, 0.3729 0.2124 0.4282, 0.3665 0.2236 0.4282, 0.3692 0.2215 0.4282, 0.3712 0.2188 0.4282, 0.3725 0.2157 0.4282, 0.3642 0.2279 0.4247, 0.3681 0.2263 0.4247, 0.3714 0.2238 0.4247, 0.374 0.2204 0.4247, 0.3756 0.2165 0.4247, 0.373 0.2124 0.4282, 0.376 0.2124 0.4248, 0.3761 0.2124 0.4247, 0.3783 0.2124 0.4206, -0.376 0.2124 0.4248, -0.373 0.2124 0.4282, -0.3725 0.2157 0.4282, -0.3688 0.2147 0.4308, -0.3645 0.2136 0.4325, -0.364 0.2147 0.4325, -0.3623 0.2164 0.4325, -0.3633 0.2157 0.4325, -0.3612 0.2169 0.4325, -0.3646 0.2124 0.4325, -0.3777 0.2171 0.4205, -0.3787 0.2174 0.4167, -0.3787 0.2173 0.4167, -0.3767 0.222 0.4171, -0.3759 0.2215 0.4205, -0.3767 0.222 0.4171, -0.373 0.2253 0.4205, -0.3736 0.226 0.4172, -0.3692 0.2282 0.4205, -0.3697 0.2291 0.4171, -0.3696 0.2291 0.4171, -0.3647 0.2301 0.4205, -0.365 0.2311 0.4167, -0.365 0.2311 0.4167, -0.3729 0.2124 0.4282, -0.3691 0.2124 0.4308, -0.369 0.2124 0.4309, -0.3647 0.2124 0.4325, -0.3679 0.2169 0.4308, -0.3664 0.2188 0.4308, -0.3645 0.2202 0.4308, -0.3623 0.2211 0.4308, -0.3712 0.2188 0.4282, -0.3692 0.2215 0.4282, -0.3665 0.2236 0.4282, -0.3633 0.2249 0.4282, -0.3783 0.2124 0.4206, -0.3761 0.2124 0.4247, -0.3756 0.2165 0.4247, -0.374 0.2204 0.4247, -0.3714 0.2238 0.4247, -0.3681 0.2263 0.4247, -0.3642 0.2279 0.4247, -0.3783 0.2124 0.4205, 0.3783 -0.2124 0.4205, 0.3783 -0.2124 0.4206, 0.3761 -0.2124 0.4247, 0.376 -0.2124 0.4248, 0.373 -0.2124 0.4282, 0.3729 -0.2124 0.4282, 0.3691 -0.2124 0.4308, 0.369 -0.2124 0.4309, 0.3647 -0.2124 0.4325, 0.3646 -0.2124 0.4325, 0.384 0.2434 0.3151, 0.3839 0.2435 0.3151, 0.3793 0.2454 0.3151, 0.3792 0.2454 0.3151, 0.388 0.2403 0.3152, 0.3911 0.2363 0.3151, 0.3911 0.2363 0.3151, 0.393 0.2316 0.3151, 0.393 0.2315 0.3151, -0.3911 0.2363 0.3151, -0.3911 0.2363 0.3151, -0.393 0.2316 0.3151, -0.393 0.2315 0.3151, -0.388 0.2403 0.3152, -0.384 0.2434 0.3151, -0.3839 0.2435 0.3151, -0.3793 0.2454 0.3151, -0.3792 0.2454 0.3151, -0.3783 -0.2124 0.4205, -0.3783 -0.2124 0.4206, -0.3761 -0.2124 0.4247, -0.376 -0.2124 0.4248, -0.373 -0.2124 0.4282, -0.3729 -0.2124 0.4282, -0.3691 -0.2124 0.4308, -0.369 -0.2124 0.4309, -0.3647 -0.2124 0.4325, -0.3646 -0.2124 0.4325, 0.36 -0.217 0.4325, -0.3109 -0.2136 0.433, -0.36 -0.217 0.4325, -0.2282 -0.2136 0.433, -0.36 -0.2307 0.4205, 0.36 -0.2307 0.4205, -0.36 -0.2306 0.4206, 0.36 -0.2306 0.4206, -0.36 -0.2285 0.4247, 0.36 -0.2285 0.4247, -0.36 -0.2284 0.4248, 0.36 -0.2284 0.4248, -0.36 -0.2253 0.4282, 0.36 -0.2253 0.4282, -0.36 -0.2253 0.4282, 0.36 -0.2253 0.4282, -0.36 -0.2214 0.4308, 0.36 -0.2214 0.4308, -0.36 -0.2214 0.4309, 0.36 -0.2214 0.4309, -0.36 -0.217 0.4325, 0.36 -0.217 0.4325, 0.3725 -0.2157 0.4282, 0.3688 -0.2147 0.4308, 0.3645 -0.2136 0.4325, 0.364 -0.2147 0.4325, 0.3623 -0.2164 0.4325, 0.3633 -0.2157 0.4325, 0.3612 -0.2169 0.4325, 0.3777 -0.2171 0.4205, 0.3787 -0.2174 0.4167, 0.3787 -0.2173 0.4167, 0.3767 -0.222 0.4171, 0.3759 -0.2215 0.4205, 0.3767 -0.222 0.4171, 0.373 -0.2253 0.4205, 0.3736 -0.226 0.4172, 0.3692 -0.2282 0.4205, 0.3697 -0.2291 0.4171, 0.3696 -0.2291 0.4171, 0.3647 -0.2301 0.4205, 0.365 -0.2311 0.4167, 0.365 -0.2311 0.4167, 0.3679 -0.2169 0.4308, 0.3664 -0.2188 0.4308, 0.3645 -0.2202 0.4308, 0.3623 -0.2211 0.4308, 0.3712 -0.2188 0.4282, 0.3692 -0.2215 0.4282, 0.3665 -0.2236 0.4282, 0.3633 -0.2249 0.4282, 0.3756 -0.2165 0.4247, 0.374 -0.2204 0.4247, 0.3714 -0.2238 0.4247, 0.3681 -0.2263 0.4247, 0.3642 -0.2279 0.4247, 0.3937 0.2266 0.315, 0.3705 0.209 0.057, 0.3705 0.209 0.057, 0.3685 0.2137 0.0567, 0.3685 0.2137 0.0567, 0.3654 0.2177 0.0566, 0.3613 0.2208 0.0567, 0.3613 0.2208 0.0567, 0.3566 0.2228 0.057, 0.3566 0.2228 0.057, 0.3742 0.2461 0.315, -0.3516 0.2226 0.0527, 0.3516 0.2226 0.0527, -0.3516 0.2225 0.0526, 0.3516 0.2225 0.0526, -0.3516 0.2204 0.0483, 0.3516 0.2204 0.0483, -0.3516 0.2203 0.0482, 0.3516 0.2203 0.0482, -0.3516 0.2173 0.0446, 0.3516 0.2173 0.0446, -0.3516 0.2172 0.0446, 0.3516 0.2172 0.0446, -0.3516 0.2133 0.0418, 0.3516 0.2133 0.0418, -0.3516 0.2133 0.0417, 0.3516 0.2133 0.0417, -0.3516 0.2088 0.04, 0.3516 0.2088 0.04, -0.3516 0.2087 0.04, 0.3516 0.2087 0.04, -0.3742 0.2461 0.315, -0.3566 0.2228 0.057, -0.3566 0.2228 0.057, -0.3613 0.2208 0.0567, -0.3613 0.2208 0.0567, -0.3654 0.2177 0.0566, -0.3685 0.2137 0.0567, -0.3685 0.2137 0.0567, -0.3705 0.209 0.057, -0.3705 0.209 0.057, -0.3937 0.2266 0.315, -0.3633 -0.2249 0.4282, -0.3623 -0.2211 0.4308, -0.3612 -0.2169 0.4325, -0.3623 -0.2164 0.4325, -0.364 -0.2147 0.4325, -0.3633 -0.2157 0.4325, -0.3645 -0.2136 0.4325, -0.3647 -0.2301 0.4205, -0.365 -0.2311 0.4167, -0.365 -0.2311 0.4167, -0.3696 -0.2291 0.4171, -0.3692 -0.2282 0.4205, -0.3697 -0.2291 0.4171, -0.373 -0.2253 0.4205, -0.3736 -0.226 0.4172, -0.3759 -0.2215 0.4205, -0.3767 -0.222 0.4171, -0.3767 -0.222 0.4171, -0.3777 -0.2171 0.4205, -0.3787 -0.2174 0.4167, -0.3787 -0.2173 0.4167, -0.3645 -0.2202 0.4308, -0.3664 -0.2188 0.4308, -0.3679 -0.2169 0.4308, -0.3688 -0.2147 0.4308, -0.3665 -0.2236 0.4282, -0.3692 -0.2215 0.4282, -0.3712 -0.2188 0.4282, -0.3725 -0.2157 0.4282, -0.3642 -0.2279 0.4247, -0.3681 -0.2263 0.4247, -0.3714 -0.2238 0.4247, -0.374 -0.2204 0.4247, -0.3756 -0.2165 0.4247, 0.3911 -0.2363 0.3151, 0.3911 -0.2363 0.3151, 0.393 -0.2316 0.3151, 0.393 -0.2315 0.3151, 0.388 -0.2403 0.3152, 0.384 -0.2434 0.3151, 0.3839 -0.2435 0.3151, 0.3793 -0.2454 0.3151, 0.3792 -0.2454 0.3151, 0.368 0.2039 0.0482, 0.3649 0.2039 0.0446, 0.3645 0.2074 0.0446, 0.3606 0.2063 0.0418, 0.3562 0.2052 0.04, 0.3557 0.2063 0.04, 0.354 0.2081 0.04, 0.355 0.2073 0.04, 0.3528 0.2086 0.04, 0.3564 0.2039 0.04, 0.3696 0.2087 0.0527, 0.3677 0.2132 0.0527, 0.3647 0.2171 0.0527, 0.3609 0.2201 0.0527, 0.3564 0.2219 0.0527, 0.3648 0.2039 0.0446, 0.3609 0.2039 0.0418, 0.3609 0.2039 0.0417, 0.3564 0.2039 0.04, 0.3597 0.2086 0.0418, 0.3582 0.2106 0.0418, 0.3562 0.212 0.0418, 0.354 0.213 0.0418, 0.3631 0.2106 0.0446, 0.361 0.2134 0.0446, 0.3582 0.2155 0.0446, 0.355 0.2168 0.0446, 0.3701 0.2039 0.0526, 0.3681 0.2039 0.0483, 0.3675 0.2082 0.0483, 0.3659 0.2122 0.0483, 0.3632 0.2156 0.0483, 0.3598 0.2182 0.0483, 0.3558 0.2199 0.0483, 0.3702 0.2039 0.0527, -0.355 0.2168 0.0446, -0.354 0.213 0.0418, -0.3528 0.2086 0.04, -0.354 0.2081 0.04, -0.3557 0.2063 0.04, -0.355 0.2073 0.04, -0.3562 0.2052 0.04, -0.3564 0.2219 0.0527, -0.3609 0.2201 0.0527, -0.3647 0.2171 0.0527, -0.3677 0.2132 0.0527, -0.3696 0.2087 0.0527, -0.3702 0.2039 0.0527, -0.3564 0.2039 0.04, -0.3562 0.212 0.0418, -0.3582 0.2106 0.0418, -0.3597 0.2086 0.0418, -0.3606 0.2063 0.0418, -0.3564 0.2039 0.04, -0.3609 0.2039 0.0417, -0.3609 0.2039 0.0418, -0.3648 0.2039 0.0446, -0.3582 0.2155 0.0446, -0.361 0.2134 0.0446, -0.3631 0.2106 0.0446, -0.3645 0.2074 0.0446, -0.3558 0.2199 0.0483, -0.3598 0.2182 0.0483, -0.3632 0.2156 0.0483, -0.3659 0.2122 0.0483, -0.3675 0.2082 0.0483, -0.3649 0.2039 0.0446, -0.368 0.2039 0.0482, -0.3681 0.2039 0.0483, -0.3701 0.2039 0.0526, -0.384 -0.2434 0.3151, -0.3839 -0.2435 0.3151, -0.3793 -0.2454 0.3151, -0.3792 -0.2454 0.3151, -0.388 -0.2403 0.3152, -0.3911 -0.2363 0.3151, -0.3911 -0.2363 0.3151, -0.393 -0.2316 0.3151, -0.393 -0.2315 0.3151, 0.3742 -0.2461 0.315, 0.3566 -0.2228 0.057, 0.3566 -0.2228 0.057, 0.3613 -0.2208 0.0567, 0.3613 -0.2208 0.0567, 0.3654 -0.2177 0.0566, 0.3685 -0.2137 0.0567, 0.3685 -0.2137 0.0567, 0.3705 -0.209 0.057, 0.3705 -0.209 0.057, 0.3937 -0.2266 0.315, 0.3702 -0.2039 0.0527, 0.3701 -0.2039 0.0526, 0.3681 -0.2039 0.0483, 0.368 -0.2039 0.0482, 0.3649 -0.2039 0.0446, 0.3648 -0.2039 0.0446, 0.3609 -0.2039 0.0418, 0.3609 -0.2039 0.0417, 0.3564 -0.2039 0.04, 0.3564 -0.2039 0.04, -0.3702 -0.2039 0.0527, -0.3701 -0.2039 0.0526, -0.3681 -0.2039 0.0483, -0.368 -0.2039 0.0482, -0.3649 -0.2039 0.0446, -0.3648 -0.2039 0.0446, -0.3609 -0.2039 0.0418, -0.3609 -0.2039 0.0417, -0.3564 -0.2039 0.04, -0.3564 -0.2039 0.04, -0.3937 -0.2266 0.315, -0.3705 -0.209 0.057, -0.3705 -0.209 0.057, -0.3685 -0.2137 0.0567, -0.3685 -0.2137 0.0567, -0.3654 -0.2177 0.0566, -0.3613 -0.2208 0.0567, -0.3613 -0.2208 0.0567, -0.3566 -0.2228 0.057, -0.3566 -0.2228 0.057, -0.3742 -0.2461 0.315, 0.3516 -0.2203 0.0482, 0.3516 -0.2173 0.0446, 0.355 -0.2168 0.0446, 0.354 -0.213 0.0418, 0.3528 -0.2086 0.04, 0.354 -0.2081 0.04, 0.3557 -0.2063 0.04, 0.355 -0.2073 0.04, 0.3562 -0.2052 0.04, 0.3516 -0.2087 0.04, 0.3564 -0.2219 0.0527, 0.3609 -0.2201 0.0527, 0.3647 -0.2171 0.0527, 0.3677 -0.2132 0.0527, 0.3696 -0.2087 0.0527, 0.3516 -0.2172 0.0446, 0.3516 -0.2133 0.0418, 0.3516 -0.2133 0.0417, 0.3516 -0.2088 0.04, 0.3562 -0.212 0.0418, 0.3582 -0.2106 0.0418, 0.3597 -0.2086 0.0418, 0.3606 -0.2063 0.0418, 0.3582 -0.2155 0.0446, 0.361 -0.2134 0.0446, 0.3631 -0.2106 0.0446, 0.3645 -0.2074 0.0446, 0.3516 -0.2225 0.0526, 0.3516 -0.2204 0.0483, 0.3558 -0.2199 0.0483, 0.3598 -0.2182 0.0483, 0.3632 -0.2156 0.0483, 0.3659 -0.2122 0.0483, 0.3675 -0.2082 0.0483, 0.3516 -0.2226 0.0527, -0.3645 -0.2074 0.0446, -0.3606 -0.2063 0.0418, -0.3562 -0.2052 0.04, -0.3557 -0.2063 0.04, -0.354 -0.2081 0.04, -0.355 -0.2073 0.04, -0.3528 -0.2086 0.04, -0.3696 -0.2087 0.0527, -0.3677 -0.2132 0.0527, -0.3647 -0.2171 0.0527, -0.3609 -0.2201 0.0527, -0.3564 -0.2219 0.0527, -0.3516 -0.2226 0.0527, -0.3516 -0.2087 0.04, -0.3597 -0.2086 0.0418, -0.3582 -0.2106 0.0418, -0.3562 -0.212 0.0418, -0.354 -0.213 0.0418, -0.3516 -0.2088 0.04, -0.3516 -0.2133 0.0417, -0.3516 -0.2133 0.0418, -0.3516 -0.2172 0.0446, -0.3631 -0.2106 0.0446, -0.361 -0.2134 0.0446, -0.3582 -0.2155 0.0446, -0.355 -0.2168 0.0446, -0.3675 -0.2082 0.0483, -0.3659 -0.2122 0.0483, -0.3632 -0.2156 0.0483, -0.3598 -0.2182 0.0483, -0.3558 -0.2199 0.0483, -0.3516 -0.2173 0.0446, -0.3516 -0.2203 0.0482, -0.3516 -0.2204 0.0483, -0.3516 -0.2225 0.0526
            ]
        }
        coordIndex [
            0,1,2,-1,2,1,3,-1,4,5,6,-1,6,5,7,-1,8,9,10,-1,10,9,11,-1,12,13,14,-1,12,14,15,-1,15,14,16,-1,16,14,17,-1,16,17,18,-1,19,20,21,-1,22,23,18,-1,21,22,19,-1,19,22,18,-1,19,18,24,-1,24,18,17,-1,24,17,25,-1,25,17,26,-1,23,27,18,-1,18,27,28,-1,18,28,29,-1,30,31,32,-1,30,32,33,-1,33,32,34,-1,33,34,35,-1,36,37,38,-1,36,38,39,-1,39,38,40,-1,39,40,41,-1,42,43,44,-1,42,44,45,-1,45,44,46,-1,46,44,47,-1,46,47,48,-1,49,50,51,-1,52,53,48,-1,51,52,49,-1,49,52,48,-1,49,48,54,-1,54,48,47,-1,54,47,55,-1,55,47,56,-1,53,57,48,-1,48,57,58,-1,48,58,59,-1,58,57,60,-1,61,51,50,-1,62,63,64,-1,50,62,61,-1,61,62,64,-1,61,64,60,-1,60,64,65,-1,60,65,58,-1,43,42,66,-1,66,42,64,-1,66,64,67,-1,67,64,63,-1,67,63,56,-1,56,63,55,-1,68,69,38,-1,38,69,40,-1,70,71,32,-1,32,71,34,-1,28,27,72,-1,73,21,20,-1,74,75,76,-1,20,74,73,-1,73,74,76,-1,73,76,72,-1,72,76,77,-1,72,77,28,-1,13,12,78,-1,78,12,76,-1,78,76,79,-1,79,76,75,-1,79,75,26,-1,26,75,25,-1,4,6,80,-1,80,6,81,-1,3,1,82,-1,82,1,83,-1,16,18,84,-1,84,18,85,-1,84,85,86,-1,86,85,87,-1,86,87,88,-1,88,87,89,-1,88,89,90,-1,90,89,91,-1,90,91,92,-1,92,91,93,-1,92,93,94,-1,94,93,95,-1,94,95,96,-1,96,95,97,-1,96,97,98,-1,98,97,99,-1,98,99,100,-1,100,99,101,-1,100,101,83,-1,83,101,80,-1,83,80,82,-1,82,80,81,-1,90,92,102,-1,103,104,105,-1,1,106,107,-1,108,106,1,-1,105,104,1,-1,83,1,104,-1,109,110,111,-1,110,109,112,-1,112,109,113,-1,112,113,114,-1,114,113,115,-1,114,115,116,-1,116,115,117,-1,116,117,118,-1,118,117,119,-1,119,117,120,-1,119,120,121,-1,121,120,122,-1,122,120,123,-1,122,123,39,-1,124,108,1,-1,94,96,103,-1,103,96,98,-1,103,98,104,-1,104,98,100,-1,104,100,83,-1,125,107,126,-1,126,107,106,-1,126,106,127,-1,127,106,108,-1,127,108,128,-1,124,129,108,-1,108,129,130,-1,108,130,128,-1,128,130,131,-1,128,131,132,-1,102,125,133,-1,133,125,126,-1,133,126,134,-1,134,126,127,-1,134,127,135,-1,135,127,128,-1,135,128,136,-1,136,128,132,-1,86,88,137,-1,137,88,90,-1,90,102,137,-1,137,102,133,-1,137,133,138,-1,138,133,134,-1,138,134,139,-1,139,134,135,-1,139,135,140,-1,140,135,136,-1,140,136,141,-1,92,94,102,-1,102,94,103,-1,102,103,125,-1,125,103,105,-1,125,105,107,-1,107,105,1,-1,86,109,84,-1,84,109,111,-1,84,111,16,-1,132,142,136,-1,136,142,143,-1,136,143,141,-1,141,143,144,-1,141,144,145,-1,86,137,109,-1,109,137,138,-1,109,138,113,-1,113,138,139,-1,113,139,115,-1,115,139,140,-1,115,140,117,-1,117,140,141,-1,117,141,120,-1,120,141,145,-1,120,145,123,-1,146,147,148,-1,149,150,151,-1,4,152,153,-1,154,152,4,-1,151,150,4,-1,155,4,150,-1,156,157,158,-1,157,156,159,-1,159,156,160,-1,159,160,161,-1,161,160,162,-1,161,162,163,-1,163,162,164,-1,163,164,165,-1,165,164,166,-1,166,164,167,-1,166,167,168,-1,168,167,169,-1,169,167,85,-1,169,85,18,-1,80,154,4,-1,170,171,149,-1,149,171,172,-1,149,172,150,-1,150,172,173,-1,150,173,155,-1,174,153,175,-1,175,153,152,-1,175,152,176,-1,176,152,154,-1,176,154,177,-1,80,101,154,-1,154,101,99,-1,154,99,177,-1,177,99,97,-1,177,97,95,-1,148,174,178,-1,178,174,175,-1,178,175,179,-1,179,175,176,-1,179,176,180,-1,180,176,177,-1,180,177,181,-1,181,177,95,-1,182,183,184,-1,184,183,146,-1,146,148,184,-1,184,148,178,-1,184,178,185,-1,185,178,179,-1,185,179,186,-1,186,179,180,-1,186,180,187,-1,187,180,181,-1,187,181,188,-1,147,170,148,-1,148,170,149,-1,148,149,174,-1,174,149,151,-1,174,151,153,-1,153,151,4,-1,182,156,189,-1,189,156,158,-1,189,158,30,-1,95,93,181,-1,181,93,91,-1,181,91,188,-1,188,91,89,-1,188,89,87,-1,182,184,156,-1,156,184,185,-1,156,185,160,-1,160,185,186,-1,160,186,162,-1,162,186,187,-1,162,187,164,-1,164,187,188,-1,164,188,167,-1,167,188,87,-1,167,87,85,-1,36,39,190,-1,190,39,123,-1,190,123,191,-1,191,123,145,-1,191,145,192,-1,192,145,144,-1,192,144,193,-1,193,144,143,-1,193,143,194,-1,194,143,142,-1,194,142,195,-1,195,142,132,-1,195,132,196,-1,196,132,131,-1,196,131,197,-1,197,131,130,-1,197,130,198,-1,198,130,129,-1,198,129,199,-1,129,124,199,-1,199,124,1,-1,199,1,0,-1,200,201,111,-1,111,201,202,-1,111,202,16,-1,16,202,203,-1,16,203,15,-1,111,110,200,-1,200,110,112,-1,200,112,204,-1,204,112,114,-1,122,39,41,-1,114,116,204,-1,204,116,118,-1,204,118,205,-1,205,118,119,-1,205,119,206,-1,206,119,121,-1,206,121,207,-1,207,121,122,-1,207,122,208,-1,208,122,41,-1,209,210,158,-1,158,210,211,-1,158,211,30,-1,30,211,212,-1,30,212,31,-1,158,157,209,-1,209,157,159,-1,209,159,213,-1,213,159,161,-1,169,18,29,-1,161,163,213,-1,213,163,165,-1,213,165,214,-1,214,165,166,-1,214,166,215,-1,215,166,168,-1,215,168,216,-1,216,168,169,-1,216,169,217,-1,217,169,29,-1,30,33,189,-1,189,33,218,-1,189,218,182,-1,182,218,219,-1,182,219,183,-1,183,219,220,-1,183,220,146,-1,146,220,221,-1,146,221,147,-1,147,221,222,-1,147,222,170,-1,170,222,223,-1,170,223,171,-1,171,223,224,-1,171,224,172,-1,172,224,225,-1,172,225,173,-1,173,225,226,-1,173,226,155,-1,226,227,155,-1,155,227,5,-1,155,5,4,-1,228,0,2,-1,7,5,229,-1,229,5,230,-1,229,230,231,-1,46,48,232,-1,232,48,233,-1,232,233,234,-1,234,233,235,-1,234,235,236,-1,236,235,237,-1,236,237,238,-1,238,237,239,-1,238,239,240,-1,240,239,241,-1,240,241,242,-1,242,241,243,-1,242,243,244,-1,244,243,245,-1,244,245,246,-1,246,245,247,-1,246,247,248,-1,248,247,249,-1,248,249,230,-1,230,249,228,-1,230,228,231,-1,231,228,2,-1,193,194,250,-1,251,252,253,-1,0,254,255,-1,256,254,0,-1,253,252,0,-1,199,0,252,-1,257,258,259,-1,258,257,260,-1,260,257,261,-1,260,261,262,-1,262,261,263,-1,262,263,264,-1,264,263,265,-1,264,265,266,-1,266,265,267,-1,267,265,268,-1,267,268,269,-1,269,268,270,-1,270,268,233,-1,270,233,48,-1,228,256,0,-1,195,196,251,-1,251,196,197,-1,251,197,252,-1,252,197,198,-1,252,198,199,-1,271,255,272,-1,272,255,254,-1,272,254,273,-1,273,254,256,-1,273,256,274,-1,228,249,256,-1,256,249,247,-1,256,247,274,-1,274,247,245,-1,274,245,243,-1,250,271,275,-1,275,271,272,-1,275,272,276,-1,276,272,273,-1,276,273,277,-1,277,273,274,-1,277,274,278,-1,278,274,243,-1,191,192,279,-1,279,192,193,-1,193,250,279,-1,279,250,275,-1,279,275,280,-1,280,275,276,-1,280,276,281,-1,281,276,277,-1,281,277,282,-1,282,277,278,-1,282,278,283,-1,194,195,250,-1,250,195,251,-1,250,251,271,-1,271,251,253,-1,271,253,255,-1,255,253,0,-1,191,257,190,-1,190,257,259,-1,190,259,36,-1,243,241,278,-1,278,241,239,-1,278,239,283,-1,283,239,237,-1,283,237,235,-1,191,279,257,-1,257,279,280,-1,257,280,261,-1,261,280,281,-1,261,281,263,-1,263,281,282,-1,263,282,265,-1,265,282,283,-1,265,283,268,-1,268,283,235,-1,268,235,233,-1,40,69,284,-1,284,69,285,-1,284,285,208,-1,208,285,207,-1,207,285,286,-1,207,286,206,-1,206,286,287,-1,206,287,205,-1,205,287,288,-1,205,288,204,-1,204,288,289,-1,204,289,200,-1,200,289,290,-1,200,290,201,-1,201,290,291,-1,201,291,202,-1,202,291,292,-1,202,292,203,-1,203,292,293,-1,203,293,294,-1,294,293,76,-1,294,76,12,-1,77,76,295,-1,295,76,296,-1,295,296,297,-1,297,296,298,-1,297,298,299,-1,299,298,300,-1,299,300,301,-1,301,300,302,-1,301,302,303,-1,303,302,304,-1,303,304,305,-1,305,304,306,-1,305,306,307,-1,307,306,308,-1,307,308,309,-1,309,308,310,-1,309,310,311,-1,311,310,312,-1,311,312,313,-1,312,314,313,-1,313,314,11,-1,313,11,9,-1,28,77,315,-1,315,77,316,-1,315,316,217,-1,217,316,216,-1,216,316,317,-1,216,317,215,-1,215,317,318,-1,215,318,214,-1,214,318,319,-1,214,319,213,-1,213,319,320,-1,213,320,209,-1,209,320,321,-1,209,321,210,-1,210,321,322,-1,210,322,211,-1,211,322,323,-1,211,323,212,-1,212,323,324,-1,212,324,325,-1,325,324,70,-1,325,70,32,-1,238,240,326,-1,327,328,329,-1,5,330,331,-1,332,330,5,-1,329,328,5,-1,230,5,328,-1,333,334,335,-1,334,333,336,-1,336,333,337,-1,336,337,338,-1,338,337,339,-1,338,339,340,-1,340,339,341,-1,340,341,342,-1,342,341,343,-1,343,341,344,-1,343,344,345,-1,345,344,346,-1,346,344,218,-1,346,218,33,-1,227,332,5,-1,242,244,327,-1,327,244,246,-1,327,246,328,-1,328,246,248,-1,328,248,230,-1,347,331,348,-1,348,331,330,-1,348,330,349,-1,349,330,332,-1,349,332,350,-1,227,226,332,-1,332,226,225,-1,332,225,350,-1,350,225,224,-1,350,224,223,-1,326,347,351,-1,351,347,348,-1,351,348,352,-1,352,348,349,-1,352,349,353,-1,353,349,350,-1,353,350,354,-1,354,350,223,-1,234,236,355,-1,355,236,238,-1,238,326,355,-1,355,326,351,-1,355,351,356,-1,356,351,352,-1,356,352,357,-1,357,352,353,-1,357,353,358,-1,358,353,354,-1,358,354,359,-1,240,242,326,-1,326,242,327,-1,326,327,347,-1,347,327,329,-1,347,329,331,-1,331,329,5,-1,234,333,232,-1,232,333,335,-1,232,335,46,-1,223,222,354,-1,354,222,221,-1,354,221,359,-1,359,221,220,-1,359,220,219,-1,234,355,333,-1,333,355,356,-1,333,356,337,-1,337,356,357,-1,337,357,339,-1,339,357,358,-1,339,358,341,-1,341,358,359,-1,341,359,344,-1,344,359,219,-1,344,219,218,-1,360,361,259,-1,259,361,362,-1,259,362,36,-1,36,362,363,-1,36,363,37,-1,259,258,360,-1,360,258,260,-1,360,260,364,-1,364,260,262,-1,270,48,59,-1,262,264,364,-1,364,264,266,-1,364,266,365,-1,365,266,267,-1,365,267,366,-1,366,267,269,-1,366,269,367,-1,367,269,270,-1,367,270,368,-1,368,270,59,-1,369,370,371,-1,372,373,374,-1,11,375,376,-1,377,375,11,-1,374,373,11,-1,378,11,373,-1,379,286,285,-1,286,379,287,-1,287,379,380,-1,287,380,288,-1,288,380,381,-1,288,381,289,-1,289,381,382,-1,289,382,290,-1,290,382,291,-1,291,382,383,-1,291,383,292,-1,292,383,293,-1,293,383,296,-1,293,296,76,-1,314,377,11,-1,384,385,372,-1,372,385,386,-1,372,386,373,-1,373,386,387,-1,373,387,378,-1,388,376,389,-1,389,376,375,-1,389,375,390,-1,390,375,377,-1,390,377,391,-1,314,312,377,-1,377,312,310,-1,377,310,391,-1,391,310,308,-1,391,308,306,-1,371,388,392,-1,392,388,389,-1,392,389,393,-1,393,389,390,-1,393,390,394,-1,394,390,391,-1,394,391,395,-1,395,391,306,-1,396,397,398,-1,398,397,369,-1,369,371,398,-1,398,371,392,-1,398,392,399,-1,399,392,393,-1,399,393,400,-1,400,393,394,-1,400,394,401,-1,401,394,395,-1,401,395,402,-1,370,384,371,-1,371,384,372,-1,371,372,388,-1,388,372,374,-1,388,374,376,-1,376,374,11,-1,396,379,403,-1,403,379,285,-1,403,285,69,-1,306,304,395,-1,395,304,302,-1,395,302,402,-1,402,302,300,-1,402,300,298,-1,396,398,379,-1,379,398,399,-1,379,399,380,-1,380,399,400,-1,380,400,381,-1,381,400,401,-1,381,401,382,-1,382,401,402,-1,382,402,383,-1,383,402,298,-1,383,298,296,-1,301,303,404,-1,405,406,407,-1,9,408,409,-1,410,408,9,-1,407,406,9,-1,313,9,406,-1,411,317,316,-1,317,411,318,-1,318,411,412,-1,318,412,319,-1,319,412,413,-1,319,413,320,-1,320,413,414,-1,320,414,321,-1,321,414,322,-1,322,414,415,-1,322,415,323,-1,323,415,324,-1,324,415,416,-1,324,416,70,-1,417,410,9,-1,305,307,405,-1,405,307,309,-1,405,309,406,-1,406,309,311,-1,406,311,313,-1,418,409,419,-1,419,409,408,-1,419,408,420,-1,420,408,410,-1,420,410,421,-1,417,422,410,-1,410,422,423,-1,410,423,421,-1,421,423,424,-1,421,424,425,-1,404,418,426,-1,426,418,419,-1,426,419,427,-1,427,419,420,-1,427,420,428,-1,428,420,421,-1,428,421,429,-1,429,421,425,-1,297,299,430,-1,430,299,301,-1,301,404,430,-1,430,404,426,-1,430,426,431,-1,431,426,427,-1,431,427,432,-1,432,427,428,-1,432,428,433,-1,433,428,429,-1,433,429,434,-1,303,305,404,-1,404,305,405,-1,404,405,418,-1,418,405,407,-1,418,407,409,-1,409,407,9,-1,297,411,295,-1,295,411,316,-1,295,316,77,-1,425,435,429,-1,429,435,436,-1,429,436,434,-1,434,436,437,-1,434,437,438,-1,297,430,411,-1,411,430,431,-1,411,431,412,-1,412,431,432,-1,412,432,413,-1,413,432,433,-1,413,433,414,-1,414,433,434,-1,414,434,415,-1,415,434,438,-1,415,438,416,-1,439,440,335,-1,335,440,441,-1,335,441,46,-1,46,441,442,-1,46,442,45,-1,335,334,439,-1,439,334,336,-1,439,336,443,-1,443,336,338,-1,346,33,35,-1,338,340,443,-1,443,340,342,-1,443,342,444,-1,444,342,343,-1,444,343,445,-1,445,343,345,-1,445,345,446,-1,446,345,346,-1,446,346,447,-1,447,346,35,-1,58,65,448,-1,448,65,449,-1,448,449,368,-1,368,449,367,-1,367,449,450,-1,367,450,366,-1,366,450,451,-1,366,451,365,-1,365,451,452,-1,365,452,364,-1,364,452,453,-1,364,453,360,-1,360,453,454,-1,360,454,361,-1,361,454,455,-1,361,455,362,-1,362,455,456,-1,362,456,363,-1,363,456,457,-1,363,457,458,-1,458,457,68,-1,458,68,38,-1,69,68,403,-1,403,68,459,-1,403,459,396,-1,396,459,460,-1,396,460,397,-1,397,460,461,-1,397,461,369,-1,369,461,462,-1,369,462,370,-1,370,462,463,-1,370,463,384,-1,384,463,464,-1,384,464,385,-1,385,464,465,-1,385,465,386,-1,386,465,466,-1,386,466,387,-1,387,466,467,-1,387,467,378,-1,467,468,378,-1,378,468,10,-1,378,10,11,-1,71,70,469,-1,469,70,416,-1,469,416,470,-1,470,416,438,-1,470,438,471,-1,471,438,437,-1,471,437,472,-1,472,437,436,-1,472,436,473,-1,473,436,435,-1,473,435,474,-1,474,435,425,-1,474,425,475,-1,475,425,424,-1,475,424,476,-1,476,424,423,-1,476,423,477,-1,477,423,422,-1,477,422,478,-1,422,417,478,-1,478,417,9,-1,478,9,8,-1,34,71,479,-1,479,71,480,-1,479,480,447,-1,447,480,446,-1,446,480,481,-1,446,481,445,-1,445,481,482,-1,445,482,444,-1,444,482,483,-1,444,483,443,-1,443,483,484,-1,443,484,439,-1,439,484,485,-1,439,485,440,-1,440,485,486,-1,440,486,441,-1,441,486,487,-1,441,487,442,-1,442,487,488,-1,442,488,489,-1,489,488,64,-1,489,64,42,-1,490,491,492,-1,493,494,495,-1,10,496,497,-1,498,496,10,-1,495,494,10,-1,499,10,494,-1,500,450,449,-1,450,500,451,-1,451,500,501,-1,451,501,452,-1,452,501,502,-1,452,502,453,-1,453,502,503,-1,453,503,454,-1,454,503,455,-1,455,503,504,-1,455,504,456,-1,456,504,457,-1,457,504,459,-1,457,459,68,-1,468,498,10,-1,505,506,493,-1,493,506,507,-1,493,507,494,-1,494,507,508,-1,494,508,499,-1,509,497,510,-1,510,497,496,-1,510,496,511,-1,511,496,498,-1,511,498,512,-1,468,467,498,-1,498,467,466,-1,498,466,512,-1,512,466,465,-1,512,465,464,-1,492,509,513,-1,513,509,510,-1,513,510,514,-1,514,510,511,-1,514,511,515,-1,515,511,512,-1,515,512,516,-1,516,512,464,-1,517,518,519,-1,519,518,490,-1,490,492,519,-1,519,492,513,-1,519,513,520,-1,520,513,514,-1,520,514,521,-1,521,514,515,-1,521,515,522,-1,522,515,516,-1,522,516,523,-1,491,505,492,-1,492,505,493,-1,492,493,509,-1,509,493,495,-1,509,495,497,-1,497,495,10,-1,517,500,524,-1,524,500,449,-1,524,449,65,-1,464,463,516,-1,516,463,462,-1,516,462,523,-1,523,462,461,-1,523,461,460,-1,517,519,500,-1,500,519,520,-1,500,520,501,-1,501,520,521,-1,501,521,502,-1,502,521,522,-1,502,522,503,-1,503,522,523,-1,503,523,504,-1,504,523,460,-1,504,460,459,-1,472,473,525,-1,526,527,528,-1,8,529,530,-1,531,529,8,-1,528,527,8,-1,478,8,527,-1,532,481,480,-1,481,532,482,-1,482,532,533,-1,482,533,483,-1,483,533,534,-1,483,534,484,-1,484,534,535,-1,484,535,485,-1,485,535,486,-1,486,535,536,-1,486,536,487,-1,487,536,488,-1,488,536,537,-1,488,537,64,-1,538,531,8,-1,474,475,526,-1,526,475,476,-1,526,476,527,-1,527,476,477,-1,527,477,478,-1,539,530,540,-1,540,530,529,-1,540,529,541,-1,541,529,531,-1,541,531,542,-1,538,543,531,-1,531,543,544,-1,531,544,542,-1,542,544,545,-1,542,545,546,-1,525,539,547,-1,547,539,540,-1,547,540,548,-1,548,540,541,-1,548,541,549,-1,549,541,542,-1,549,542,550,-1,550,542,546,-1,470,471,551,-1,551,471,472,-1,472,525,551,-1,551,525,547,-1,551,547,552,-1,552,547,548,-1,552,548,553,-1,553,548,549,-1,553,549,554,-1,554,549,550,-1,554,550,555,-1,473,474,525,-1,525,474,526,-1,525,526,539,-1,539,526,528,-1,539,528,530,-1,530,528,8,-1,470,532,469,-1,469,532,480,-1,469,480,71,-1,546,556,550,-1,550,556,557,-1,550,557,555,-1,555,557,558,-1,555,558,559,-1,470,551,532,-1,532,551,552,-1,532,552,533,-1,533,552,553,-1,533,553,534,-1,534,553,554,-1,534,554,535,-1,535,554,555,-1,535,555,536,-1,536,555,559,-1,536,559,537,-1,65,64,524,-1,524,64,537,-1,524,537,517,-1,517,537,559,-1,517,559,518,-1,518,559,558,-1,518,558,490,-1,490,558,557,-1,490,557,491,-1,491,557,556,-1,491,556,505,-1,505,556,546,-1,505,546,506,-1,506,546,545,-1,506,545,507,-1,507,545,544,-1,507,544,508,-1,508,544,543,-1,508,543,499,-1,543,538,499,-1,499,538,8,-1,499,8,10,-1,
        ]
    }
}
Shape{
    appearance Appearance {
        material  Material 	{
            diffuseColor 0.4392156862745098 0.4392156862745098 0.4392156862745098
            specularColor 0.2196078431372549 0.2196078431372549 0.2196078431372549
            ambientIntensity 0.4392
            transparency 0.0
            shininess 0.5
        }
    }
    geometry IndexedFaceSet {
        ccw TRUE
        solid FALSE
        coord DEF co Coordinate {
            point [
                -0.2282 0.2136 0.433, -0.2282 -0.2136 0.433, -0.2282 0.2124 0.4331, -0.2282 -0.2124 0.4331, -0.3109 -0.2124 0.4331, -0.3109 -0.2136 0.433, -0.3109 0.2124 0.4331, -0.3109 0.2136 0.433
            ]
        }
        coordIndex [
            0,1,2,-1,2,1,3,-1,4,5,6,-1,6,5,7,-1,5,1,7,-1,7,1,0,-1,
        ]
    }
}
Shape{
    appearance Appearance {
        material  Material 	{
            diffuseColor 0.8509803921568627 0.8509803921568627 0.8509803921568627
            specularColor 0.4235294117647059 0.4235294117647059 0.4235294117647059
            ambientIntensity 0.851
            transparency 0.0
            shininess 0.5
        }
    }
    geometry IndexedFaceSet {
        ccw TRUE
        solid FALSE
        coord DEF co Coordinate {
            point [
                -0.2116 -0.4134 0.0591, -0.2116 -0.3248 0.0591, -0.3002 -0.4134 0.0591, -0.3002 -0.3248 0.0591, -0.2116 -0.4134 0.0, -0.3002 -0.4134 0.0, -0.2116 -0.3248 0.0, -0.3002 -0.3248 0.0, -0.3002 -0.307 0.0023, -0.2116 -0.307 0.0023, -0.3002 -0.2904 0.0092, -0.2116 -0.2904 0.0092, -0.3002 -0.2761 0.0202, -0.2116 -0.2761 0.0202, -0.3002 -0.2651 0.0344, -0.2116 -0.2651 0.0344, -0.3002 -0.2583 0.0511, -0.2116 -0.2583 0.0511, -0.3002 -0.2559 0.0689, -0.2116 -0.2559 0.0689, -0.2116 -0.2559 0.2756, -0.3002 -0.2559 0.2756, -0.2116 -0.2556 0.2781, -0.3002 -0.2556 0.2781, -0.2116 -0.2546 0.2805, -0.3002 -0.2546 0.2805, -0.2116 -0.253 0.2826, -0.3002 -0.253 0.2826, -0.2116 -0.251 0.2841, -0.3002 -0.251 0.2841, -0.2116 -0.2486 0.2851, -0.3002 -0.2486 0.2851, -0.2116 -0.2461 0.2854, -0.3002 -0.2461 0.2854, -0.2116 -0.2435 0.2854, -0.3002 -0.2435 0.2854, -0.3002 -0.2461 0.3445, -0.2116 -0.2461 0.3445, -0.3002 -0.2419 0.3445, -0.2116 -0.2419 0.3445, -0.3002 -0.2639 0.3421, -0.2116 -0.2639 0.3421, -0.3002 -0.2805 0.3353, -0.2116 -0.2805 0.3353, -0.3002 -0.2948 0.3243, -0.2116 -0.2948 0.3243, -0.3002 -0.3057 0.31, -0.2116 -0.3057 0.31, -0.3002 -0.3126 0.2934, -0.2116 -0.3126 0.2934, -0.3002 -0.315 0.2756, -0.2116 -0.315 0.2756, -0.2116 -0.315 0.0689, -0.3002 -0.315 0.0689, -0.2116 -0.3153 0.0664, -0.3002 -0.3153 0.0664, -0.2116 -0.3163 0.064, -0.3002 -0.3163 0.064, -0.2116 -0.3178 0.0619, -0.3002 -0.3178 0.0619, -0.2116 -0.3199 0.0604, -0.3002 -0.3199 0.0604, -0.2116 -0.3223 0.0594, -0.3002 -0.3223 0.0594, -0.2116 -0.2461 0.315, -0.3002 -0.2461 0.315, -0.2116 0.3248 0.0591, -0.2116 0.4134 0.0591, -0.3002 0.3248 0.0591, -0.3002 0.4134 0.0591, -0.2116 0.3223 0.0594, -0.3002 0.3223 0.0594, -0.2116 0.3199 0.0604, -0.3002 0.3199 0.0604, -0.2116 0.3178 0.0619, -0.3002 0.3178 0.0619, -0.2116 0.3163 0.064, -0.3002 0.3163 0.064, -0.2116 0.3153 0.0664, -0.3002 0.3153 0.0664, -0.2116 0.315 0.0689, -0.3002 0.315 0.0689, -0.2116 0.315 0.2756, -0.3002 0.315 0.2756, -0.3002 0.3126 0.2934, -0.2116 0.3126 0.2934, -0.3002 0.3057 0.31, -0.2116 0.3057 0.31, -0.3002 0.2948 0.3243, -0.2116 0.2948 0.3243, -0.3002 0.2805 0.3353, -0.2116 0.2805 0.3353, -0.3002 0.2639 0.3421, -0.2116 0.2639 0.3421, -0.3002 0.2461 0.3445, -0.2116 0.2461 0.3445, -0.2116 0.2419 0.3445, -0.3002 0.2419 0.3445, -0.3002 0.2461 0.2854, -0.2116 0.2461 0.2854, -0.3002 0.2435 0.2854, -0.2116 0.2435 0.2854, -0.2116 0.2486 0.2851, -0.3002 0.2486 0.2851, -0.2116 0.251 0.2841, -0.3002 0.251 0.2841, -0.2116 0.253 0.2826, -0.3002 0.253 0.2826, -0.2116 0.2546 0.2805, -0.3002 0.2546 0.2805, -0.2116 0.2556 0.2781, -0.3002 0.2556 0.2781, -0.2116 0.2559 0.2756, -0.3002 0.2559 0.2756, -0.2116 0.2559 0.0689, -0.3002 0.2559 0.0689, -0.3002 0.2583 0.0511, -0.2116 0.2583 0.0511, -0.3002 0.2651 0.0344, -0.2116 0.2651 0.0344, -0.3002 0.2761 0.0202, -0.2116 0.2761 0.0202, -0.3002 0.2904 0.0092, -0.2116 0.2904 0.0092, -0.3002 0.307 0.0023, -0.2116 0.307 0.0023, -0.3002 0.3248 0.0, -0.2116 0.3248 0.0, -0.2116 0.4134 0.0, -0.3002 0.4134 0.0, -0.2116 0.2461 0.315, -0.3002 0.2461 0.315, 0.0443 0.3248 0.0591, 0.0443 0.4134 0.0591, -0.0443 0.3248 0.0591, -0.0443 0.4134 0.0591, 0.0443 0.3223 0.0594, -0.0443 0.3223 0.0594, 0.0443 0.3199 0.0604, -0.0443 0.3199 0.0604, 0.0443 0.3178 0.0619, -0.0443 0.3178 0.0619, 0.0443 0.3163 0.064, -0.0443 0.3163 0.064, 0.0443 0.3153 0.0664, -0.0443 0.3153 0.0664, 0.0443 0.315 0.0689, -0.0443 0.315 0.0689, 0.0443 0.315 0.2756, -0.0443 0.315 0.2756, -0.0443 0.3126 0.2934, 0.0443 0.3126 0.2934, -0.0443 0.3057 0.31, 0.0443 0.3057 0.31, -0.0443 0.2948 0.3243, 0.0443 0.2948 0.3243, -0.0443 0.2805 0.3353, 0.0443 0.2805 0.3353, -0.0443 0.2639 0.3421, 0.0443 0.2639 0.3421, -0.0443 0.2461 0.3445, 0.0443 0.2461 0.3445, 0.0443 0.2419 0.3445, -0.0443 0.2419 0.3445, -0.0443 0.2461 0.2854, 0.0443 0.2461 0.2854, -0.0443 0.2435 0.2854, 0.0443 0.2435 0.2854, 0.0443 0.2486 0.2851, -0.0443 0.2486 0.2851, 0.0443 0.251 0.2841, -0.0443 0.251 0.2841, 0.0443 0.253 0.2826, -0.0443 0.253 0.2826, 0.0443 0.2546 0.2805, -0.0443 0.2546 0.2805, 0.0443 0.2556 0.2781, -0.0443 0.2556 0.2781, 0.0443 0.2559 0.2756, -0.0443 0.2559 0.2756, 0.0443 0.2559 0.0689, -0.0443 0.2559 0.0689, -0.0443 0.2583 0.0511, 0.0443 0.2583 0.0511, -0.0443 0.2651 0.0344, 0.0443 0.2651 0.0344, -0.0443 0.2761 0.0202, 0.0443 0.2761 0.0202, -0.0443 0.2904 0.0092, 0.0443 0.2904 0.0092, -0.0443 0.307 0.0023, 0.0443 0.307 0.0023, -0.0443 0.3248 0.0, 0.0443 0.3248 0.0, 0.0443 0.4134 0.0, -0.0443 0.4134 0.0, 0.0443 0.2461 0.315, -0.0443 0.2461 0.315, 0.3002 0.3248 0.0591, 0.3002 0.4134 0.0591, 0.2116 0.3248 0.0591, 0.2116 0.4134 0.0591, 0.3002 0.3223 0.0594, 0.2116 0.3223 0.0594, 0.3002 0.3199 0.0604, 0.2116 0.3199 0.0604, 0.3002 0.3178 0.0619, 0.2116 0.3178 0.0619, 0.3002 0.3163 0.064, 0.2116 0.3163 0.064, 0.3002 0.3153 0.0664, 0.2116 0.3153 0.0664, 0.3002 0.315 0.0689, 0.2116 0.315 0.0689, 0.3002 0.315 0.2756, 0.2116 0.315 0.2756, 0.2116 0.3126 0.2934, 0.3002 0.3126 0.2934, 0.2116 0.3057 0.31, 0.3002 0.3057 0.31, 0.2116 0.2948 0.3243, 0.3002 0.2948 0.3243, 0.2116 0.2805 0.3353, 0.3002 0.2805 0.3353, 0.2116 0.2639 0.3421, 0.3002 0.2639 0.3421, 0.2116 0.2461 0.3445, 0.3002 0.2461 0.3445, 0.3002 0.2419 0.3445, 0.2116 0.2419 0.3445, 0.2116 0.2461 0.2854, 0.3002 0.2461 0.2854, 0.2116 0.2435 0.2854, 0.3002 0.2435 0.2854, 0.3002 0.2486 0.2851, 0.2116 0.2486 0.2851, 0.3002 0.251 0.2841, 0.2116 0.251 0.2841, 0.3002 0.253 0.2826, 0.2116 0.253 0.2826, 0.3002 0.2546 0.2805, 0.2116 0.2546 0.2805, 0.3002 0.2556 0.2781, 0.2116 0.2556 0.2781, 0.3002 0.2559 0.2756, 0.2116 0.2559 0.2756, 0.3002 0.2559 0.0689, 0.2116 0.2559 0.0689, 0.2116 0.2583 0.0511, 0.3002 0.2583 0.0511, 0.2116 0.2651 0.0344, 0.3002 0.2651 0.0344, 0.2116 0.2761 0.0202, 0.3002 0.2761 0.0202, 0.2116 0.2904 0.0092, 0.3002 0.2904 0.0092, 0.2116 0.307 0.0023, 0.3002 0.307 0.0023, 0.2116 0.3248 0.0, 0.3002 0.3248 0.0, 0.3002 0.4134 0.0, 0.2116 0.4134 0.0, 0.3002 0.2461 0.315, 0.2116 0.2461 0.315, 0.0443 -0.4134 0.0591, 0.0443 -0.3248 0.0591, -0.0443 -0.4134 0.0591, -0.0443 -0.3248 0.0591, 0.0443 -0.4134 0.0, -0.0443 -0.4134 0.0, 0.0443 -0.3248 0.0, -0.0443 -0.3248 0.0, -0.0443 -0.307 0.0023, 0.0443 -0.307 0.0023, -0.0443 -0.2904 0.0092, 0.0443 -0.2904 0.0092, -0.0443 -0.2761 0.0202, 0.0443 -0.2761 0.0202, -0.0443 -0.2651 0.0344, 0.0443 -0.2651 0.0344, -0.0443 -0.2583 0.0511, 0.0443 -0.2583 0.0511, -0.0443 -0.2559 0.0689, 0.0443 -0.2559 0.0689, 0.0443 -0.2559 0.2756, -0.0443 -0.2559 0.2756, 0.0443 -0.2556 0.2781, -0.0443 -0.2556 0.2781, 0.0443 -0.2546 0.2805, -0.0443 -0.2546 0.2805, 0.0443 -0.253 0.2826, -0.0443 -0.253 0.2826, 0.0443 -0.251 0.2841, -0.0443 -0.251 0.2841, 0.0443 -0.2486 0.2851, -0.0443 -0.2486 0.2851, 0.0443 -0.2461 0.2854, -0.0443 -0.2461 0.2854, 0.0443 -0.2435 0.2854, -0.0443 -0.2435 0.2854, -0.0443 -0.2461 0.3445, 0.0443 -0.2461 0.3445, -0.0443 -0.2419 0.3445, 0.0443 -0.2419 0.3445, -0.0443 -0.2639 0.3421, 0.0443 -0.2639 0.3421, -0.0443 -0.2805 0.3353, 0.0443 -0.2805 0.3353, -0.0443 -0.2948 0.3243, 0.0443 -0.2948 0.3243, -0.0443 -0.3057 0.31, 0.0443 -0.3057 0.31, -0.0443 -0.3126 0.2934, 0.0443 -0.3126 0.2934, -0.0443 -0.315 0.2756, 0.0443 -0.315 0.2756, 0.0443 -0.315 0.0689, -0.0443 -0.315 0.0689, 0.0443 -0.3153 0.0664, -0.0443 -0.3153 0.0664, 0.0443 -0.3163 0.064, -0.0443 -0.3163 0.064, 0.0443 -0.3178 0.0619, -0.0443 -0.3178 0.0619, 0.0443 -0.3199 0.0604, -0.0443 -0.3199 0.0604, 0.0443 -0.3223 0.0594, -0.0443 -0.3223 0.0594, 0.0443 -0.2461 0.315, -0.0443 -0.2461 0.315, 0.3002 -0.4134 0.0591, 0.3002 -0.3248 0.0591, 0.2116 -0.4134 0.0591, 0.2116 -0.3248 0.0591, 0.3002 -0.4134 0.0, 0.2116 -0.4134 0.0, 0.3002 -0.3248 0.0, 0.2116 -0.3248 0.0, 0.2116 -0.307 0.0023, 0.3002 -0.307 0.0023, 0.2116 -0.2904 0.0092, 0.3002 -0.2904 0.0092, 0.2116 -0.2761 0.0202, 0.3002 -0.2761 0.0202, 0.2116 -0.2651 0.0344, 0.3002 -0.2651 0.0344, 0.2116 -0.2583 0.0511, 0.3002 -0.2583 0.0511, 0.2116 -0.2559 0.0689, 0.3002 -0.2559 0.0689, 0.3002 -0.2559 0.2756, 0.2116 -0.2559 0.2756, 0.3002 -0.2556 0.2781, 0.2116 -0.2556 0.2781, 0.3002 -0.2546 0.2805, 0.2116 -0.2546 0.2805, 0.3002 -0.253 0.2826, 0.2116 -0.253 0.2826, 0.3002 -0.251 0.2841, 0.2116 -0.251 0.2841, 0.3002 -0.2486 0.2851, 0.2116 -0.2486 0.2851, 0.3002 -0.2461 0.2854, 0.2116 -0.2461 0.2854, 0.3002 -0.2435 0.2854, 0.2116 -0.2435 0.2854, 0.2116 -0.2461 0.3445, 0.3002 -0.2461 0.3445, 0.2116 -0.2419 0.3445, 0.3002 -0.2419 0.3445, 0.2116 -0.2639 0.3421, 0.3002 -0.2639 0.3421, 0.2116 -0.2805 0.3353, 0.3002 -0.2805 0.3353, 0.2116 -0.2948 0.3243, 0.3002 -0.2948 0.3243, 0.2116 -0.3057 0.31, 0.3002 -0.3057 0.31, 0.2116 -0.3126 0.2934, 0.3002 -0.3126 0.2934, 0.2116 -0.315 0.2756, 0.3002 -0.315 0.2756, 0.3002 -0.315 0.0689, 0.2116 -0.315 0.0689, 0.3002 -0.3153 0.0664, 0.2116 -0.3153 0.0664, 0.3002 -0.3163 0.064, 0.2116 -0.3163 0.064, 0.3002 -0.3178 0.0619, 0.2116 -0.3178 0.0619, 0.3002 -0.3199 0.0604, 0.2116 -0.3199 0.0604, 0.3002 -0.3223 0.0594, 0.2116 -0.3223 0.0594, 0.3002 -0.2461 0.315, 0.2116 -0.2461 0.315
            ]
        }
        coordIndex [
            0,1,2,-1,2,1,3,-1,4,0,5,-1,5,0,2,-1,6,4,7,-1,7,4,5,-1,6,7,8,-1,6,8,9,-1,9,8,10,-1,9,10,11,-1,11,10,12,-1,11,12,13,-1,13,12,14,-1,13,14,15,-1,15,14,16,-1,15,16,17,-1,17,16,18,-1,17,18,19,-1,20,19,21,-1,21,19,18,-1,20,21,22,-1,22,21,23,-1,22,23,24,-1,24,23,25,-1,24,25,26,-1,26,25,27,-1,26,27,28,-1,28,27,29,-1,28,29,30,-1,30,29,31,-1,30,31,32,-1,32,31,33,-1,34,32,35,-1,35,32,33,-1,36,37,38,-1,38,37,39,-1,37,36,40,-1,37,40,41,-1,41,40,42,-1,41,42,43,-1,43,42,44,-1,43,44,45,-1,45,44,46,-1,45,46,47,-1,47,46,48,-1,47,48,49,-1,49,48,50,-1,49,50,51,-1,52,51,53,-1,53,51,50,-1,52,53,54,-1,54,53,55,-1,54,55,56,-1,56,55,57,-1,56,57,58,-1,58,57,59,-1,58,59,60,-1,60,59,61,-1,60,61,62,-1,62,61,63,-1,62,63,1,-1,1,63,3,-1,41,64,37,-1,37,64,39,-1,0,4,1,-1,1,4,6,-1,1,6,62,-1,62,6,9,-1,62,9,60,-1,60,9,11,-1,60,11,58,-1,58,11,13,-1,58,13,56,-1,56,13,15,-1,56,15,54,-1,54,15,17,-1,54,17,52,-1,52,17,19,-1,52,19,51,-1,51,19,20,-1,51,20,49,-1,49,20,22,-1,49,22,47,-1,47,22,24,-1,47,24,45,-1,45,24,26,-1,45,26,43,-1,43,26,28,-1,43,28,41,-1,41,28,30,-1,41,30,64,-1,64,30,32,-1,64,32,34,-1,38,65,36,-1,36,65,40,-1,5,2,7,-1,7,2,3,-1,7,3,8,-1,8,3,63,-1,8,63,10,-1,10,63,61,-1,10,61,12,-1,12,61,59,-1,12,59,14,-1,14,59,57,-1,14,57,16,-1,16,57,55,-1,16,55,18,-1,18,55,53,-1,18,53,21,-1,21,53,50,-1,21,50,23,-1,23,50,48,-1,23,48,25,-1,25,48,46,-1,25,46,27,-1,27,46,44,-1,27,44,29,-1,29,44,42,-1,29,42,31,-1,31,42,40,-1,31,40,33,-1,33,40,65,-1,33,65,35,-1,66,67,68,-1,68,67,69,-1,66,68,70,-1,70,68,71,-1,70,71,72,-1,72,71,73,-1,72,73,74,-1,74,73,75,-1,74,75,76,-1,76,75,77,-1,76,77,78,-1,78,77,79,-1,78,79,80,-1,80,79,81,-1,82,80,83,-1,83,80,81,-1,82,83,84,-1,82,84,85,-1,85,84,86,-1,85,86,87,-1,87,86,88,-1,87,88,89,-1,89,88,90,-1,89,90,91,-1,91,90,92,-1,91,92,93,-1,93,92,94,-1,93,94,95,-1,96,95,97,-1,97,95,94,-1,98,99,100,-1,100,99,101,-1,99,98,102,-1,102,98,103,-1,102,103,104,-1,104,103,105,-1,104,105,106,-1,106,105,107,-1,106,107,108,-1,108,107,109,-1,108,109,110,-1,110,109,111,-1,110,111,112,-1,112,111,113,-1,114,112,115,-1,115,112,113,-1,114,115,116,-1,114,116,117,-1,117,116,118,-1,117,118,119,-1,119,118,120,-1,119,120,121,-1,121,120,122,-1,121,122,123,-1,123,122,124,-1,123,124,125,-1,125,124,126,-1,125,126,127,-1,128,127,129,-1,129,127,126,-1,67,128,69,-1,69,128,129,-1,96,130,95,-1,95,130,93,-1,128,67,127,-1,127,67,66,-1,127,66,125,-1,125,66,70,-1,125,70,123,-1,123,70,72,-1,123,72,121,-1,121,72,74,-1,121,74,119,-1,119,74,76,-1,119,76,117,-1,117,76,78,-1,117,78,114,-1,114,78,80,-1,114,80,112,-1,112,80,82,-1,112,82,110,-1,110,82,85,-1,110,85,108,-1,108,85,87,-1,108,87,106,-1,106,87,89,-1,106,89,104,-1,104,89,91,-1,104,91,102,-1,102,91,93,-1,102,93,99,-1,99,93,130,-1,99,130,101,-1,92,131,94,-1,94,131,97,-1,69,129,68,-1,68,129,126,-1,68,126,71,-1,71,126,124,-1,71,124,73,-1,73,124,122,-1,73,122,75,-1,75,122,120,-1,75,120,77,-1,77,120,118,-1,77,118,79,-1,79,118,116,-1,79,116,81,-1,81,116,115,-1,81,115,83,-1,83,115,113,-1,83,113,84,-1,84,113,111,-1,84,111,86,-1,86,111,109,-1,86,109,88,-1,88,109,107,-1,88,107,90,-1,90,107,105,-1,90,105,92,-1,92,105,103,-1,92,103,131,-1,131,103,98,-1,131,98,100,-1,132,133,134,-1,134,133,135,-1,132,134,136,-1,136,134,137,-1,136,137,138,-1,138,137,139,-1,138,139,140,-1,140,139,141,-1,140,141,142,-1,142,141,143,-1,142,143,144,-1,144,143,145,-1,144,145,146,-1,146,145,147,-1,148,146,149,-1,149,146,147,-1,148,149,150,-1,148,150,151,-1,151,150,152,-1,151,152,153,-1,153,152,154,-1,153,154,155,-1,155,154,156,-1,155,156,157,-1,157,156,158,-1,157,158,159,-1,159,158,160,-1,159,160,161,-1,162,161,163,-1,163,161,160,-1,164,165,166,-1,166,165,167,-1,165,164,168,-1,168,164,169,-1,168,169,170,-1,170,169,171,-1,170,171,172,-1,172,171,173,-1,172,173,174,-1,174,173,175,-1,174,175,176,-1,176,175,177,-1,176,177,178,-1,178,177,179,-1,180,178,181,-1,181,178,179,-1,180,181,182,-1,180,182,183,-1,183,182,184,-1,183,184,185,-1,185,184,186,-1,185,186,187,-1,187,186,188,-1,187,188,189,-1,189,188,190,-1,189,190,191,-1,191,190,192,-1,191,192,193,-1,194,193,195,-1,195,193,192,-1,133,194,135,-1,135,194,195,-1,162,196,161,-1,161,196,159,-1,194,133,193,-1,193,133,132,-1,193,132,191,-1,191,132,136,-1,191,136,189,-1,189,136,138,-1,189,138,187,-1,187,138,140,-1,187,140,185,-1,185,140,142,-1,185,142,183,-1,183,142,144,-1,183,144,180,-1,180,144,146,-1,180,146,178,-1,178,146,148,-1,178,148,176,-1,176,148,151,-1,176,151,174,-1,174,151,153,-1,174,153,172,-1,172,153,155,-1,172,155,170,-1,170,155,157,-1,170,157,168,-1,168,157,159,-1,168,159,165,-1,165,159,196,-1,165,196,167,-1,158,197,160,-1,160,197,163,-1,135,195,134,-1,134,195,192,-1,134,192,137,-1,137,192,190,-1,137,190,139,-1,139,190,188,-1,139,188,141,-1,141,188,186,-1,141,186,143,-1,143,186,184,-1,143,184,145,-1,145,184,182,-1,145,182,147,-1,147,182,181,-1,147,181,149,-1,149,181,179,-1,149,179,150,-1,150,179,177,-1,150,177,152,-1,152,177,175,-1,152,175,154,-1,154,175,173,-1,154,173,156,-1,156,173,171,-1,156,171,158,-1,158,171,169,-1,158,169,197,-1,197,169,164,-1,197,164,166,-1,198,199,200,-1,200,199,201,-1,198,200,202,-1,202,200,203,-1,202,203,204,-1,204,203,205,-1,204,205,206,-1,206,205,207,-1,206,207,208,-1,208,207,209,-1,208,209,210,-1,210,209,211,-1,210,211,212,-1,212,211,213,-1,214,212,215,-1,215,212,213,-1,214,215,216,-1,214,216,217,-1,217,216,218,-1,217,218,219,-1,219,218,220,-1,219,220,221,-1,221,220,222,-1,221,222,223,-1,223,222,224,-1,223,224,225,-1,225,224,226,-1,225,226,227,-1,228,227,229,-1,229,227,226,-1,230,231,232,-1,232,231,233,-1,231,230,234,-1,234,230,235,-1,234,235,236,-1,236,235,237,-1,236,237,238,-1,238,237,239,-1,238,239,240,-1,240,239,241,-1,240,241,242,-1,242,241,243,-1,242,243,244,-1,244,243,245,-1,246,244,247,-1,247,244,245,-1,246,247,248,-1,246,248,249,-1,249,248,250,-1,249,250,251,-1,251,250,252,-1,251,252,253,-1,253,252,254,-1,253,254,255,-1,255,254,256,-1,255,256,257,-1,257,256,258,-1,257,258,259,-1,260,259,261,-1,261,259,258,-1,199,260,201,-1,201,260,261,-1,228,262,227,-1,227,262,225,-1,260,199,259,-1,259,199,198,-1,259,198,257,-1,257,198,202,-1,257,202,255,-1,255,202,204,-1,255,204,253,-1,253,204,206,-1,253,206,251,-1,251,206,208,-1,251,208,249,-1,249,208,210,-1,249,210,246,-1,246,210,212,-1,246,212,244,-1,244,212,214,-1,244,214,242,-1,242,214,217,-1,242,217,240,-1,240,217,219,-1,240,219,238,-1,238,219,221,-1,238,221,236,-1,236,221,223,-1,236,223,234,-1,234,223,225,-1,234,225,231,-1,231,225,262,-1,231,262,233,-1,224,263,226,-1,226,263,229,-1,201,261,200,-1,200,261,258,-1,200,258,203,-1,203,258,256,-1,203,256,205,-1,205,256,254,-1,205,254,207,-1,207,254,252,-1,207,252,209,-1,209,252,250,-1,209,250,211,-1,211,250,248,-1,211,248,213,-1,213,248,247,-1,213,247,215,-1,215,247,245,-1,215,245,216,-1,216,245,243,-1,216,243,218,-1,218,243,241,-1,218,241,220,-1,220,241,239,-1,220,239,222,-1,222,239,237,-1,222,237,224,-1,224,237,235,-1,224,235,263,-1,263,235,230,-1,263,230,232,-1,264,265,266,-1,266,265,267,-1,268,264,269,-1,269,264,266,-1,270,268,271,-1,271,268,269,-1,270,271,272,-1,270,272,273,-1,273,272,274,-1,273,274,275,-1,275,274,276,-1,275,276,277,-1,277,276,278,-1,277,278,279,-1,279,278,280,-1,279,280,281,-1,281,280,282,-1,281,282,283,-1,284,283,285,-1,285,283,282,-1,284,285,286,-1,286,285,287,-1,286,287,288,-1,288,287,289,-1,288,289,290,-1,290,289,291,-1,290,291,292,-1,292,291,293,-1,292,293,294,-1,294,293,295,-1,294,295,296,-1,296,295,297,-1,298,296,299,-1,299,296,297,-1,300,301,302,-1,302,301,303,-1,301,300,304,-1,301,304,305,-1,305,304,306,-1,305,306,307,-1,307,306,308,-1,307,308,309,-1,309,308,310,-1,309,310,311,-1,311,310,312,-1,311,312,313,-1,313,312,314,-1,313,314,315,-1,316,315,317,-1,317,315,314,-1,316,317,318,-1,318,317,319,-1,318,319,320,-1,320,319,321,-1,320,321,322,-1,322,321,323,-1,322,323,324,-1,324,323,325,-1,324,325,326,-1,326,325,327,-1,326,327,265,-1,265,327,267,-1,305,328,301,-1,301,328,303,-1,264,268,265,-1,265,268,270,-1,265,270,326,-1,326,270,273,-1,326,273,324,-1,324,273,275,-1,324,275,322,-1,322,275,277,-1,322,277,320,-1,320,277,279,-1,320,279,318,-1,318,279,281,-1,318,281,316,-1,316,281,283,-1,316,283,315,-1,315,283,284,-1,315,284,313,-1,313,284,286,-1,313,286,311,-1,311,286,288,-1,311,288,309,-1,309,288,290,-1,309,290,307,-1,307,290,292,-1,307,292,305,-1,305,292,294,-1,305,294,328,-1,328,294,296,-1,328,296,298,-1,302,329,300,-1,300,329,304,-1,269,266,271,-1,271,266,267,-1,271,267,272,-1,272,267,327,-1,272,327,274,-1,274,327,325,-1,274,325,276,-1,276,325,323,-1,276,323,278,-1,278,323,321,-1,278,321,280,-1,280,321,319,-1,280,319,282,-1,282,319,317,-1,282,317,285,-1,285,317,314,-1,285,314,287,-1,287,314,312,-1,287,312,289,-1,289,312,310,-1,289,310,291,-1,291,310,308,-1,291,308,293,-1,293,308,306,-1,293,306,295,-1,295,306,304,-1,295,304,297,-1,297,304,329,-1,297,329,299,-1,330,331,332,-1,332,331,333,-1,334,330,335,-1,335,330,332,-1,336,334,337,-1,337,334,335,-1,336,337,338,-1,336,338,339,-1,339,338,340,-1,339,340,341,-1,341,340,342,-1,341,342,343,-1,343,342,344,-1,343,344,345,-1,345,344,346,-1,345,346,347,-1,347,346,348,-1,347,348,349,-1,350,349,351,-1,351,349,348,-1,350,351,352,-1,352,351,353,-1,352,353,354,-1,354,353,355,-1,354,355,356,-1,356,355,357,-1,356,357,358,-1,358,357,359,-1,358,359,360,-1,360,359,361,-1,360,361,362,-1,362,361,363,-1,364,362,365,-1,365,362,363,-1,366,367,368,-1,368,367,369,-1,367,366,370,-1,367,370,371,-1,371,370,372,-1,371,372,373,-1,373,372,374,-1,373,374,375,-1,375,374,376,-1,375,376,377,-1,377,376,378,-1,377,378,379,-1,379,378,380,-1,379,380,381,-1,382,381,383,-1,383,381,380,-1,382,383,384,-1,384,383,385,-1,384,385,386,-1,386,385,387,-1,386,387,388,-1,388,387,389,-1,388,389,390,-1,390,389,391,-1,390,391,392,-1,392,391,393,-1,392,393,331,-1,331,393,333,-1,371,394,367,-1,367,394,369,-1,330,334,331,-1,331,334,336,-1,331,336,392,-1,392,336,339,-1,392,339,390,-1,390,339,341,-1,390,341,388,-1,388,341,343,-1,388,343,386,-1,386,343,345,-1,386,345,384,-1,384,345,347,-1,384,347,382,-1,382,347,349,-1,382,349,381,-1,381,349,350,-1,381,350,379,-1,379,350,352,-1,379,352,377,-1,377,352,354,-1,377,354,375,-1,375,354,356,-1,375,356,373,-1,373,356,358,-1,373,358,371,-1,371,358,360,-1,371,360,394,-1,394,360,362,-1,394,362,364,-1,368,395,366,-1,366,395,370,-1,335,332,337,-1,337,332,333,-1,337,333,338,-1,338,333,393,-1,338,393,340,-1,340,393,391,-1,340,391,342,-1,342,391,389,-1,342,389,344,-1,344,389,387,-1,344,387,346,-1,346,387,385,-1,346,385,348,-1,348,385,383,-1,348,383,351,-1,351,383,380,-1,351,380,353,-1,353,380,378,-1,353,378,355,-1,355,378,376,-1,355,376,357,-1,357,376,374,-1,357,374,359,-1,359,374,372,-1,359,372,361,-1,361,372,370,-1,361,370,363,-1,363,370,395,-1,363,395,365,-1,
        ]
    }
}